roundedultracondensed-italic.ufo
<glyph name="exclam" format="2">
  <advance height="1920" width="290"/>
  <unicode hex="0021"/>
  <outline>
    <contour>
      <point x="49.0" y="-15.0" type="curve" smooth="yes"/>
      <point x="46.0" y="-15.0" type="line" smooth="yes"/>
      <point x="-6.0" y="-15.0"/>
      <point x="-29.0" y="23.0"/>
      <point x="-29.0" y="90.0" type="curve" smooth="yes"/>
      <point x="-29.0" y="99.0" type="line" smooth="yes"/>
      <point x="-29.0" y="166.0"/>
      <point x="-6.0" y="204.0"/>
      <point x="46.0" y="204.0" type="curve" smooth="yes"/>
      <point x="49.0" y="204.0" type="line" smooth="yes"/>
      <point x="101.0" y="204.0"/>
      <point x="124.0" y="166.0"/>
      <point x="124.0" y="99.0" type="curve" smooth="yes"/>
      <point x="124.0" y="90.0" type="line" smooth="yes"/>
      <point x="124.0" y="23.0"/>
      <point x="101.0" y="-15.0"/>
    </contour>
    <contour>
      <point x="179.0" y="950.0" type="curve" smooth="yes"/>
      <point x="279.0" y="1380.0" type="line" smooth="yes"/>
      <point x="292.0" y="1437.0"/>
      <point x="321.0" y="1465.0"/>
      <point x="358.0" y="1465.0" type="curve" smooth="yes"/>
      <point x="359.0" y="1465.0" type="line" smooth="yes"/>
      <point x="396.0" y="1465.0"/>
      <point x="423.0" y="1437.0"/>
      <point x="410.0" y="1380.0" type="curve" smooth="yes"/>
      <point x="310.0" y="950.0" type="line" smooth="yes"/>
      <point x="308.0" y="943.0"/>
      <point x="308.0" y="937.0"/>
      <point x="305.0" y="930.0" type="curve" smooth="yes"/>
      <point x="166.0" y="479.0" type="line" smooth="yes"/>
      <point x="151.0" y="432.0"/>
      <point x="137.0" y="424.0"/>
      <point x="125.0" y="424.0" type="curve" smooth="yes"/>
      <point x="122.0" y="424.0" type="line" smooth="yes"/>
      <point x="110.0" y="424.0"/>
      <point x="100.0" y="432.0"/>
      <point x="107.0" y="479.0" type="curve" smooth="yes"/>
      <point x="176.0" y="930.0" type="line" smooth="yes"/>
      <point x="177.0" y="937.0"/>
      <point x="177.0" y="943.0"/>
    </contour>
  </outline>
</glyph>
<glyph name="numbersign" format="2">
  <advance height="1920" width="573"/>
  <unicode hex="0023"/>
  <outline>
    <contour>
      <point x="78.0" y="514.0" type="curve" smooth="yes"/>
      <point x="440.0" y="514.0" type="line" smooth="yes"/>
      <point x="484.0" y="514.0"/>
      <point x="509.0" y="508.0"/>
      <point x="509.0" y="484.0" type="curve" smooth="yes"/>
      <point x="509.0" y="477.0" type="line" smooth="yes"/>
      <point x="509.0" y="453.0"/>
      <point x="484.0" y="447.0"/>
      <point x="440.0" y="447.0" type="curve" smooth="yes"/>
      <point x="78.0" y="447.0" type="line" smooth="yes"/>
      <point x="34.0" y="447.0"/>
      <point x="8.0" y="453.0"/>
      <point x="8.0" y="477.0" type="curve" smooth="yes"/>
      <point x="8.0" y="484.0" type="line" smooth="yes"/>
      <point x="8.0" y="508.0"/>
      <point x="34.0" y="514.0"/>
    </contour>
    <contour>
      <point x="236.0" y="1028.0" type="curve" smooth="yes"/>
      <point x="598.0" y="1028.0" type="line" smooth="yes"/>
      <point x="642.0" y="1028.0"/>
      <point x="667.0" y="1022.0"/>
      <point x="667.0" y="998.0" type="curve" smooth="yes"/>
      <point x="667.0" y="991.0" type="line" smooth="yes"/>
      <point x="667.0" y="967.0"/>
      <point x="642.0" y="961.0"/>
      <point x="598.0" y="961.0" type="curve" smooth="yes"/>
      <point x="236.0" y="961.0" type="line" smooth="yes"/>
      <point x="192.0" y="961.0"/>
      <point x="166.0" y="967.0"/>
      <point x="166.0" y="991.0" type="curve" smooth="yes"/>
      <point x="166.0" y="998.0" type="line" smooth="yes"/>
      <point x="166.0" y="1022.0"/>
      <point x="192.0" y="1028.0"/>
    </contour>
    <contour>
      <point x="657.0" y="1415.0" type="curve" smooth="yes"/>
      <point x="661.0" y="1415.0" type="line" smooth="yes"/>
      <point x="696.0" y="1415.0"/>
      <point x="697.0" y="1388.0"/>
      <point x="679.0" y="1335.0" type="curve" smooth="yes"/>
      <point x="237.0" y="65.0" type="line" smooth="yes"/>
      <point x="219.0" y="12.0"/>
      <point x="201.0" y="-15.0"/>
      <point x="166.0" y="-15.0" type="curve" smooth="yes"/>
      <point x="162.0" y="-15.0" type="line" smooth="yes"/>
      <point x="127.0" y="-15.0"/>
      <point x="125.0" y="12.0"/>
      <point x="143.0" y="65.0" type="curve" smooth="yes"/>
      <point x="585.0" y="1335.0" type="line" smooth="yes"/>
      <point x="603.0" y="1388.0"/>
      <point x="622.0" y="1415.0"/>
    </contour>
    <contour>
      <point x="481.0" y="1415.0" type="curve" smooth="yes"/>
      <point x="485.0" y="1415.0" type="line" smooth="yes"/>
      <point x="519.0" y="1415.0"/>
      <point x="521.0" y="1388.0"/>
      <point x="503.0" y="1335.0" type="curve" smooth="yes"/>
      <point x="61.0" y="65.0" type="line" smooth="yes"/>
      <point x="43.0" y="12.0"/>
      <point x="24.0" y="-15.0"/>
      <point x="-10.0" y="-15.0" type="curve" smooth="yes"/>
      <point x="-14.0" y="-15.0" type="line" smooth="yes"/>
      <point x="-48.0" y="-15.0"/>
      <point x="-51.0" y="12.0"/>
      <point x="-33.0" y="65.0" type="curve" smooth="yes"/>
      <point x="409.0" y="1335.0" type="line" smooth="yes"/>
      <point x="427.0" y="1388.0"/>
      <point x="447.0" y="1415.0"/>
    </contour>
  </outline>
</glyph>
<glyph name="dollar" format="2">
  <advance height="1920" width="455"/>
  <unicode hex="0024"/>
  <outline>
    <contour>
      <point x="94.0" y="535.0" type="curve" smooth="yes"/>
      <point x="103.0" y="535.0" type="line" smooth="yes"/>
      <point x="134.0" y="535.0"/>
      <point x="141.0" y="509.0"/>
      <point x="131.0" y="465.0" type="curve" smooth="yes"/>
      <point x="85.0" y="266.0" type="line" smooth="yes"/>
      <point x="48.0" y="102.0"/>
      <point x="66.0" y="70.0"/>
      <point x="118.0" y="70.0" type="curve" smooth="yes"/>
      <point x="163.0" y="70.0"/>
      <point x="219.0" y="118.0"/>
      <point x="268.0" y="331.0" type="curve" smooth="yes"/>
      <point x="305.0" y="493.0"/>
      <point x="281.0" y="602.0"/>
      <point x="244.0" y="678.0" type="curve" smooth="yes"/>
      <point x="190.0" y="784.0"/>
      <point x="149.0" y="890.0"/>
      <point x="203.0" y="1126.0" type="curve" smooth="yes"/>
      <point x="257.0" y="1358.0"/>
      <point x="332.0" y="1420.0"/>
      <point x="440.0" y="1420.0" type="curve" smooth="yes"/>
      <point x="543.0" y="1420.0"/>
      <point x="588.0" y="1364.0"/>
      <point x="538.0" y="1146.0" type="curve" smooth="yes"/>
      <point x="498.0" y="974.0" type="line" smooth="yes"/>
      <point x="486.0" y="920.0"/>
      <point x="468.0" y="895.0"/>
      <point x="435.0" y="895.0" type="curve" smooth="yes"/>
      <point x="429.0" y="895.0" type="line" smooth="yes"/>
      <point x="396.0" y="895.0"/>
      <point x="390.0" y="920.0"/>
      <point x="402.0" y="974.0" type="curve" smooth="yes"/>
      <point x="441.0" y="1144.0" type="line" smooth="yes"/>
      <point x="479.0" y="1309.0"/>
      <point x="462.0" y="1338.0"/>
      <point x="422.0" y="1338.0" type="curve" smooth="yes"/>
      <point x="384.0" y="1338.0"/>
      <point x="345.0" y="1297.0"/>
      <point x="305.0" y="1124.0" type="curve" smooth="yes"/>
      <point x="266.0" y="955.0"/>
      <point x="292.0" y="832.0"/>
      <point x="330.0" y="766.0" type="curve" smooth="yes"/>
      <point x="385.0" y="669.0"/>
      <point x="428.0" y="559.0"/>
      <point x="377.0" y="336.0" type="curve" smooth="yes"/>
      <point x="314.0" y="62.0"/>
      <point x="221.0" y="-20.0"/>
      <point x="96.0" y="-20.0" type="curve" smooth="yes"/>
      <point x="-23.0" y="-20.0"/>
      <point x="-63.0" y="48.0"/>
      <point x="-18.0" y="245.0" type="curve" smooth="yes"/>
      <point x="32.0" y="465.0" type="line" smooth="yes"/>
      <point x="42.0" y="509.0"/>
      <point x="63.0" y="535.0"/>
    </contour>
    <contour>
      <point x="479.0" y="1600.0" type="curve" smooth="yes"/>
      <point x="481.0" y="1600.0" type="line" smooth="yes"/>
      <point x="495.0" y="1600.0"/>
      <point x="497.0" y="1588.0"/>
      <point x="494.0" y="1574.0" type="curve" smooth="yes"/>
      <point x="91.0" y="-174.0" type="line" smooth="yes"/>
      <point x="88.0" y="-188.0"/>
      <point x="80.0" y="-200.0"/>
      <point x="66.0" y="-200.0" type="curve" smooth="yes"/>
      <point x="64.0" y="-200.0" type="line" smooth="yes"/>
      <point x="50.0" y="-200.0"/>
      <point x="48.0" y="-188.0"/>
      <point x="51.0" y="-174.0" type="curve" smooth="yes"/>
      <point x="454.0" y="1574.0" type="line" smooth="yes"/>
      <point x="457.0" y="1588.0"/>
      <point x="465.0" y="1600.0"/>
    </contour>
  </outline>
</glyph>
<glyph name="ampersand" format="2">
  <advance height="1920" width="616"/>
  <unicode hex="0026"/>
  <outline>
    <contour>
      <point x="344.0" y="57.0" type="curve" smooth="yes"/>
      <point x="309.0" y="1036.0" type="line" smooth="yes"/>
      <point x="304.0" y="1126.0"/>
      <point x="301.0" y="1178.0"/>
      <point x="316.0" y="1243.0" type="curve" smooth="yes"/>
      <point x="337.0" y="1332.0"/>
      <point x="416.0" y="1417.0"/>
      <point x="546.0" y="1417.0" type="curve" smooth="yes"/>
      <point x="678.0" y="1417.0"/>
      <point x="722.0" y="1336.0"/>
      <point x="698.0" y="1230.0" type="curve" smooth="yes"/>
      <point x="666.0" y="1092.0"/>
      <point x="531.0" y="994.0"/>
      <point x="373.0" y="930.0" type="curve" smooth="yes"/>
      <point x="241.0" y="877.0"/>
      <point x="206.0" y="819.0"/>
      <point x="179.0" y="703.0" type="curve" smooth="yes"/>
      <point x="170.0" y="663.0"/>
      <point x="166.0" y="602.0"/>
      <point x="171.0" y="535.0" type="curve" smooth="yes"/>
      <point x="181.0" y="266.0" type="line" smooth="yes"/>
      <point x="185.0" y="156.0"/>
      <point x="182.0" y="90.0"/>
      <point x="231.0" y="90.0" type="curve" smooth="yes"/>
      <point x="321.0" y="90.0"/>
      <point x="457.0" y="359.0"/>
      <point x="538.0" y="593.0" type="curve" smooth="yes"/>
      <point x="556.0" y="646.0"/>
      <point x="574.0" y="662.0"/>
      <point x="597.0" y="662.0" type="curve" smooth="yes"/>
      <point x="598.0" y="662.0" type="line" smooth="yes"/>
      <point x="622.0" y="662.0"/>
      <point x="634.0" y="645.0"/>
      <point x="615.0" y="591.0" type="curve" smooth="yes"/>
      <point x="512.0" y="306.0"/>
      <point x="327.0" y="-16.0"/>
      <point x="175.0" y="-16.0" type="curve" smooth="yes"/>
      <point x="73.0" y="-16.0"/>
      <point x="64.0" y="75.0"/>
      <point x="57.0" y="246.0" type="curve" smooth="yes"/>
      <point x="48.0" y="480.0" type="line" smooth="yes"/>
      <point x="41.0" y="568.0"/>
      <point x="43.0" y="638.0"/>
      <point x="57.0" y="697.0" type="curve" smooth="yes"/>
      <point x="92.0" y="847.0"/>
      <point x="207.0" y="932.0"/>
      <point x="353.0" y="994.0" type="curve" smooth="yes"/>
      <point x="502.0" y="1058.0"/>
      <point x="574.0" y="1123.0"/>
      <point x="597.0" y="1222.0" type="curve" smooth="yes"/>
      <point x="614.0" y="1296.0"/>
      <point x="598.0" y="1340.0"/>
      <point x="532.0" y="1340.0" type="curve" smooth="yes"/>
      <point x="479.0" y="1340.0"/>
      <point x="444.0" y="1299.0"/>
      <point x="430.0" y="1239.0" type="curve" smooth="yes"/>
      <point x="417.0" y="1183.0"/>
      <point x="417.0" y="1140.0"/>
      <point x="419.0" y="1107.0" type="curve" smooth="yes"/>
      <point x="461.0" y="87.0" type="line" smooth="yes"/>
      <point x="463.0" y="37.0"/>
      <point x="441.0" y="-15.0"/>
      <point x="397.0" y="-15.0" type="curve" smooth="yes"/>
      <point x="394.0" y="-15.0" type="line" smooth="yes"/>
      <point x="360.0" y="-15.0"/>
      <point x="346.0" y="6.0"/>
    </contour>
  </outline>
</glyph>
<glyph name="quotesingle" format="2">
  <advance height="1920" width="285"/>
  <unicode hex="0027"/>
  <outline>
    <contour>
      <point x="233.0" y="908.0" type="curve" smooth="yes"/>
      <point x="231.0" y="908.0" type="line" smooth="yes"/>
      <point x="217.0" y="908.0"/>
      <point x="212.0" y="921.0"/>
      <point x="215.0" y="938.0" type="curve" smooth="yes"/>
      <point x="252.0" y="1184.0" type="line" smooth="yes"/>
      <point x="255.0" y="1201.0"/>
      <point x="259.0" y="1227.0"/>
      <point x="263.0" y="1244.0" type="curve" smooth="yes"/>
      <point x="290.0" y="1360.0" type="line" smooth="yes"/>
      <point x="299.0" y="1397.0"/>
      <point x="315.0" y="1435.0"/>
      <point x="352.0" y="1435.0" type="curve" smooth="yes"/>
      <point x="355.0" y="1435.0" type="line" smooth="yes"/>
      <point x="392.0" y="1435.0"/>
      <point x="392.0" y="1397.0"/>
      <point x="383.0" y="1360.0" type="curve" smooth="yes"/>
      <point x="356.0" y="1244.0" type="line" smooth="yes"/>
      <point x="352.0" y="1227.0"/>
      <point x="344.0" y="1201.0"/>
      <point x="339.0" y="1184.0" type="curve" smooth="yes"/>
      <point x="263.0" y="938.0" type="line" smooth="yes"/>
      <point x="258.0" y="921.0"/>
      <point x="247.0" y="908.0"/>
    </contour>
  </outline>
</glyph>
<glyph name="parenleft" format="2">
  <advance height="2048" width="299"/>
  <unicode hex="0028"/>
  <outline>
    <contour>
      <point x="194.0" y="1220.0" type="line" smooth="yes"/>
      <point x="241.0" y="1422.0"/>
      <point x="345.0" y="1574.0"/>
      <point x="494.0" y="1607.0" type="curve" smooth="yes"/>
      <point x="518.0" y="1612.0"/>
      <point x="522.0" y="1600.0"/>
      <point x="519.0" y="1586.0" type="curve" smooth="yes"/>
      <point x="518.0" y="1582.0" type="line" smooth="yes"/>
      <point x="515.0" y="1571.0"/>
      <point x="506.0" y="1564.0"/>
      <point x="481.0" y="1550.0" type="curve" smooth="yes"/>
      <point x="407.0" y="1509.0"/>
      <point x="347.0" y="1427.0"/>
      <point x="301.0" y="1227.0" type="curve" smooth="yes"/>
      <point x="22.0" y="19.0" type="line" smooth="yes"/>
      <point x="-24.0" y="-181.0"/>
      <point x="-3.0" y="-263.0"/>
      <point x="53.0" y="-304.0" type="curve" smooth="yes"/>
      <point x="72.0" y="-318.0"/>
      <point x="78.0" y="-325.0"/>
      <point x="75.0" y="-336.0" type="curve" smooth="yes"/>
      <point x="75.0" y="-340.0" type="line" smooth="yes"/>
      <point x="72.0" y="-354.0"/>
      <point x="62.0" y="-366.0"/>
      <point x="40.0" y="-361.0" type="curve" smooth="yes"/>
      <point x="-93.0" y="-328.0"/>
      <point x="-129.0" y="-176.0"/>
      <point x="-82.0" y="26.0" type="curve" smooth="yes"/>
    </contour>
  </outline>
</glyph>
<glyph name="parenright" format="2">
  <advance height="2048" width="298"/>
  <unicode hex="0029"/>
  <outline>
    <contour>
      <point x="153.0" y="26.0" type="line" smooth="yes"/>
      <point x="106.0" y="-176.0"/>
      <point x="2.0" y="-328.0"/>
      <point x="-147.0" y="-361.0" type="curve" smooth="yes"/>
      <point x="-171.0" y="-366.0"/>
      <point x="-175.0" y="-354.0"/>
      <point x="-172.0" y="-340.0" type="curve" smooth="yes"/>
      <point x="-172.0" y="-336.0" type="line" smooth="yes"/>
      <point x="-169.0" y="-325.0"/>
      <point x="-159.0" y="-318.0"/>
      <point x="-134.0" y="-304.0" type="curve" smooth="yes"/>
      <point x="-60.0" y="-263.0"/>
      <point x="-1.0" y="-181.0"/>
      <point x="45.0" y="19.0" type="curve" smooth="yes"/>
      <point x="324.0" y="1227.0" type="line" smooth="yes"/>
      <point x="370.0" y="1427.0"/>
      <point x="350.0" y="1509.0"/>
      <point x="294.0" y="1550.0" type="curve" smooth="yes"/>
      <point x="275.0" y="1564.0"/>
      <point x="268.0" y="1571.0"/>
      <point x="271.0" y="1582.0" type="curve" smooth="yes"/>
      <point x="272.0" y="1586.0" type="line" smooth="yes"/>
      <point x="275.0" y="1600.0"/>
      <point x="285.0" y="1612.0"/>
      <point x="307.0" y="1607.0" type="curve" smooth="yes"/>
      <point x="440.0" y="1574.0"/>
      <point x="476.0" y="1422.0"/>
      <point x="429.0" y="1220.0" type="curve" smooth="yes"/>
    </contour>
  </outline>
</glyph>
<glyph name="asterisk" format="2">
  <advance height="2048" width="518"/>
  <unicode hex="002A"/>
  <outline>
    <contour>
      <point x="420.0" y="1192.0" type="line"/>
      <point x="417.0" y="1229.0" type="line"/>
      <point x="583.0" y="1302.0" type="line" smooth="yes"/>
      <point x="609.0" y="1313.0"/>
      <point x="622.0" y="1320.0"/>
      <point x="632.0" y="1323.0" type="curve" smooth="yes"/>
      <point x="633.0" y="1323.0" type="line" smooth="yes"/>
      <point x="653.0" y="1329.0"/>
      <point x="674.0" y="1319.0"/>
      <point x="677.0" y="1292.0" type="curve" smooth="yes"/>
      <point x="677.0" y="1286.0" type="line" smooth="yes"/>
      <point x="680.0" y="1259.0"/>
      <point x="662.0" y="1237.0"/>
      <point x="642.0" y="1231.0" type="curve" smooth="yes"/>
      <point x="641.0" y="1231.0" type="line" smooth="yes"/>
      <point x="626.0" y="1227.0"/>
      <point x="617.0" y="1226.0"/>
      <point x="591.0" y="1221.0" type="curve" smooth="yes"/>
    </contour>
    <contour>
      <point x="400.0" y="1200.0" type="line"/>
      <point x="436.0" y="1223.0" type="line"/>
      <point x="525.0" y="1103.0" type="line" smooth="yes"/>
      <point x="539.0" y="1084.0"/>
      <point x="545.0" y="1075.0"/>
      <point x="549.0" y="1067.0" type="curve" smooth="yes"/>
      <point x="550.0" y="1066.0" type="line" smooth="yes"/>
      <point x="558.0" y="1050.0"/>
      <point x="549.0" y="1025.0"/>
      <point x="522.0" y="1008.0" type="curve" smooth="yes"/>
      <point x="517.0" y="1005.0" type="line" smooth="yes"/>
      <point x="490.0" y="988.0"/>
      <point x="466.0" y="993.0"/>
      <point x="458.0" y="1009.0" type="curve" smooth="yes"/>
      <point x="458.0" y="1010.0" type="line" smooth="yes"/>
      <point x="452.0" y="1022.0"/>
      <point x="451.0" y="1030.0"/>
      <point x="444.0" y="1053.0" type="curve" smooth="yes"/>
    </contour>
    <contour>
      <point x="405.0" y="1223.0" type="line"/>
      <point x="432.0" y="1200.0" type="line"/>
      <point x="319.0" y="1053.0" type="line" smooth="yes"/>
      <point x="302.0" y="1030.0"/>
      <point x="293.0" y="1018.0"/>
      <point x="285.0" y="1010.0" type="curve" smooth="yes"/>
      <point x="285.0" y="1009.0" type="line" smooth="yes"/>
      <point x="269.0" y="993.0"/>
      <point x="243.0" y="988.0"/>
      <point x="224.0" y="1005.0" type="curve" smooth="yes"/>
      <point x="221.0" y="1008.0" type="line" smooth="yes"/>
      <point x="202.0" y="1025.0"/>
      <point x="204.0" y="1050.0"/>
      <point x="220.0" y="1066.0" type="curve" smooth="yes"/>
      <point x="220.0" y="1066.0" type="line" smooth="yes"/>
      <point x="232.0" y="1078.0"/>
      <point x="241.0" y="1084.0"/>
      <point x="263.0" y="1103.0" type="curve" smooth="yes"/>
    </contour>
    <contour>
      <point x="429.0" y="1229.0" type="line"/>
      <point x="408.0" y="1192.0" type="line"/>
      <point x="251.0" y="1221.0" type="line" smooth="yes"/>
      <point x="227.0" y="1226.0"/>
      <point x="212.0" y="1228.0"/>
      <point x="204.0" y="1231.0" type="curve" smooth="yes"/>
      <point x="204.0" y="1231.0" type="line" smooth="yes"/>
      <point x="186.0" y="1237.0"/>
      <point x="179.0" y="1259.0"/>
      <point x="194.0" y="1286.0" type="curve" smooth="yes"/>
      <point x="197.0" y="1292.0" type="line" smooth="yes"/>
      <point x="212.0" y="1319.0"/>
      <point x="237.0" y="1329.0"/>
      <point x="255.0" y="1323.0" type="curve" smooth="yes"/>
      <point x="255.0" y="1323.0" type="line" smooth="yes"/>
      <point x="268.0" y="1319.0"/>
      <point x="276.0" y="1313.0"/>
      <point x="296.0" y="1302.0" type="curve" smooth="yes"/>
    </contour>
    <contour>
      <point x="438.0" y="1211.0" type="line"/>
      <point x="400.0" y="1211.0" type="line"/>
      <point x="414.0" y="1376.0" type="line" smooth="yes"/>
      <point x="417.0" y="1401.0"/>
      <point x="417.0" y="1416.0"/>
      <point x="419.0" y="1425.0" type="curve" smooth="yes"/>
      <point x="419.0" y="1426.0" type="line" smooth="yes"/>
      <point x="424.0" y="1446.0"/>
      <point x="445.0" y="1464.0"/>
      <point x="474.0" y="1464.0" type="curve" smooth="yes"/>
      <point x="480.0" y="1464.0" type="line" smooth="yes"/>
      <point x="509.0" y="1464.0"/>
      <point x="521.0" y="1446.0"/>
      <point x="516.0" y="1426.0" type="curve" smooth="yes"/>
      <point x="516.0" y="1425.0" type="line" smooth="yes"/>
      <point x="513.0" y="1410.0"/>
      <point x="508.0" y="1401.0"/>
      <point x="499.0" y="1376.0" type="curve" smooth="yes"/>
    </contour>
  </outline>
</glyph>
<glyph name="plus" format="2">
  <advance height="1920" width="560"/>
  <unicode hex="002B"/>
  <outline>
    <contour>
      <point x="30.0" y="683.0" type="curve" smooth="yes"/>
      <point x="30.0" y="691.0" type="line" smooth="yes"/>
      <point x="30.0" y="712.0"/>
      <point x="49.0" y="731.0"/>
      <point x="87.0" y="731.0" type="curve" smooth="yes"/>
      <point x="549.0" y="731.0" type="line" smooth="yes"/>
      <point x="587.0" y="731.0"/>
      <point x="606.0" y="712.0"/>
      <point x="606.0" y="691.0" type="curve" smooth="yes"/>
      <point x="606.0" y="683.0" type="line" smooth="yes"/>
      <point x="606.0" y="662.0"/>
      <point x="587.0" y="643.0"/>
      <point x="549.0" y="643.0" type="curve" smooth="yes"/>
      <point x="87.0" y="643.0" type="line" smooth="yes"/>
      <point x="49.0" y="643.0"/>
      <point x="30.0" y="662.0"/>
    </contour>
    <contour>
      <point x="385.0" y="988.0" type="curve" smooth="yes"/>
      <point x="391.0" y="988.0" type="line" smooth="yes"/>
      <point x="412.0" y="988.0"/>
      <point x="427.0" y="969.0"/>
      <point x="418.0" y="931.0" type="curve" smooth="yes"/>
      <point x="302.0" y="429.0" type="line" smooth="yes"/>
      <point x="293.0" y="391.0"/>
      <point x="270.0" y="372.0"/>
      <point x="249.0" y="372.0" type="curve" smooth="yes"/>
      <point x="243.0" y="372.0" type="line" smooth="yes"/>
      <point x="222.0" y="372.0"/>
      <point x="207.0" y="391.0"/>
      <point x="216.0" y="429.0" type="curve" smooth="yes"/>
      <point x="332.0" y="931.0" type="line" smooth="yes"/>
      <point x="341.0" y="969.0"/>
      <point x="364.0" y="988.0"/>
    </contour>
  </outline>
</glyph>
<glyph name="comma" format="2">
  <advance height="1920" width="290"/>
  <unicode hex="002C"/>
  <outline>
    <contour>
      <point x="-91.0" y="-222.0" type="curve" smooth="yes"/>
      <point x="-93.0" y="-222.0" type="line" smooth="yes"/>
      <point x="-101.0" y="-222.0"/>
      <point x="-107.663304309" y="-207.570451028"/>
      <point x="-98.0" y="-193.0" type="curve" smooth="yes"/>
      <point x="9.0" y="0.0" type="line"/>
      <point x="8.0" y="0.0" type="line" smooth="yes"/>
      <point x="-31.0" y="0.0"/>
      <point x="-40.0" y="31.0"/>
      <point x="-40.0" y="80.0" type="curve" smooth="yes"/>
      <point x="-40.0" y="89.0" type="line" smooth="yes"/>
      <point x="-40.0" y="156.0"/>
      <point x="2.0" y="204.0"/>
      <point x="54.0" y="204.0" type="curve" smooth="yes"/>
      <point x="57.0" y="204.0" type="line" smooth="yes"/>
      <point x="109.0" y="204.0"/>
      <point x="130.0" y="168.0"/>
      <point x="130.0" y="121.0" type="curve" smooth="yes"/>
      <point x="130.0" y="118.0" type="line" smooth="yes"/>
      <point x="130.0" y="81.0"/>
      <point x="108.820461714" y="33.9464972789"/>
      <point x="77.0" y="-9.0" type="curve" smooth="yes"/>
      <point x="-66.0" y="-202.0" type="line" smooth="yes"/>
      <point x="-78.4529080675" y="-215.908442777"/>
      <point x="-82.0" y="-222.0"/>
    </contour>
  </outline>
</glyph>
<glyph name="hyphen" format="2">
  <advance height="1920" width="329"/>
  <unicode hex="002D"/>
  <outline>
    <contour>
      <point x="29.0" y="608.0" type="curve" smooth="yes"/>
      <point x="29.0" y="617.0" type="line" smooth="yes"/>
      <point x="29.0" y="638.0"/>
      <point x="48.0" y="657.0"/>
      <point x="86.0" y="657.0" type="curve" smooth="yes"/>
      <point x="286.0" y="657.0" type="line" smooth="yes"/>
      <point x="324.0" y="657.0"/>
      <point x="343.0" y="638.0"/>
      <point x="343.0" y="617.0" type="curve" smooth="yes"/>
      <point x="343.0" y="608.0" type="line" smooth="yes"/>
      <point x="343.0" y="587.0"/>
      <point x="324.0" y="568.0"/>
      <point x="286.0" y="568.0" type="curve" smooth="yes"/>
      <point x="86.0" y="568.0" type="line" smooth="yes"/>
      <point x="48.0" y="568.0"/>
      <point x="29.0" y="587.0"/>
    </contour>
  </outline>
</glyph>
<glyph name="period" format="2">
  <advance height="1920" width="290"/>
  <unicode hex="002E"/>
  <outline>
    <contour>
      <point x="47.0" y="-15.0" type="curve" smooth="yes"/>
      <point x="44.0" y="-15.0" type="line" smooth="yes"/>
      <point x="-8.0" y="-15.0"/>
      <point x="-31.0" y="23.0"/>
      <point x="-31.0" y="90.0" type="curve" smooth="yes"/>
      <point x="-31.0" y="99.0" type="line" smooth="yes"/>
      <point x="-31.0" y="166.0"/>
      <point x="-8.0" y="204.0"/>
      <point x="44.0" y="204.0" type="curve" smooth="yes"/>
      <point x="47.0" y="204.0" type="line" smooth="yes"/>
      <point x="99.0" y="204.0"/>
      <point x="122.0" y="166.0"/>
      <point x="122.0" y="99.0" type="curve" smooth="yes"/>
      <point x="122.0" y="90.0" type="line" smooth="yes"/>
      <point x="122.0" y="23.0"/>
      <point x="99.0" y="-15.0"/>
    </contour>
  </outline>
</glyph>
<glyph name="slash" format="2">
  <advance height="2048" width="441"/>
  <unicode hex="002F"/>
  <outline>
    <contour>
      <point x="608.0" y="1355.0" type="curve" smooth="yes"/>
      <point x="-11.0" y="-55.0" type="line" smooth="yes"/>
      <point x="-26.0" y="-88.0"/>
      <point x="-46.0" y="-115.0"/>
      <point x="-80.0" y="-115.0" type="curve" smooth="yes"/>
      <point x="-81.0" y="-115.0" type="line" smooth="yes"/>
      <point x="-115.0" y="-115.0"/>
      <point x="-119.0" y="-88.0"/>
      <point x="-104.0" y="-55.0" type="curve" smooth="yes"/>
      <point x="515.0" y="1355.0" type="line" smooth="yes"/>
      <point x="530.0" y="1388.0"/>
      <point x="551.0" y="1415.0"/>
      <point x="584.0" y="1415.0" type="curve" smooth="yes"/>
      <point x="585.0" y="1415.0" type="line" smooth="yes"/>
      <point x="619.0" y="1415.0"/>
      <point x="623.0" y="1388.0"/>
    </contour>
  </outline>
</glyph>
<glyph name="zero" format="2">
  <advance height="1920" width="448"/>
  <unicode hex="0030"/>
  <outline>
    <contour>
      <point x="-17.0" y="244.0" type="curve" smooth="yes"/>
      <point x="194.0" y="1155.0" type="line" smooth="yes"/>
      <point x="232.0" y="1318.0"/>
      <point x="283.0" y="1417.0"/>
      <point x="431.0" y="1417.0" type="curve" smooth="yes"/>
      <point x="579.0" y="1417.0"/>
      <point x="587.0" y="1318.0"/>
      <point x="549.0" y="1155.0" type="curve" smooth="yes"/>
      <point x="338.0" y="244.0" type="line" smooth="yes"/>
      <point x="300.0" y="81.0"/>
      <point x="248.0" y="-18.0"/>
      <point x="100.0" y="-18.0" type="curve" smooth="yes"/>
      <point x="-48.0" y="-18.0"/>
      <point x="-55.0" y="81.0"/>
    </contour>
    <contour>
      <point x="100.0" y="254.0" type="line" smooth="yes"/>
      <point x="73.0" y="136.0"/>
      <point x="56.0" y="64.0"/>
      <point x="119.0" y="64.0" type="curve" smooth="yes"/>
      <point x="182.0" y="64.0"/>
      <point x="200.0" y="136.0"/>
      <point x="227.0" y="254.0" type="curve" smooth="yes"/>
      <point x="432.0" y="1145.0" type="line" smooth="yes"/>
      <point x="459.0" y="1263.0"/>
      <point x="475.0" y="1334.0"/>
      <point x="412.0" y="1334.0" type="curve" smooth="yes"/>
      <point x="349.0" y="1334.0"/>
      <point x="332.0" y="1263.0"/>
      <point x="305.0" y="1145.0" type="curve" smooth="yes"/>
    </contour>
  </outline>
</glyph>
<glyph name="one" format="2">
  <advance height="1920" width="302"/>
  <unicode hex="0031"/>
  <outline>
    <contour>
      <point x="320.0" y="1388.0" type="curve" smooth="yes"/>
      <point x="332.0" y="1395.0"/>
      <point x="343.0" y="1398.0"/>
      <point x="357.0" y="1412.0" type="curve" smooth="yes"/>
      <point x="366.0" y="1420.0"/>
      <point x="377.0" y="1432.0"/>
      <point x="392.0" y="1432.0" type="curve" smooth="yes"/>
      <point x="394.0" y="1432.0" type="line" smooth="yes"/>
      <point x="409.0" y="1432.0"/>
      <point x="415.0" y="1418.0"/>
      <point x="412.0" y="1403.0" type="curve" smooth="yes"/>
      <point x="99.0" y="48.0" type="line" smooth="yes"/>
      <point x="89.0" y="4.0"/>
      <point x="58.0" y="-15.0"/>
      <point x="31.0" y="-15.0" type="curve" smooth="yes"/>
      <point x="25.0" y="-15.0" type="line" smooth="yes"/>
      <point x="-2.0" y="-15.0"/>
      <point x="-25.0" y="4.0"/>
      <point x="-15.0" y="48.0" type="curve" smooth="yes"/>
      <point x="283.0" y="1337.0" type="line" smooth="yes"/>
      <point x="290.0" y="1369.0"/>
      <point x="305.0" y="1379.0"/>
    </contour>
  </outline>
</glyph>
<glyph name="two" format="2">
  <advance height="1920" width="418"/>
  <unicode hex="0032"/>
  <outline>
    <contour>
      <point x="-56.0" y="118.0" type="line" smooth="yes"/>
      <point x="29.0" y="485.0"/>
      <point x="296.0" y="658.0"/>
      <point x="366.0" y="963.0" type="curve" smooth="yes"/>
      <point x="407.0" y="1141.0" type="line" smooth="yes"/>
      <point x="436.0" y="1267.0"/>
      <point x="448.0" y="1329.0"/>
      <point x="398.0" y="1329.0" type="curve" smooth="yes"/>
      <point x="352.0" y="1329.0"/>
      <point x="330.0" y="1264.0"/>
      <point x="302.0" y="1143.0" type="curve" smooth="yes"/>
      <point x="238.0" y="867.0" type="line" smooth="yes"/>
      <point x="228.0" y="823.0"/>
      <point x="207.0" y="797.0"/>
      <point x="173.0" y="797.0" type="curve" smooth="yes"/>
      <point x="164.0" y="797.0" type="line" smooth="yes"/>
      <point x="130.0" y="797.0"/>
      <point x="119.0" y="823.0"/>
      <point x="129.0" y="867.0" type="curve" smooth="yes"/>
      <point x="192.0" y="1139.0" type="line" smooth="yes"/>
      <point x="233.0" y="1318.0"/>
      <point x="286.0" y="1417.0"/>
      <point x="419.0" y="1417.0" type="curve" smooth="yes"/>
      <point x="551.0" y="1417.0"/>
      <point x="561.0" y="1336.0"/>
      <point x="515.0" y="1137.0" type="curve" smooth="yes"/>
      <point x="485.0" y="1004.0" type="line" smooth="yes"/>
      <point x="401.0" y="640.0"/>
      <point x="140.0" y="464.0"/>
      <point x="71.0" y="164.0" type="curve" smooth="yes"/>
      <point x="56.0" y="98.0" type="line"/>
      <point x="248.0" y="98.0" type="line" smooth="yes"/>
      <point x="282.0" y="98.0"/>
      <point x="305.0" y="86.0"/>
      <point x="297.0" y="52.0" type="curve" smooth="yes"/>
      <point x="295.0" y="45.0" type="line" smooth="yes"/>
      <point x="287.0" y="11.0"/>
      <point x="259.0" y="0.0"/>
      <point x="225.0" y="0.0" type="curve" smooth="yes"/>
      <point x="-78.0" y="0.0" type="line" smooth="yes"/>
      <point x="-82.0" y="0.0"/>
      <point x="-83.0" y="1.0"/>
      <point x="-82.0" y="5.0" type="curve" smooth="yes"/>
    </contour>
  </outline>
</glyph>
<glyph name="three" format="2">
  <advance height="1920" width="464"/>
  <unicode hex="0033"/>
  <outline>
    <contour>
      <point x="72.0" y="428.0" type="curve" smooth="yes"/>
      <point x="75.0" y="428.0" type="line" smooth="yes"/>
      <point x="109.0" y="428.0"/>
      <point x="123.0" y="401.0"/>
      <point x="113.0" y="357.0" type="curve" smooth="yes"/>
      <point x="72.0" y="176.0" type="line" smooth="yes"/>
      <point x="58.0" y="116.0"/>
      <point x="61.0" y="70.0"/>
      <point x="125.0" y="70.0" type="curve" smooth="yes"/>
      <point x="193.0" y="70.0"/>
      <point x="220.0" y="122.0"/>
      <point x="235.0" y="187.0" type="curve" smooth="yes"/>
      <point x="322.0" y="562.0" type="line" smooth="yes"/>
      <point x="336.0" y="624.0"/>
      <point x="324.0" y="664.0"/>
      <point x="254.0" y="664.0" type="curve" smooth="yes"/>
      <point x="243.0" y="664.0" type="line" smooth="yes"/>
      <point x="204.0" y="664.0"/>
      <point x="198.0" y="683.0"/>
      <point x="204.0" y="707.0" type="curve" smooth="yes"/>
      <point x="205.0" y="709.0" type="line" smooth="yes"/>
      <point x="211.0" y="733.0"/>
      <point x="224.0" y="751.0"/>
      <point x="263.0" y="751.0" type="curve" smooth="yes"/>
      <point x="264.0" y="751.0" type="line" smooth="yes"/>
      <point x="329.0" y="751.0"/>
      <point x="352.0" y="794.0"/>
      <point x="365.0" y="852.0" type="curve" smooth="yes"/>
      <point x="452.0" y="1232.0" type="line" smooth="yes"/>
      <point x="465.0" y="1288.0"/>
      <point x="466.0" y="1328.0"/>
      <point x="412.0" y="1328.0" type="curve" smooth="yes"/>
      <point x="352.0" y="1328.0"/>
      <point x="338.0" y="1280.0"/>
      <point x="323.0" y="1216.0" type="curve" smooth="yes"/>
      <point x="274.0" y="1007.0" type="line" smooth="yes"/>
      <point x="264.0" y="963.0"/>
      <point x="238.0" y="937.0"/>
      <point x="204.0" y="937.0" type="curve" smooth="yes"/>
      <point x="201.0" y="937.0" type="line" smooth="yes"/>
      <point x="167.0" y="937.0"/>
      <point x="155.0" y="963.0"/>
      <point x="165.0" y="1007.0" type="curve" smooth="yes"/>
      <point x="215.0" y="1220.0" type="line" smooth="yes"/>
      <point x="242.0" y="1337.0"/>
      <point x="301.0" y="1417.0"/>
      <point x="435.0" y="1417.0" type="curve" smooth="yes"/>
      <point x="569.0" y="1417.0"/>
      <point x="596.0" y="1349.0"/>
      <point x="569.0" y="1234.0" type="curve" smooth="yes"/>
      <point x="486.0" y="875.0" type="line" smooth="yes"/>
      <point x="456.0" y="745.0"/>
      <point x="390.0" y="700.0"/>
      <point x="256.0" y="700.0" type="curve"/>
      <point x="271.0" y="725.0" type="line"/>
      <point x="405.0" y="725.0"/>
      <point x="463.0" y="676.0"/>
      <point x="433.0" y="545.0" type="curve" smooth="yes"/>
      <point x="350.0" y="185.0" type="line" smooth="yes"/>
      <point x="321.0" y="59.0"/>
      <point x="251.0" y="-18.0"/>
      <point x="97.0" y="-18.0" type="curve" smooth="yes"/>
      <point x="-33.0" y="-18.0"/>
      <point x="-69.0" y="55.0"/>
      <point x="-42.0" y="173.0" type="curve" smooth="yes"/>
      <point x="0.0" y="357.0" type="line" smooth="yes"/>
      <point x="10.0" y="401.0"/>
      <point x="38.0" y="428.0"/>
    </contour>
  </outline>
</glyph>
<glyph name="four" format="2">
  <advance height="1920" width="461"/>
  <unicode hex="0034"/>
  <outline>
    <contour>
      <point x="439.0" y="416.0" type="curve" smooth="yes"/>
      <point x="437.0" y="409.0" type="line" smooth="yes"/>
      <point x="431.0" y="385.0"/>
      <point x="412.0" y="369.0"/>
      <point x="358.0" y="369.0" type="curve" smooth="yes"/>
      <point x="318.0" y="369.0" type="line"/>
      <point x="246.0" y="55.0" type="line" smooth="yes"/>
      <point x="236.0" y="11.0"/>
      <point x="209.0" y="-15.0"/>
      <point x="175.0" y="-15.0" type="curve" smooth="yes"/>
      <point x="171.0" y="-15.0" type="line" smooth="yes"/>
      <point x="137.0" y="-15.0"/>
      <point x="122.0" y="11.0"/>
      <point x="132.0" y="55.0" type="curve" smooth="yes"/>
      <point x="204.0" y="369.0" type="line"/>
      <point x="53.0" y="369.0" type="line" smooth="yes"/>
      <point x="9.0" y="369.0"/>
      <point x="-7.0" y="390.0"/>
      <point x="3.0" y="434.0" type="curve" smooth="yes"/>
      <point x="5.0" y="442.0" type="line" smooth="yes"/>
      <point x="11.0" y="466.0"/>
      <point x="20.0" y="485.0"/>
      <point x="31.0" y="508.0" type="curve" smooth="yes"/>
      <point x="456.0" y="1365.0" type="line" smooth="yes"/>
      <point x="471.0" y="1396.0"/>
      <point x="491.0" y="1415.0"/>
      <point x="515.0" y="1415.0" type="curve" smooth="yes"/>
      <point x="517.0" y="1415.0" type="line" smooth="yes"/>
      <point x="551.0" y="1415.0"/>
      <point x="554.0" y="1389.0"/>
      <point x="546.0" y="1355.0" type="curve" smooth="yes"/>
      <point x="338.0" y="456.0" type="line"/>
      <point x="378.0" y="456.0" type="line" smooth="yes"/>
      <point x="432.0" y="456.0"/>
      <point x="445.0" y="440.0"/>
    </contour>
    <contour>
      <point x="229.0" y="456.0" type="line"/>
      <point x="367.0" y="1052.0" type="line"/>
      <point x="83.0" y="456.0" type="line"/>
    </contour>
  </outline>
</glyph>
<glyph name="five" format="2">
  <advance height="1920" width="425"/>
  <unicode hex="0035"/>
  <outline>
    <contour>
      <point x="69.0" y="379.0" type="curve" smooth="yes"/>
      <point x="73.0" y="379.0" type="line" smooth="yes"/>
      <point x="106.0" y="379.0"/>
      <point x="120.0" y="363.0"/>
      <point x="110.0" y="320.0" type="curve" smooth="yes"/>
      <point x="68.0" y="138.0"/>
      <point x="58.0" y="64.0"/>
      <point x="100.0" y="64.0" type="curve" smooth="yes"/>
      <point x="142.0" y="64.0"/>
      <point x="182.0" y="166.0"/>
      <point x="219.0" y="326.0" type="curve" smooth="yes"/>
      <point x="286.0" y="614.0" type="line" smooth="yes"/>
      <point x="333.0" y="818.0"/>
      <point x="338.0" y="848.0"/>
      <point x="307.0" y="848.0" type="curve" smooth="yes"/>
      <point x="282.0" y="848.0"/>
      <point x="268.0" y="817.0"/>
      <point x="216.0" y="696.0" type="curve" smooth="yes"/>
      <point x="197.0" y="652.0"/>
      <point x="175.0" y="625.0"/>
      <point x="142.0" y="625.0" type="curve" smooth="yes"/>
      <point x="131.0" y="625.0" type="line" smooth="yes"/>
      <point x="97.0" y="625.0"/>
      <point x="96.0" y="662.0"/>
      <point x="106.0" y="696.0" type="curve" smooth="yes"/>
      <point x="290.0" y="1355.0" type="line" smooth="yes"/>
      <point x="300.0" y="1388.0"/>
      <point x="314.0" y="1400.0"/>
      <point x="348.0" y="1400.0" type="curve" smooth="yes"/>
      <point x="542.0" y="1400.0" type="line" smooth="yes"/>
      <point x="576.0" y="1400.0"/>
      <point x="585.0" y="1392.0"/>
      <point x="577.0" y="1358.0" type="curve" smooth="yes"/>
      <point x="576.0" y="1357.0" type="line" smooth="yes"/>
      <point x="567.0" y="1319.0"/>
      <point x="550.0" y="1312.0"/>
      <point x="462.0" y="1312.0" type="curve" smooth="yes"/>
      <point x="370.0" y="1312.0" type="line"/>
      <point x="192.0" y="690.0" type="line"/>
      <point x="184.0" y="690.0" type="line"/>
      <point x="219.0" y="810.0"/>
      <point x="281.0" y="937.0"/>
      <point x="365.0" y="937.0" type="curve" smooth="yes"/>
      <point x="441.0" y="937.0"/>
      <point x="455.0" y="855.0"/>
      <point x="397.0" y="603.0" type="curve" smooth="yes"/>
      <point x="328.0" y="305.0" type="line" smooth="yes"/>
      <point x="275.0" y="77.0"/>
      <point x="206.0" y="-17.0"/>
      <point x="88.0" y="-17.0" type="curve" smooth="yes"/>
      <point x="-26.0" y="-17.0"/>
      <point x="-46.0" y="51.0"/>
      <point x="6.0" y="319.0" type="curve" smooth="yes"/>
      <point x="14.0" y="363.0"/>
      <point x="35.0" y="379.0"/>
    </contour>
  </outline>
</glyph>
<glyph name="seven" format="2">
  <advance height="1920" width="374"/>
  <unicode hex="0037"/>
  <outline>
    <contour>
      <point x="555.0" y="1335.0" type="curve" smooth="yes"/>
      <point x="89.0" y="55.0" type="line" smooth="yes"/>
      <point x="70.0" y="2.0"/>
      <point x="47.0" y="-15.0"/>
      <point x="13.0" y="-15.0" type="curve" smooth="yes"/>
      <point x="5.0" y="-15.0" type="line" smooth="yes"/>
      <point x="-29.0" y="-15.0"/>
      <point x="-40.0" y="3.0"/>
      <point x="-20.0" y="55.0" type="curve" smooth="yes"/>
      <point x="455.0" y="1302.0" type="line"/>
      <point x="260.0" y="1302.0" type="line" smooth="yes"/>
      <point x="216.0" y="1302.0"/>
      <point x="204.0" y="1316.0"/>
      <point x="212.0" y="1350.0" type="curve" smooth="yes"/>
      <point x="212.0" y="1352.0" type="line" smooth="yes"/>
      <point x="220.0" y="1386.0"/>
      <point x="238.0" y="1400.0"/>
      <point x="282.0" y="1400.0" type="curve" smooth="yes"/>
      <point x="514.0" y="1400.0" type="line" smooth="yes"/>
      <point x="558.0" y="1400.0"/>
      <point x="571.0" y="1378.0"/>
    </contour>
  </outline>
</glyph>
<glyph name="less" format="2">
  <advance height="1920" width="491"/>
  <unicode hex="003C"/>
  <outline>
    <contour>
      <point x="352.0" y="367.0" type="curve" smooth="yes"/>
      <point x="78.0" y="551.0" type="line" smooth="yes"/>
      <point x="56.0" y="566.0"/>
      <point x="50.0" y="576.0"/>
      <point x="55.0" y="597.0" type="curve" smooth="yes"/>
      <point x="56.0" y="603.0" type="line" smooth="yes"/>
      <point x="61.0" y="624.0"/>
      <point x="73.0" y="634.0"/>
      <point x="101.0" y="649.0" type="curve" smooth="yes"/>
      <point x="459.0" y="833.0" type="line" smooth="yes"/>
      <point x="498.0" y="853.0"/>
      <point x="520.0" y="824.0"/>
      <point x="514.0" y="797.0" type="curve" smooth="yes"/>
      <point x="513.0" y="791.0" type="line" smooth="yes"/>
      <point x="507.0" y="764.0"/>
      <point x="476.0" y="751.0"/>
      <point x="436.0" y="731.0" type="curve" smooth="yes"/>
      <point x="164.0" y="600.0" type="line"/>
      <point x="375.0" y="469.0" type="line" smooth="yes"/>
      <point x="405.0" y="449.0"/>
      <point x="430.0" y="436.0"/>
      <point x="424.0" y="409.0" type="curve" smooth="yes"/>
      <point x="423.0" y="403.0" type="line" smooth="yes"/>
      <point x="417.0" y="376.0"/>
      <point x="381.0" y="347.0"/>
    </contour>
  </outline>
</glyph>
<glyph name="equal" format="2">
  <advance height="1920" width="537"/>
  <unicode hex="003D"/>
  <outline>
    <contour>
      <point x="-25.0" y="398.0" type="curve" smooth="yes"/>
      <point x="-25.0" y="406.0" type="line" smooth="yes"/>
      <point x="-25.0" y="427.0"/>
      <point x="-6.0" y="446.0"/>
      <point x="32.0" y="446.0" type="curve" smooth="yes"/>
      <point x="454.0" y="446.0" type="line" smooth="yes"/>
      <point x="492.0" y="446.0"/>
      <point x="511.0" y="427.0"/>
      <point x="511.0" y="406.0" type="curve" smooth="yes"/>
      <point x="511.0" y="398.0" type="line" smooth="yes"/>
      <point x="511.0" y="377.0"/>
      <point x="492.0" y="358.0"/>
      <point x="454.0" y="358.0" type="curve" smooth="yes"/>
      <point x="32.0" y="358.0" type="line" smooth="yes"/>
      <point x="-6.0" y="358.0"/>
      <point x="-25.0" y="377.0"/>
    </contour>
    <contour>
      <point x="19.0" y="589.0" type="curve" smooth="yes"/>
      <point x="19.0" y="597.0" type="line" smooth="yes"/>
      <point x="19.0" y="618.0"/>
      <point x="38.0" y="637.0"/>
      <point x="76.0" y="637.0" type="curve" smooth="yes"/>
      <point x="498.0" y="637.0" type="line" smooth="yes"/>
      <point x="536.0" y="637.0"/>
      <point x="555.0" y="618.0"/>
      <point x="555.0" y="597.0" type="curve" smooth="yes"/>
      <point x="555.0" y="589.0" type="line" smooth="yes"/>
      <point x="555.0" y="568.0"/>
      <point x="536.0" y="549.0"/>
      <point x="498.0" y="549.0" type="curve" smooth="yes"/>
      <point x="76.0" y="549.0" type="line" smooth="yes"/>
      <point x="38.0" y="549.0"/>
      <point x="19.0" y="568.0"/>
    </contour>
  </outline>
</glyph>
<glyph name="greater" format="2">
  <advance height="1920" width="491"/>
  <unicode hex="003E"/>
  <outline>
    <contour>
      <point x="176.0" y="833.0" type="curve" smooth="yes"/>
      <point x="450.0" y="649.0" type="line" smooth="yes"/>
      <point x="472.0" y="634.0"/>
      <point x="478.0" y="624.0"/>
      <point x="473.0" y="603.0" type="curve" smooth="yes"/>
      <point x="472.0" y="597.0" type="line" smooth="yes"/>
      <point x="467.0" y="576.0"/>
      <point x="455.0" y="566.0"/>
      <point x="427.0" y="551.0" type="curve" smooth="yes"/>
      <point x="69.0" y="367.0" type="line" smooth="yes"/>
      <point x="30.0" y="347.0"/>
      <point x="8.0" y="376.0"/>
      <point x="14.0" y="403.0" type="curve" smooth="yes"/>
      <point x="15.0" y="409.0" type="line" smooth="yes"/>
      <point x="21.0" y="436.0"/>
      <point x="52.0" y="449.0"/>
      <point x="92.0" y="469.0" type="curve" smooth="yes"/>
      <point x="365.0" y="600.0" type="line"/>
      <point x="153.0" y="731.0" type="line" smooth="yes"/>
      <point x="123.0" y="751.0"/>
      <point x="98.0" y="764.0"/>
      <point x="104.0" y="791.0" type="curve" smooth="yes"/>
      <point x="105.0" y="797.0" type="line" smooth="yes"/>
      <point x="111.0" y="824.0"/>
      <point x="147.0" y="853.0"/>
    </contour>
  </outline>
</glyph>
<glyph name="question" format="2">
  <advance height="1920" width="421"/>
  <unicode hex="003F"/>
  <outline>
    <contour>
      <point x="110.0" y="-15.0" type="curve" smooth="yes"/>
      <point x="107.0" y="-15.0" type="line" smooth="yes"/>
      <point x="55.0" y="-15.0"/>
      <point x="32.0" y="23.0"/>
      <point x="32.0" y="90.0" type="curve" smooth="yes"/>
      <point x="32.0" y="99.0" type="line" smooth="yes"/>
      <point x="32.0" y="166.0"/>
      <point x="55.0" y="204.0"/>
      <point x="107.0" y="204.0" type="curve" smooth="yes"/>
      <point x="110.0" y="204.0" type="line" smooth="yes"/>
      <point x="162.0" y="204.0"/>
      <point x="185.0" y="166.0"/>
      <point x="185.0" y="99.0" type="curve" smooth="yes"/>
      <point x="185.0" y="90.0" type="line" smooth="yes"/>
      <point x="185.0" y="23.0"/>
      <point x="162.0" y="-15.0"/>
    </contour>
    <contour>
      <point x="166.0" y="389.0" type="curve" smooth="yes"/>
      <point x="159.0" y="389.0" type="line" smooth="yes"/>
      <point x="140.0" y="389.0"/>
      <point x="129.0" y="405.0"/>
      <point x="137.0" y="438.0" type="curve" smooth="yes"/>
      <point x="177.0" y="611.0"/>
      <point x="273.0" y="607.0"/>
      <point x="357.0" y="969.0" type="curve" smooth="yes"/>
      <point x="416.0" y="1226.0" type="line" smooth="yes"/>
      <point x="431.0" y="1290.0"/>
      <point x="445.0" y="1378.0"/>
      <point x="401.0" y="1378.0" type="curve" smooth="yes"/>
      <point x="355.0" y="1378.0"/>
      <point x="331.0" y="1288.0"/>
      <point x="315.0" y="1218.0" type="curve" smooth="yes"/>
      <point x="266.0" y="1007.0" type="line" smooth="yes"/>
      <point x="256.0" y="963.0"/>
      <point x="232.0" y="937.0"/>
      <point x="198.0" y="937.0" type="curve" smooth="yes"/>
      <point x="196.0" y="937.0" type="line" smooth="yes"/>
      <point x="162.0" y="937.0"/>
      <point x="148.0" y="963.0"/>
      <point x="158.0" y="1007.0" type="curve" smooth="yes"/>
      <point x="208.0" y="1222.0" type="line" smooth="yes"/>
      <point x="235.0" y="1338.0"/>
      <point x="296.0" y="1467.0"/>
      <point x="429.0" y="1467.0" type="curve" smooth="yes"/>
      <point x="548.0" y="1467.0"/>
      <point x="567.0" y="1347.0"/>
      <point x="541.0" y="1233.0" type="curve" smooth="yes"/>
      <point x="484.0" y="986.0" type="line" smooth="yes"/>
      <point x="414.0" y="682.0"/>
      <point x="305.0" y="646.0"/>
      <point x="213.0" y="438.0" type="curve" smooth="yes"/>
      <point x="199.0" y="406.0"/>
      <point x="185.0" y="389.0"/>
    </contour>
  </outline>
</glyph>
<glyph name="A" format="2">
  <advance height="960" width="447"/>
  <unicode hex="0041"/>
  <anchor x="102.0" y="0.0" name="bottom"/>
  <anchor x="255.0" y="0.0" name="ogonek"/>
  <anchor x="425.0" y="1400.0" name="top"/>
  <outline>
    <contour>
      <point x="109.858398438" y="498.0" type="line"/>
      <point x="324.858398438" y="498.0" type="line"/>
      <point x="305.858398438" y="417.0" type="line"/>
      <point x="90.8583984375" y="417.0" type="line"/>
    </contour>
    <contour>
      <point x="388.858398438" y="1250.0" type="line"/>
      <point x="19.8583984375" y="55.0" type="line" smooth="yes"/>
      <point x="3.8583984375" y="2.0"/>
      <point x="-24.1416015625" y="-15.0"/>
      <point x="-48.1416015625" y="-15.0" type="curve" smooth="yes"/>
      <point x="-52.1416015625" y="-15.0" type="line" smooth="yes"/>
      <point x="-76.1416015625" y="-15.0"/>
      <point x="-93.1416015625" y="12.0"/>
      <point x="-79.1416015625" y="55.0" type="curve" smooth="yes"/>
      <point x="340.858398438" y="1345.0" type="line" smooth="yes"/>
      <point x="354.858398438" y="1388.0"/>
      <point x="373.858398438" y="1415.0"/>
      <point x="407.858398438" y="1415.0" type="curve" smooth="yes"/>
      <point x="461.858398438" y="1415.0" type="line" smooth="yes"/>
      <point x="495.858398438" y="1415.0"/>
      <point x="502.858398438" y="1388.0"/>
      <point x="496.858398438" y="1345.0" type="curve" smooth="yes"/>
      <point x="330.858398438" y="55.0" type="line" smooth="yes"/>
      <point x="324.858398438" y="12.0"/>
      <point x="300.858398438" y="-15.0"/>
      <point x="266.858398438" y="-15.0" type="curve" smooth="yes"/>
      <point x="256.858398438" y="-15.0" type="line" smooth="yes"/>
      <point x="222.858398438" y="-15.0"/>
      <point x="204.858398438" y="11.0"/>
      <point x="210.858398438" y="55.0" type="curve" smooth="yes"/>
    </contour>
  </outline>
</glyph>
<glyph name="B" format="2">
  <advance height="960" width="471"/>
  <unicode hex="0042"/>
  <anchor x="112.0" y="0.0" name="bottom"/>
  <anchor x="435.0" y="1400.0" name="top"/>
  <outline>
    <contour>
      <point x="247.03515625" y="748.0" type="line"/>
      <point x="296.434570312" y="748.0" type="line" smooth="yes"/>
      <point x="339.184570312" y="748.0"/>
      <point x="372.120117188" y="801.0"/>
      <point x="402.120117188" y="933.0" type="curve" smooth="yes"/>
      <point x="449.120117188" y="1133.0" type="line" smooth="yes"/>
      <point x="479.120117188" y="1265.0"/>
      <point x="470.145507812" y="1312.0"/>
      <point x="426.4453125" y="1312.0" type="curve" smooth="yes"/>
      <point x="377.03515625" y="1312.0" type="line"/>
    </contour>
    <contour>
      <point x="306.619140625" y="725.0" type="line"/>
      <point x="397.120117188" y="725.0"/>
      <point x="479.120117188" y="673.0"/>
      <point x="433.140625" y="478.0" type="curve" smooth="yes"/>
      <point x="381.140625" y="250.0" type="line" smooth="yes"/>
      <point x="335.140625" y="49.0"/>
      <point x="256.140625" y="0.0"/>
      <point x="140.55078125" y="0.0" type="curve" smooth="yes"/>
      <point x="16.03515625" y="0.0" type="line" smooth="yes"/>
      <point x="-27.96484375" y="0.0"/>
      <point x="-35.96484375" y="11.0"/>
      <point x="-25.96484375" y="55.0" type="curve" smooth="yes"/>
      <point x="272.03515625" y="1345.0" type="line" smooth="yes"/>
      <point x="282.03515625" y="1389.0"/>
      <point x="295.03515625" y="1400.0"/>
      <point x="339.03515625" y="1400.0" type="curve" smooth="yes"/>
      <point x="454.061523438" y="1400.0" type="line" smooth="yes"/>
      <point x="570.120117188" y="1400.0"/>
      <point x="613.120117188" y="1342.0"/>
      <point x="570.120117188" y="1156.0" type="curve" smooth="yes"/>
      <point x="520.120117188" y="942.0" type="line" smooth="yes"/>
      <point x="477.120117188" y="756.0"/>
      <point x="382.120117188" y="700.0"/>
      <point x="292.081054688" y="700.0" type="curve"/>
    </contour>
    <contour>
      <point x="282.200195312" y="667.0" type="curve" smooth="yes"/>
      <point x="228.03515625" y="667.0" type="line"/>
      <point x="94.03515625" y="88.0" type="line"/>
      <point x="148.215820312" y="88.0" type="line" smooth="yes"/>
      <point x="211.866210938" y="88.0"/>
      <point x="237.140625" y="136.0"/>
      <point x="268.140625" y="272.0" type="curve" smooth="yes"/>
      <point x="315.15625" y="477.0" type="line" smooth="yes"/>
      <point x="348.180664062" y="622.0"/>
      <point x="347.120117188" y="667.0"/>
    </contour>
  </outline>
</glyph>
<glyph name="C" format="2">
  <advance height="960" width="482"/>
  <unicode hex="0043"/>
  <anchor x="112.0" y="0.0" name="bottom"/>
  <anchor x="455.0" y="1400.0" name="top"/>
  <outline>
    <contour>
      <point x="455.41796875" y="573.0" type="curve" smooth="yes"/>
      <point x="439.528320312" y="499.823242188"/>
      <point x="421.41796875" y="429.0"/>
      <point x="398.41796875" y="332.0" type="curve" smooth="yes"/>
      <point x="342.41796875" y="96.0"/>
      <point x="259.41796875" y="-18.0"/>
      <point x="114.045898438" y="-18.0" type="curve" smooth="yes"/>
      <point x="-54.3671875" y="-18.0"/>
      <point x="-39.3671875" y="127.0"/>
      <point x="13.6328125" y="358.0" type="curve" smooth="yes"/>
      <point x="171.6328125" y="1042.0" type="line" smooth="yes"/>
      <point x="228.6328125" y="1290.0"/>
      <point x="302.6328125" y="1418.0"/>
      <point x="450.772460938" y="1418.0" type="curve" smooth="yes"/>
      <point x="598.331054688" y="1418.0"/>
      <point x="626.331054688" y="1273.0"/>
      <point x="572.331054688" y="1092.0" type="curve" smooth="yes"/>
      <point x="555.678710938" y="1036.18164062"/>
      <point x="521.926757812" y="947.685546875"/>
      <point x="476.331054688" y="886.0" type="curve" smooth="yes"/>
      <point x="452.473632812" y="853.724609375"/>
      <point x="433.331054688" y="833.0"/>
      <point x="409.331054688" y="833.0" type="curve" smooth="yes"/>
      <point x="405.331054688" y="833.0" type="line" smooth="yes"/>
      <point x="371.331054688" y="833.0"/>
      <point x="362.053710938" y="862.73046875"/>
      <point x="374.331054688" y="886.0" type="curve" smooth="yes"/>
      <point x="529.30859375" y="1171.2890625"/>
      <point x="510.331054688" y="1323.0"/>
      <point x="439.225585938" y="1323.0" type="curve" smooth="yes"/>
      <point x="369.875976562" y="1323.0"/>
      <point x="333.6328125" y="1231.0"/>
      <point x="290.6328125" y="1046.0" type="curve" smooth="yes"/>
      <point x="130.6328125" y="349.0" type="line" smooth="yes"/>
      <point x="92.6162109375" y="183.0"/>
      <point x="73.3427734375" y="77.0"/>
      <point x="143.642578125" y="77.0" type="curve" smooth="yes"/>
      <point x="215.842773438" y="77.0"/>
      <point x="251.924804688" y="133.815429688"/>
      <point x="357.41796875" y="573.0" type="curve" smooth="yes"/>
      <point x="367.716796875" y="615.7890625"/>
      <point x="384.41796875" y="638.0"/>
      <point x="410.41796875" y="638.0" type="curve" smooth="yes"/>
      <point x="414.41796875" y="638.0" type="line" smooth="yes"/>
      <point x="443.41796875" y="638.0"/>
      <point x="464.756835938" y="616.008789062"/>
    </contour>
  </outline>
</glyph>
<glyph name="D" format="2">
  <advance height="960" width="490"/>
  <unicode hex="0044"/>
  <anchor x="92.0" y="0.0" name="bottom"/>
  <anchor x="430.0" y="1400.0" name="top"/>
  <outline>
    <contour>
      <point x="110.119140625" y="0.0" type="curve" smooth="yes"/>
      <point x="16.03515625" y="0.0" type="line" smooth="yes"/>
      <point x="-27.96484375" y="0.0"/>
      <point x="-35.96484375" y="11.0"/>
      <point x="-25.96484375" y="55.0" type="curve" smooth="yes"/>
      <point x="272.03515625" y="1345.0" type="line" smooth="yes"/>
      <point x="282.03515625" y="1389.0"/>
      <point x="295.03515625" y="1400.0"/>
      <point x="339.03515625" y="1400.0" type="curve" smooth="yes"/>
      <point x="433.129882812" y="1400.0" type="line" smooth="yes"/>
      <point x="603.578125" y="1400.0"/>
      <point x="628.578125" y="1276.0"/>
      <point x="568.578125" y="1018.0" type="curve" smooth="yes"/>
      <point x="419.578125" y="374.0" type="line" smooth="yes"/>
      <point x="359.578125" y="116.0"/>
      <point x="300.578125" y="0.0"/>
    </contour>
    <contour>
      <point x="132.03515625" y="88.0" type="line" smooth="yes"/>
      <point x="211.834960938" y="88.0"/>
      <point x="252.600585938" y="163.0"/>
      <point x="300.578125" y="369.0" type="curve" smooth="yes"/>
      <point x="451.578125" y="1022.0" type="line" smooth="yes"/>
      <point x="499.578125" y="1228.0"/>
      <point x="494.814453125" y="1312.0"/>
      <point x="415.013671875" y="1312.0" type="curve" smooth="yes"/>
      <point x="377.013671875" y="1312.0" type="line"/>
      <point x="94.03515625" y="88.0" type="line"/>
    </contour>
  </outline>
</glyph>
<glyph name="E" format="2">
  <advance height="960" width="432"/>
  <unicode hex="0045"/>
  <anchor x="122.0" y="0.0" name="bottom"/>
  <anchor x="230.0" y="0.0" name="ogonek"/>
  <anchor x="445.0" y="1400.0" name="top"/>
  <outline>
    <contour>
      <point x="247.03515625" y="748.0" type="line"/>
      <point x="333.03515625" y="748.0" type="line" smooth="yes"/>
      <point x="367.03515625" y="748.0"/>
      <point x="379.03515625" y="732.0"/>
      <point x="373.03515625" y="708.0" type="curve" smooth="yes"/>
      <point x="373.03515625" y="707.0" type="line" smooth="yes"/>
      <point x="367.03515625" y="683.0"/>
      <point x="348.03515625" y="667.0"/>
      <point x="314.03515625" y="667.0" type="curve" smooth="yes"/>
      <point x="228.03515625" y="667.0" type="line"/>
      <point x="94.03515625" y="88.0" type="line"/>
      <point x="253.03515625" y="88.0" type="line" smooth="yes"/>
      <point x="297.03515625" y="88.0"/>
      <point x="311.03515625" y="79.0"/>
      <point x="303.03515625" y="45.0" type="curve" smooth="yes"/>
      <point x="303.03515625" y="43.0" type="line" smooth="yes"/>
      <point x="295.03515625" y="9.0"/>
      <point x="277.03515625" y="0.0"/>
      <point x="233.03515625" y="0.0" type="curve" smooth="yes"/>
      <point x="16.03515625" y="0.0" type="line" smooth="yes"/>
      <point x="-27.96484375" y="0.0"/>
      <point x="-35.96484375" y="11.0"/>
      <point x="-25.96484375" y="55.0" type="curve" smooth="yes"/>
      <point x="272.03515625" y="1345.0" type="line" smooth="yes"/>
      <point x="282.03515625" y="1389.0"/>
      <point x="295.03515625" y="1400.0"/>
      <point x="339.03515625" y="1400.0" type="curve" smooth="yes"/>
      <point x="546.03515625" y="1400.0" type="line" smooth="yes"/>
      <point x="590.03515625" y="1400.0"/>
      <point x="603.03515625" y="1384.0"/>
      <point x="597.03515625" y="1360.0" type="curve" smooth="yes"/>
      <point x="596.03515625" y="1357.0" type="line" smooth="yes"/>
      <point x="590.03515625" y="1333.0"/>
      <point x="570.03515625" y="1312.0"/>
      <point x="526.03515625" y="1312.0" type="curve" smooth="yes"/>
      <point x="377.03515625" y="1312.0" type="line"/>
    </contour>
  </outline>
</glyph>
<glyph name="F" format="2">
  <advance height="960" width="388"/>
  <unicode hex="0046"/>
  <anchor x="102.0" y="0.0" name="bottom"/>
  <anchor x="425.0" y="1400.0" name="top"/>
  <outline>
    <contour>
      <point x="247.03515625" y="749.0" type="line"/>
      <point x="338.03515625" y="749.0" type="line" smooth="yes"/>
      <point x="372.03515625" y="749.0"/>
      <point x="385.03515625" y="734.0"/>
      <point x="379.03515625" y="710.0" type="curve" smooth="yes"/>
      <point x="378.03515625" y="708.0" type="line" smooth="yes"/>
      <point x="372.03515625" y="684.0"/>
      <point x="353.03515625" y="668.0"/>
      <point x="319.03515625" y="668.0" type="curve" smooth="yes"/>
      <point x="228.03515625" y="668.0" type="line"/>
      <point x="87.03515625" y="55.0" type="line" smooth="yes"/>
      <point x="79.03515625" y="21.0"/>
      <point x="51.03515625" y="-15.0"/>
      <point x="17.03515625" y="-15.0" type="curve" smooth="yes"/>
      <point x="13.03515625" y="-15.0" type="line" smooth="yes"/>
      <point x="-20.96484375" y="-15.0"/>
      <point x="-33.96484375" y="21.0"/>
      <point x="-25.96484375" y="55.0" type="curve" smooth="yes"/>
      <point x="272.03515625" y="1345.0" type="line" smooth="yes"/>
      <point x="282.03515625" y="1389.0"/>
      <point x="295.03515625" y="1400.0"/>
      <point x="339.03515625" y="1400.0" type="curve" smooth="yes"/>
      <point x="525.03515625" y="1400.0" type="line" smooth="yes"/>
      <point x="569.03515625" y="1400.0"/>
      <point x="582.03515625" y="1384.0"/>
      <point x="576.03515625" y="1360.0" type="curve" smooth="yes"/>
      <point x="574.03515625" y="1353.0" type="line" smooth="yes"/>
      <point x="568.03515625" y="1329.0"/>
      <point x="549.03515625" y="1312.0"/>
      <point x="505.03515625" y="1312.0" type="curve" smooth="yes"/>
      <point x="377.03515625" y="1312.0" type="line"/>
    </contour>
  </outline>
</glyph>
<glyph name="G" format="2">
  <advance height="960" width="483"/>
  <unicode hex="0047"/>
  <anchor x="138.0" y="0.0" name="bottom"/>
  <anchor x="460.0" y="1400.0" name="top"/>
  <outline>
    <contour>
      <point x="291.741210938" y="644.0" type="curve" smooth="yes"/>
      <point x="293.734375" y="652.0" type="line" smooth="yes"/>
      <point x="299.7109375" y="676.0"/>
      <point x="316.938476562" y="687.0"/>
      <point x="358.73828125" y="687.0" type="curve" smooth="yes"/>
      <point x="431.01171875" y="687.0" type="line" smooth="yes"/>
      <point x="475.01171875" y="687.0"/>
      <point x="483.01171875" y="676.0"/>
      <point x="470.876953125" y="632.0" type="curve" smooth="yes"/>
      <point x="334.876953125" y="45.0" type="line" smooth="yes"/>
      <point x="326.876953125" y="11.0"/>
      <point x="315.876953125" y="-15.0"/>
      <point x="291.876953125" y="-15.0" type="curve" smooth="yes"/>
      <point x="287.876953125" y="-15.0" type="line" smooth="yes"/>
      <point x="263.876953125" y="-15.0"/>
      <point x="260.876953125" y="11.0"/>
      <point x="264.876953125" y="45.0" type="curve" smooth="yes"/>
      <point x="287.889648438" y="228.0" type="line"/>
      <point x="406.876953125" y="639.0" type="line"/>
      <point x="290.127929688" y="175.0"/>
      <point x="253.876953125" y="-18.0"/>
      <point x="96.9501953125" y="-18.0" type="curve" smooth="yes"/>
      <point x="-56.3291015625" y="-18.0"/>
      <point x="-48.3291015625" y="93.0"/>
      <point x="18.6708984375" y="383.0" type="curve" smooth="yes"/>
      <point x="165.670898438" y="1018.0" type="line" smooth="yes"/>
      <point x="224.670898438" y="1273.0"/>
      <point x="284.670898438" y="1418.0"/>
      <point x="450.776367188" y="1418.0" type="curve" smooth="yes"/>
      <point x="599.01171875" y="1418.0"/>
      <point x="608.01171875" y="1308.0"/>
      <point x="566.01171875" y="1120.0" type="curve" smooth="yes"/>
      <point x="548.01171875" y="1040.0"/>
      <point x="535.01171875" y="978.0"/>
      <point x="516.01171875" y="897.0" type="curve" smooth="yes"/>
      <point x="508.01171875" y="863.0"/>
      <point x="484.01171875" y="848.0"/>
      <point x="460.01171875" y="848.0" type="curve" smooth="yes"/>
      <point x="455.01171875" y="848.0" type="line" smooth="yes"/>
      <point x="431.01171875" y="848.0"/>
      <point x="413.01953125" y="863.0"/>
      <point x="421.01171875" y="897.0" type="curve" smooth="yes"/>
      <point x="510.017578125" y="1283.0"/>
      <point x="513.4453125" y="1333.0"/>
      <point x="436.495117188" y="1333.0" type="curve" smooth="yes"/>
      <point x="360.495117188" y="1333.0"/>
      <point x="330.64453125" y="1216.0"/>
      <point x="285.655273438" y="1022.0" type="curve" smooth="yes"/>
      <point x="136.670898438" y="378.0" type="line" smooth="yes"/>
      <point x="83.6708984375" y="150.0"/>
      <point x="76.0810546875" y="67.0"/>
      <point x="142.581054688" y="67.0" type="curve" smooth="yes"/>
      <point x="207.180664062" y="67.0"/>
      <point x="258.870117188" y="183.0"/>
      <point x="375.260742188" y="637.0" type="curve"/>
      <point x="380.625976562" y="608.0" type="line"/>
      <point x="339.776367188" y="608.0" type="line" smooth="yes"/>
      <point x="297.9765625" y="608.0"/>
      <point x="285.764648438" y="620.0"/>
    </contour>
  </outline>
</glyph>
<glyph name="H" format="2">
  <advance height="960" width="488"/>
  <unicode hex="0048"/>
  <anchor x="128.0" y="0.0" name="bottom"/>
  <anchor x="450.0" y="1400.0" name="top"/>
  <outline>
    <contour>
      <point x="578.634765625" y="1415.0" type="curve" smooth="yes"/>
      <point x="582.634765625" y="1415.0" type="line" smooth="yes"/>
      <point x="616.634765625" y="1415.0"/>
      <point x="631.634765625" y="1389.0"/>
      <point x="621.634765625" y="1345.0" type="curve" smooth="yes"/>
      <point x="323.634765625" y="55.0" type="line" smooth="yes"/>
      <point x="313.634765625" y="11.0"/>
      <point x="286.634765625" y="-15.0"/>
      <point x="252.634765625" y="-15.0" type="curve" smooth="yes"/>
      <point x="248.634765625" y="-15.0" type="line" smooth="yes"/>
      <point x="214.634765625" y="-15.0"/>
      <point x="199.634765625" y="11.0"/>
      <point x="209.634765625" y="55.0" type="curve" smooth="yes"/>
      <point x="349.665039062" y="664.0" type="line"/>
      <point x="219.484375" y="664.0" type="line"/>
      <point x="79.484375" y="55.0" type="line" smooth="yes"/>
      <point x="69.4765625" y="11.0"/>
      <point x="42.484375" y="-15.0"/>
      <point x="8.484375" y="-15.0" type="curve" smooth="yes"/>
      <point x="4.484375" y="-15.0" type="line" smooth="yes"/>
      <point x="-29.515625" y="-15.0"/>
      <point x="-44.515625" y="11.0"/>
      <point x="-34.515625" y="55.0" type="curve" smooth="yes"/>
      <point x="263.484375" y="1345.0" type="line" smooth="yes"/>
      <point x="273.484375" y="1389.0"/>
      <point x="300.485351562" y="1415.0"/>
      <point x="334.485351562" y="1415.0" type="curve" smooth="yes"/>
      <point x="338.485351562" y="1415.0" type="line" smooth="yes"/>
      <point x="372.485351562" y="1415.0"/>
      <point x="387.483398438" y="1389.0"/>
      <point x="377.475585938" y="1345.0" type="curve" smooth="yes"/>
      <point x="239.485351562" y="751.0" type="line"/>
      <point x="369.668945312" y="751.0" type="line"/>
      <point x="507.634765625" y="1345.0" type="line" smooth="yes"/>
      <point x="517.634765625" y="1389.0"/>
      <point x="544.634765625" y="1415.0"/>
    </contour>
  </outline>
</glyph>
<glyph name="I" format="2">
  <advance height="960" width="269"/>
  <unicode hex="0049"/>
  <anchor x="20.0" y="0.0" name="bottom"/>
  <anchor x="20.0" y="0.0" name="ogonek"/>
  <anchor x="343.0" y="1400.0" name="top"/>
  <outline>
    <contour>
      <point x="346.834960938" y="1415.0" type="curve" smooth="yes"/>
      <point x="350.834960938" y="1415.0" type="line" smooth="yes"/>
      <point x="384.834960938" y="1415.0"/>
      <point x="399.834960938" y="1389.0"/>
      <point x="389.834960938" y="1345.0" type="curve" smooth="yes"/>
      <point x="91.8349609375" y="55.0" type="line" smooth="yes"/>
      <point x="81.8349609375" y="11.0"/>
      <point x="54.8349609375" y="-15.0"/>
      <point x="20.8349609375" y="-15.0" type="curve" smooth="yes"/>
      <point x="16.8349609375" y="-15.0" type="line" smooth="yes"/>
      <point x="-17.1650390625" y="-15.0"/>
      <point x="-32.1650390625" y="11.0"/>
      <point x="-22.1650390625" y="55.0" type="curve" smooth="yes"/>
      <point x="275.834960938" y="1345.0" type="line" smooth="yes"/>
      <point x="285.834960938" y="1389.0"/>
      <point x="312.834960938" y="1415.0"/>
    </contour>
  </outline>
</glyph>
<glyph name="J" format="2">
  <advance height="960" width="408"/>
  <unicode hex="004A"/>
  <anchor x="45.0" y="0.0" name="bottom"/>
  <anchor x="467.0" y="1400.0" name="top"/>
  <outline>
    <contour>
      <point x="461.0" y="1415.0" type="curve" smooth="yes"/>
      <point x="464.0" y="1415.0" type="line" smooth="yes"/>
      <point x="498.0" y="1415.0"/>
      <point x="525.699327632" y="1388.99146662"/>
      <point x="516.0" y="1347.0" type="curve" smooth="yes"/>
      <point x="267.0" y="269.0" type="line" smooth="yes"/>
      <point x="219.0" y="59.0"/>
      <point x="179.0" y="-18.0"/>
      <point x="50.0" y="-18.0" type="curve" smooth="yes"/>
      <point x="-62.0" y="-18.0"/>
      <point x="-100.379336341" y="65.3439365828"/>
      <point x="-31.0" y="239.0" type="curve" smooth="yes"/>
      <point x="136.0" y="657.0" type="line" smooth="yes"/>
      <point x="139.9274627" y="666.83041562"/>
      <point x="147.0" y="678.0"/>
      <point x="162.0" y="678.0" type="curve" smooth="yes"/>
      <point x="163.0" y="678.0" type="line" smooth="yes"/>
      <point x="177.0" y="678.0"/>
      <point x="186.66922977" y="665.574793473"/>
      <point x="181.0" y="647.0" type="curve" smooth="yes"/>
      <point x="58.0" y="244.0" type="line" smooth="yes"/>
      <point x="15.2017993832" y="103.717009089"/>
      <point x="30.0" y="74.0"/>
      <point x="60.0" y="74.0" type="curve" smooth="yes"/>
      <point x="94.0" y="74.0"/>
      <point x="109.0" y="96.0"/>
      <point x="145.0" y="254.0" type="curve" smooth="yes"/>
      <point x="397.0" y="1347.0" type="line" smooth="yes"/>
      <point x="406.683269639" y="1388.99926078"/>
      <point x="427.0" y="1415.0"/>
    </contour>
  </outline>
</glyph>
<glyph name="K" format="2">
  <advance height="960" width="449"/>
  <unicode hex="004B"/>
  <anchor x="132.0" y="0.0" name="bottom"/>
  <anchor x="455.0" y="1400.0" name="top"/>
  <outline>
    <contour>
      <point x="334.485351562" y="1415.0" type="curve" smooth="yes"/>
      <point x="338.485351562" y="1415.0" type="line" smooth="yes"/>
      <point x="372.485351562" y="1415.0"/>
      <point x="387.483398438" y="1389.0"/>
      <point x="377.475585938" y="1345.0" type="curve" smooth="yes"/>
      <point x="79.484375" y="55.0" type="line" smooth="yes"/>
      <point x="69.4765625" y="11.0"/>
      <point x="42.484375" y="-15.0"/>
      <point x="8.484375" y="-15.0" type="curve" smooth="yes"/>
      <point x="4.484375" y="-15.0" type="line" smooth="yes"/>
      <point x="-29.515625" y="-15.0"/>
      <point x="-44.515625" y="11.0"/>
      <point x="-34.515625" y="55.0" type="curve" smooth="yes"/>
      <point x="263.484375" y="1345.0" type="line" smooth="yes"/>
      <point x="273.484375" y="1389.0"/>
      <point x="300.485351562" y="1415.0"/>
    </contour>
    <contour>
      <point x="252.76171875" y="746.0" type="line"/>
      <point x="347.711914062" y="824.0" type="line"/>
      <point x="333.684570312" y="55.0" type="line" smooth="yes"/>
      <point x="332.684570312" y="12.0"/>
      <point x="316.684570312" y="-15.0"/>
      <point x="272.684570312" y="-15.0" type="curve" smooth="yes"/>
      <point x="270.684570312" y="-15.0" type="line" smooth="yes"/>
      <point x="226.684570312" y="-15.0"/>
      <point x="206.684570312" y="12.0"/>
      <point x="208.684570312" y="55.0" type="curve" smooth="yes"/>
    </contour>
    <contour>
      <point x="525.684570312" y="1345.0" type="line" smooth="yes"/>
      <point x="544.684570312" y="1385.0"/>
      <point x="563.684570312" y="1415.0"/>
      <point x="598.684570312" y="1415.0" type="curve" smooth="yes"/>
      <point x="602.684570312" y="1415.0" type="line" smooth="yes"/>
      <point x="638.684570312" y="1415.0"/>
      <point x="644.684570312" y="1387.0"/>
      <point x="622.684570312" y="1345.0" type="curve" smooth="yes"/>
      <point x="276.46875" y="660.0" type="line"/>
      <point x="266.365234375" y="690.0" type="line"/>
      <point x="157.485351562" y="463.0" type="line"/>
      <point x="126.484375" y="518.0" type="line"/>
    </contour>
  </outline>
</glyph>
<glyph name="L" format="2">
  <advance height="960" width="342"/>
  <unicode hex="004C"/>
  <anchor x="92.0" y="0.0" name="bottom"/>
  <anchor x="335.0" y="1400.0" name="top"/>
  <outline>
    <contour>
      <point x="334.5" y="1415.0" type="curve" smooth="yes"/>
      <point x="338.5" y="1415.0" type="line" smooth="yes"/>
      <point x="382.5" y="1415.0"/>
      <point x="387.5" y="1389.0"/>
      <point x="377.5" y="1345.0" type="curve" smooth="yes"/>
      <point x="86.5" y="88.0" type="line"/>
      <point x="167.5" y="88.0" type="line" smooth="yes"/>
      <point x="211.5" y="88.0"/>
      <point x="236.5" y="81.0"/>
      <point x="228.5" y="47.0" type="curve" smooth="yes"/>
      <point x="226.5" y="40.0" type="line" smooth="yes"/>
      <point x="218.5" y="6.0"/>
      <point x="191.5" y="0.0"/>
      <point x="147.5" y="0.0" type="curve" smooth="yes"/>
      <point x="17.5" y="0.0" type="line" smooth="yes"/>
      <point x="-36.5" y="0.0"/>
      <point x="-44.5" y="11.0"/>
      <point x="-32.5" y="65.0" type="curve" smooth="yes"/>
      <point x="263.5" y="1345.0" type="line" smooth="yes"/>
      <point x="273.5" y="1389.0"/>
      <point x="290.5" y="1415.0"/>
    </contour>
  </outline>
</glyph>
<glyph name="M" format="2">
  <advance height="960" width="602"/>
  <unicode hex="004D"/>
  <anchor x="187.0" y="0.0" name="bottom"/>
  <anchor x="510.0" y="1400.0" name="top"/>
  <outline>
    <contour>
      <point x="300.544921875" y="1137.0" type="line"/>
      <point x="51.544921875" y="55.0" type="line" smooth="yes"/>
      <point x="41.537109375" y="11.0"/>
      <point x="19.544921875" y="-15.0"/>
      <point x="-4.455078125" y="-15.0" type="curve" smooth="yes"/>
      <point x="-11.455078125" y="-15.0" type="line" smooth="yes"/>
      <point x="-35.455078125" y="-15.0"/>
      <point x="-45.455078125" y="11.0"/>
      <point x="-35.455078125" y="55.0" type="curve" smooth="yes"/>
      <point x="257.544921875" y="1325.0" type="line" smooth="yes"/>
      <point x="269.544921875" y="1379.0"/>
      <point x="299.544921875" y="1415.0"/>
      <point x="353.544921875" y="1415.0" type="curve" smooth="yes"/>
      <point x="360.544921875" y="1415.0" type="line" smooth="yes"/>
      <point x="412.094726562" y="1415.0"/>
      <point x="418.444335938" y="1389.0"/>
      <point x="411.170898438" y="1335.0" type="curve" smooth="yes"/>
      <point x="282.53125" y="396.0" type="line"/>
      <point x="588.821289062" y="1335.0" type="line" smooth="yes"/>
      <point x="609.498046875" y="1398.0"/>
      <point x="635.344726562" y="1415.0"/>
      <point x="678.645507812" y="1415.0" type="curve" smooth="yes"/>
      <point x="686.645507812" y="1415.0" type="line" smooth="yes"/>
      <point x="740.645507812" y="1415.0"/>
      <point x="746.645507812" y="1389.0"/>
      <point x="731.645507812" y="1325.0" type="curve" smooth="yes"/>
      <point x="438.645507812" y="55.0" type="line" smooth="yes"/>
      <point x="428.645507812" y="11.0"/>
      <point x="405.645507812" y="-15.0"/>
      <point x="371.645507812" y="-15.0" type="curve" smooth="yes"/>
      <point x="368.645507812" y="-15.0" type="line" smooth="yes"/>
      <point x="334.645507812" y="-15.0"/>
      <point x="324.645507812" y="11.0"/>
      <point x="334.645507812" y="55.0" type="curve" smooth="yes"/>
      <point x="586.673828125" y="1149.0" type="line"/>
      <point x="221.364257812" y="35.0" type="line" smooth="yes"/>
      <point x="211.495117188" y="3.0"/>
      <point x="198.9375" y="-15.0"/>
      <point x="181.836914062" y="-15.0" type="curve" smooth="yes"/>
      <point x="179.9375" y="-15.0" type="line" smooth="yes"/>
      <point x="162.836914062" y="-15.0"/>
      <point x="159.245117188" y="3.0"/>
      <point x="162.46484375" y="35.0" type="curve" smooth="yes"/>
    </contour>
  </outline>
</glyph>
<glyph name="N" format="2">
  <advance height="960" width="492"/>
  <unicode hex="004E"/>
  <anchor x="142.0" y="0.0" name="bottom"/>
  <anchor x="470.0" y="1400.0" name="top"/>
  <outline>
    <contour>
      <point x="590.53515625" y="1415.0" type="curve" smooth="yes"/>
      <point x="598.53515625" y="1415.0" type="line" smooth="yes"/>
      <point x="622.53515625" y="1415.0"/>
      <point x="637.53515625" y="1389.0"/>
      <point x="627.53515625" y="1345.0" type="curve" smooth="yes"/>
      <point x="329.53515625" y="55.0" type="line" smooth="yes"/>
      <point x="319.53515625" y="11.0"/>
      <point x="302.53515625" y="-15.0"/>
      <point x="278.53515625" y="-15.0" type="curve" smooth="yes"/>
      <point x="277.53515625" y="-15.0" type="line" smooth="yes"/>
      <point x="253.53515625" y="-15.0"/>
      <point x="244.53515625" y="12.0"/>
      <point x="246.53515625" y="55.0" type="curve" smooth="yes"/>
      <point x="299.53515625" y="1174.0" type="line"/>
      <point x="319.53515625" y="1174.0" type="line"/>
      <point x="61.53515625" y="55.0" type="line" smooth="yes"/>
      <point x="51.53515625" y="11.0"/>
      <point x="34.53515625" y="-15.0"/>
      <point x="0.53515625" y="-15.0" type="curve" smooth="yes"/>
      <point x="-6.46484375" y="-15.0" type="line" smooth="yes"/>
      <point x="-40.46484375" y="-15.0"/>
      <point x="-45.46484375" y="11.0"/>
      <point x="-35.46484375" y="55.0" type="curve" smooth="yes"/>
      <point x="262.53515625" y="1345.0" type="line" smooth="yes"/>
      <point x="272.53515625" y="1389.0"/>
      <point x="304.53515625" y="1415.0"/>
      <point x="338.53515625" y="1415.0" type="curve" smooth="yes"/>
      <point x="343.53515625" y="1415.0" type="line" smooth="yes"/>
      <point x="377.53515625" y="1415.0"/>
      <point x="398.53515625" y="1388.0"/>
      <point x="395.53515625" y="1345.0" type="curve" smooth="yes"/>
      <point x="340.53515625" y="443.0" type="line"/>
      <point x="320.53515625" y="443.0" type="line"/>
      <point x="529.53515625" y="1345.0" type="line" smooth="yes"/>
      <point x="539.53515625" y="1389.0"/>
      <point x="566.53515625" y="1415.0"/>
    </contour>
  </outline>
</glyph>
<glyph name="O" format="2">
  <advance height="960" width="485"/>
  <unicode hex="004F"/>
  <anchor x="132.0" y="0.0" name="bottom"/>
  <anchor x="455.0" y="1400.0" name="top"/>
  <outline>
    <contour>
      <point x="3.6357421875" y="315.0" type="curve" smooth="yes"/>
      <point x="181.635742188" y="1086.0" type="line" smooth="yes"/>
      <point x="236.635742188" y="1323.0"/>
      <point x="299.635742188" y="1418.0"/>
      <point x="447.903320312" y="1418.0" type="curve" smooth="yes"/>
      <point x="596.0859375" y="1418.0"/>
      <point x="636.0859375" y="1322.0"/>
      <point x="582.0859375" y="1086.0" type="curve" smooth="yes"/>
      <point x="404.0859375" y="315.0" type="line" smooth="yes"/>
      <point x="350.0859375" y="79.0"/>
      <point x="284.0859375" y="-18.0"/>
      <point x="135.876953125" y="-18.0" type="curve" smooth="yes"/>
      <point x="-11.3642578125" y="-18.0"/>
      <point x="-51.3642578125" y="78.0"/>
    </contour>
    <contour>
      <point x="118.635742188" y="299.0" type="line" smooth="yes"/>
      <point x="75.6357421875" y="114.0"/>
      <point x="88.373046875" y="64.0"/>
      <point x="145.373046875" y="64.0" type="curve" smooth="yes"/>
      <point x="203.323242188" y="64.0"/>
      <point x="239.0859375" y="115.0"/>
      <point x="281.0859375" y="299.0" type="curve" smooth="yes"/>
      <point x="466.09375" y="1101.0" type="line" smooth="yes"/>
      <point x="508.118164062" y="1285.0"/>
      <point x="496.356445312" y="1336.0"/>
      <point x="438.40625" y="1336.0" type="curve" smooth="yes"/>
      <point x="381.40625" y="1336.0"/>
      <point x="346.629882812" y="1286.0"/>
      <point x="303.635742188" y="1101.0" type="curve" smooth="yes"/>
    </contour>
  </outline>
</glyph>
<glyph name="P" format="2">
  <advance height="960" width="442"/>
  <unicode hex="0050"/>
  <anchor x="28.0" y="0.0" name="bottom"/>
  <anchor x="425.0" y="1400.0" name="top"/>
  <outline>
    <contour>
      <point x="377.061523438" y="1312.0" type="line"/>
      <point x="235.061523438" y="699.0" type="line"/>
      <point x="257.895507812" y="699.0" type="line" smooth="yes"/>
      <point x="312.044921875" y="699.0"/>
      <point x="341.018554688" y="740.0"/>
      <point x="367.0" y="851.0" type="curve" smooth="yes"/>
      <point x="439.0" y="1160.0" type="line" smooth="yes"/>
      <point x="465.0" y="1271.0"/>
      <point x="454.021484375" y="1312.0"/>
      <point x="399.87109375" y="1312.0" type="curve" smooth="yes"/>
    </contour>
    <contour>
      <point x="410.38671875" y="1400.0" type="line" smooth="yes"/>
      <point x="536.0" y="1400.0"/>
      <point x="596.0" y="1347.0"/>
      <point x="549.0" y="1145.0" type="curve" smooth="yes"/>
      <point x="486.0" y="872.0" type="line" smooth="yes"/>
      <point x="439.0" y="670.0"/>
      <point x="352.0" y="618.0"/>
      <point x="230.360351562" y="618.0" type="curve" smooth="yes"/>
      <point x="217.060546875" y="618.0" type="line"/>
      <point x="87.0615234375" y="55.0" type="line" smooth="yes"/>
      <point x="77.052734375" y="11.0"/>
      <point x="61.0615234375" y="-15.0"/>
      <point x="17.0615234375" y="-15.0" type="curve" smooth="yes"/>
      <point x="13.0615234375" y="-15.0" type="line" smooth="yes"/>
      <point x="-30.9384765625" y="-15.0"/>
      <point x="-35.9384765625" y="11.0"/>
      <point x="-25.9384765625" y="55.0" type="curve" smooth="yes"/>
      <point x="269.061523438" y="1335.0" type="line" smooth="yes"/>
      <point x="281.061523438" y="1389.0"/>
      <point x="295.061523438" y="1400.0"/>
      <point x="349.061523438" y="1400.0" type="curve" smooth="yes"/>
    </contour>
  </outline>
</glyph>
<glyph name="Q" format="2">
  <advance height="960" width="591"/>
  <unicode hex="0051"/>
  <anchor x="152.0" y="0.0" name="bottom"/>
  <anchor x="475.0" y="1400.0" name="top"/>
  <outline>
    <contour>
      <point x="475.35546875" y="51.0" type="curve" smooth="yes"/>
      <point x="474.35546875" y="49.0" type="line" smooth="yes"/>
      <point x="466.35546875" y="15.0"/>
      <point x="447.35546875" y="-6.0"/>
      <point x="411.35546875" y="-9.0" type="curve" smooth="yes"/>
      <point x="327.35546875" y="-17.0"/>
      <point x="285.35546875" y="46.0"/>
      <point x="316.35546875" y="179.0" type="curve"/>
      <point x="399.35546875" y="294.0" type="line"/>
      <point x="359.35546875" y="119.0"/>
      <point x="294.35546875" y="-18.0"/>
      <point x="137.80078125" y="-18.0" type="curve" smooth="yes"/>
      <point x="-31.1943359375" y="-18.0"/>
      <point x="-25.1943359375" y="120.0"/>
      <point x="14.8056640625" y="295.0" type="curve" smooth="yes"/>
      <point x="201.805664062" y="1105.0" type="line" smooth="yes"/>
      <point x="241.805664062" y="1280.0"/>
      <point x="303.805664062" y="1418.0"/>
      <point x="482.126953125" y="1418.0" type="curve" smooth="yes"/>
      <point x="660.35546875" y="1418.0"/>
      <point x="659.35546875" y="1280.0"/>
      <point x="619.35546875" y="1105.0" type="curve" smooth="yes"/>
      <point x="407.35546875" y="188.0" type="line" smooth="yes"/>
      <point x="391.35546875" y="118.0"/>
      <point x="408.35546875" y="88.0"/>
      <point x="442.35546875" y="88.0" type="curve" smooth="yes"/>
      <point x="468.35546875" y="88.0"/>
      <point x="480.35546875" y="74.0"/>
    </contour>
    <contour>
      <point x="309.35546875" y="277.0" type="curve" smooth="yes"/>
      <point x="504.3828125" y="1124.0" type="line" smooth="yes"/>
      <point x="533.387695312" y="1250.0"/>
      <point x="540.080078125" y="1336.0"/>
      <point x="463.129882812" y="1336.0" type="curve" smooth="yes"/>
      <point x="386.1796875" y="1336.0"/>
      <point x="353.805664062" y="1250.0"/>
      <point x="324.805664062" y="1124.0" type="curve" smooth="yes"/>
      <point x="129.805664062" y="277.0" type="line" smooth="yes"/>
      <point x="100.790039062" y="150.0"/>
      <point x="93.146484375" y="64.0"/>
      <point x="170.096679688" y="64.0" type="curve" smooth="yes"/>
      <point x="247.046875" y="64.0"/>
      <point x="280.35546875" y="150.0"/>
    </contour>
  </outline>
</glyph>
<glyph name="R" format="2">
  <advance height="960" width="492"/>
  <unicode hex="0052"/>
  <anchor x="118.0" y="0.0" name="bottom"/>
  <anchor x="440.0" y="1400.0" name="top"/>
  <outline>
    <contour>
      <point x="377.045898438" y="1312.0" type="line"/>
      <point x="245.045898438" y="742.0" type="line"/>
      <point x="281.17578125" y="742.0" type="line" smooth="yes"/>
      <point x="338.17578125" y="742.0"/>
      <point x="369.060546875" y="784.0"/>
      <point x="395.05859375" y="895.0" type="curve" smooth="yes"/>
      <point x="456.05859375" y="1159.0" type="line" smooth="yes"/>
      <point x="481.059570312" y="1269.0"/>
      <point x="470.15625" y="1312.0"/>
      <point x="413.15625" y="1312.0" type="curve" smooth="yes"/>
    </contour>
    <contour>
      <point x="434.122070312" y="1400.0" type="line" smooth="yes"/>
      <point x="567.05859375" y="1400.0"/>
      <point x="612.05859375" y="1327.0"/>
      <point x="571.05859375" y="1150.0" type="curve" smooth="yes"/>
      <point x="519.05859375" y="923.0" type="line" smooth="yes"/>
      <point x="478.05859375" y="744.0"/>
      <point x="389.05859375" y="684.0"/>
      <point x="269.106445312" y="684.0" type="curve"/>
      <point x="276.102539062" y="714.0" type="line"/>
      <point x="398.05859375" y="714.0"/>
      <point x="459.05859375" y="678.0"/>
      <point x="429.05859375" y="549.0" type="curve" smooth="yes"/>
      <point x="354.05859375" y="225.0" type="line" smooth="yes"/>
      <point x="339.05859375" y="160.0"/>
      <point x="332.05859375" y="87.0"/>
      <point x="342.05859375" y="54.0" type="curve" smooth="yes"/>
      <point x="347.05859375" y="40.0"/>
      <point x="348.05859375" y="28.0"/>
      <point x="346.05859375" y="21.0" type="curve" smooth="yes"/>
      <point x="345.05859375" y="18.0" type="line" smooth="yes"/>
      <point x="340.05859375" y="-3.0"/>
      <point x="317.05859375" y="-15.0"/>
      <point x="290.05859375" y="-15.0" type="curve" smooth="yes"/>
      <point x="285.05859375" y="-15.0" type="line" smooth="yes"/>
      <point x="255.05859375" y="-15.0"/>
      <point x="234.05859375" y="2.0"/>
      <point x="228.05859375" y="24.0" type="curve" smooth="yes"/>
      <point x="213.05859375" y="75.0"/>
      <point x="228.081054688" y="175.0"/>
      <point x="240.05859375" y="225.0" type="curve" smooth="yes"/>
      <point x="320.05859375" y="571.0" type="line" smooth="yes"/>
      <point x="333.071289062" y="629.0"/>
      <point x="326.791015625" y="661.0"/>
      <point x="262.19140625" y="661.0" type="curve" smooth="yes"/>
      <point x="227.041015625" y="661.0" type="line"/>
      <point x="87.0458984375" y="55.0" type="line" smooth="yes"/>
      <point x="77.0380859375" y="11.0"/>
      <point x="61.0458984375" y="-15.0"/>
      <point x="17.0458984375" y="-15.0" type="curve" smooth="yes"/>
      <point x="13.0458984375" y="-15.0" type="line" smooth="yes"/>
      <point x="-30.9541015625" y="-15.0"/>
      <point x="-35.9541015625" y="11.0"/>
      <point x="-25.9541015625" y="55.0" type="curve" smooth="yes"/>
      <point x="267.045898438" y="1325.0" type="line" smooth="yes"/>
      <point x="279.045898438" y="1379.0"/>
      <point x="295.045898438" y="1400.0"/>
      <point x="359.045898438" y="1400.0" type="curve" smooth="yes"/>
    </contour>
  </outline>
</glyph>
<glyph name="S" format="2">
  <advance height="960" width="438"/>
  <unicode hex="0053"/>
  <anchor x="112.0" y="0.0" name="bottom"/>
  <anchor x="425.0" y="1400.0" name="top"/>
  <outline>
    <contour>
      <point x="156.090820312" y="539.0" type="curve" smooth="yes"/>
      <point x="158.090820312" y="539.0" type="line" smooth="yes"/>
      <point x="179.090820312" y="539.0"/>
      <point x="193.870117188" y="519.203125"/>
      <point x="179.090820312" y="489.0" type="curve" smooth="yes"/>
      <point x="132.083007812" y="392.938476562"/>
      <point x="103.92578125" y="310.780273438"/>
      <point x="77.0908203125" y="231.0" type="curve" smooth="yes"/>
      <point x="40.0908203125" y="121.0"/>
      <point x="71.0908203125" y="72.0"/>
      <point x="116.090820312" y="72.0" type="curve" smooth="yes"/>
      <point x="158.090820312" y="72.0"/>
      <point x="211.090820312" y="117.0"/>
      <point x="252.090820312" y="293.0" type="curve" smooth="yes"/>
      <point x="286.090820312" y="439.0"/>
      <point x="248.090820312" y="573.0"/>
      <point x="222.090820312" y="686.0" type="curve" smooth="yes"/>
      <point x="190.090820312" y="825.0"/>
      <point x="167.090820312" y="958.0"/>
      <point x="214.090820312" y="1160.0" type="curve" smooth="yes"/>
      <point x="260.090820312" y="1361.0"/>
      <point x="334.090820312" y="1418.0"/>
      <point x="440.090820312" y="1418.0" type="curve" smooth="yes"/>
      <point x="541.090820312" y="1418.0"/>
      <point x="607.053710938" y="1311.15234375"/>
      <point x="506.090820312" y="1080.0" type="curve" smooth="yes"/>
      <point x="441.090820312" y="931.0" type="line" smooth="yes"/>
      <point x="428.310546875" y="901.703125"/>
      <point x="415.090820312" y="887.0"/>
      <point x="392.090820312" y="887.0" type="curve" smooth="yes"/>
      <point x="390.090820312" y="887.0" type="line" smooth="yes"/>
      <point x="368.090820312" y="887.0"/>
      <point x="354.0234375" y="908.150390625"/>
      <point x="364.090820312" y="931.0" type="curve" smooth="yes"/>
      <point x="394.286132812" y="999.529296875"/>
      <point x="419.090820312" y="1063.0"/>
      <point x="438.090820312" y="1145.0" type="curve" smooth="yes"/>
      <point x="476.090820312" y="1311.0"/>
      <point x="460.090820312" y="1334.0"/>
      <point x="425.090820312" y="1334.0" type="curve" smooth="yes"/>
      <point x="390.090820312" y="1334.0"/>
      <point x="355.090820312" y="1299.0"/>
      <point x="323.090820312" y="1162.0" type="curve" smooth="yes"/>
      <point x="285.090820312" y="999.0"/>
      <point x="302.090820312" y="875.0"/>
      <point x="335.090820312" y="744.0" type="curve" smooth="yes"/>
      <point x="365.090820312" y="626.0"/>
      <point x="405.090820312" y="481.0"/>
      <point x="362.090820312" y="296.0" type="curve" smooth="yes"/>
      <point x="308.090820312" y="64.0"/>
      <point x="218.090820312" y="-18.0"/>
      <point x="98.0908203125" y="-18.0" type="curve" smooth="yes"/>
      <point x="-18.9091796875" y="-18.0"/>
      <point x="-51.2607421875" y="116.1484375"/>
      <point x="3.0908203125" y="245.0" type="curve" smooth="yes"/>
      <point x="106.090820312" y="489.0" type="line" smooth="yes"/>
      <point x="122.005859375" y="526.703125"/>
      <point x="135.090820312" y="539.0"/>
    </contour>
  </outline>
</glyph>
<glyph name="T" format="2">
  <advance height="960" width="398"/>
  <unicode hex="0054"/>
  <anchor x="42.0" y="0.0" name="bottom"/>
  <anchor x="405.0" y="1400.0" name="top"/>
  <outline>
    <contour>
      <point x="280.868164062" y="1400.0" type="curve" smooth="yes"/>
      <point x="540.868164062" y="1400.0" type="line" smooth="yes"/>
      <point x="594.868164062" y="1400.0"/>
      <point x="610.868164062" y="1394.0"/>
      <point x="602.868164062" y="1360.0" type="curve" smooth="yes"/>
      <point x="600.868164062" y="1353.0" type="line" smooth="yes"/>
      <point x="592.868164062" y="1319.0"/>
      <point x="574.868164062" y="1312.0"/>
      <point x="520.868164062" y="1312.0" type="curve" smooth="yes"/>
      <point x="447.868164062" y="1312.0" type="line"/>
      <point x="157.868164062" y="55.0" type="line" smooth="yes"/>
      <point x="147.868164062" y="11.0"/>
      <point x="130.868164062" y="-15.0"/>
      <point x="86.8681640625" y="-15.0" type="curve" smooth="yes"/>
      <point x="83.8681640625" y="-15.0" type="line" smooth="yes"/>
      <point x="39.8681640625" y="-15.0"/>
      <point x="34.8681640625" y="11.0"/>
      <point x="44.8681640625" y="55.0" type="curve" smooth="yes"/>
      <point x="334.868164062" y="1312.0" type="line"/>
      <point x="260.868164062" y="1312.0" type="line" smooth="yes"/>
      <point x="206.868164062" y="1312.0"/>
      <point x="192.868164062" y="1319.0"/>
      <point x="200.868164062" y="1353.0" type="curve" smooth="yes"/>
      <point x="202.868164062" y="1360.0" type="line" smooth="yes"/>
      <point x="210.868164062" y="1394.0"/>
      <point x="226.868164062" y="1400.0"/>
    </contour>
  </outline>
</glyph>
<glyph name="U" format="2">
  <advance height="960" width="484"/>
  <unicode hex="0055"/>
  <anchor x="142.0" y="0.0" name="bottom"/>
  <anchor x="190.0" y="0.0" name="ogonek"/>
  <anchor x="465.0" y="1400.0" name="top"/>
  <outline>
    <contour>
      <point x="254.485351562" y="219.0" type="curve" smooth="yes"/>
      <point x="514.485351562" y="1345.0" type="line" smooth="yes"/>
      <point x="524.491210938" y="1389.0"/>
      <point x="541.485351562" y="1415.0"/>
      <point x="575.485351562" y="1415.0" type="curve" smooth="yes"/>
      <point x="582.485351562" y="1415.0" type="line" smooth="yes"/>
      <point x="616.485351562" y="1415.0"/>
      <point x="622.485351562" y="1389.0"/>
      <point x="612.485351562" y="1345.0" type="curve" smooth="yes"/>
      <point x="358.485351562" y="246.0" type="line" smooth="yes"/>
      <point x="321.485351562" y="86.0"/>
      <point x="284.485351562" y="-18.0"/>
      <point x="134.900390625" y="-18.0" type="curve" smooth="yes"/>
      <point x="0.185546875" y="-18.0"/>
      <point x="-28.814453125" y="55.0"/>
      <point x="16.185546875" y="250.0" type="curve" smooth="yes"/>
      <point x="269.185546875" y="1345.0" type="line" smooth="yes"/>
      <point x="279.185546875" y="1389.0"/>
      <point x="295.185546875" y="1415.0"/>
      <point x="339.185546875" y="1415.0" type="curve" smooth="yes"/>
      <point x="348.185546875" y="1415.0" type="line" smooth="yes"/>
      <point x="392.185546875" y="1415.0"/>
      <point x="397.185546875" y="1389.0"/>
      <point x="387.18359375" y="1345.0" type="curve" smooth="yes"/>
      <point x="130.185546875" y="232.0" type="line" smooth="yes"/>
      <point x="100.185546875" y="104.0"/>
      <point x="110.196289062" y="64.0"/>
      <point x="157.696289062" y="64.0" type="curve" smooth="yes"/>
      <point x="208.99609375" y="64.0"/>
      <point x="230.485351562" y="113.0"/>
    </contour>
  </outline>
</glyph>
<glyph name="V" format="2">
  <advance height="960" width="446"/>
  <unicode hex="0056"/>
  <anchor x="108.0" y="0.0" name="bottom"/>
  <anchor x="430.0" y="1400.0" name="top"/>
  <outline>
    <contour>
      <point x="156.102539062" y="150.0" type="line"/>
      <point x="525.102539062" y="1345.0" type="line" smooth="yes"/>
      <point x="541.102539062" y="1398.0"/>
      <point x="569.102539062" y="1415.0"/>
      <point x="593.102539062" y="1415.0" type="curve" smooth="yes"/>
      <point x="597.102539062" y="1415.0" type="line" smooth="yes"/>
      <point x="621.102539062" y="1415.0"/>
      <point x="638.102539062" y="1388.0"/>
      <point x="624.102539062" y="1345.0" type="curve" smooth="yes"/>
      <point x="204.102539062" y="55.0" type="line" smooth="yes"/>
      <point x="190.102539062" y="12.0"/>
      <point x="171.102539062" y="-15.0"/>
      <point x="137.102539062" y="-15.0" type="curve" smooth="yes"/>
      <point x="83.1025390625" y="-15.0" type="line" smooth="yes"/>
      <point x="49.1025390625" y="-15.0"/>
      <point x="42.1025390625" y="12.0"/>
      <point x="48.1025390625" y="55.0" type="curve" smooth="yes"/>
      <point x="214.102539062" y="1345.0" type="line" smooth="yes"/>
      <point x="220.102539062" y="1388.0"/>
      <point x="244.102539062" y="1415.0"/>
      <point x="278.102539062" y="1415.0" type="curve" smooth="yes"/>
      <point x="288.102539062" y="1415.0" type="line" smooth="yes"/>
      <point x="322.102539062" y="1415.0"/>
      <point x="340.102539062" y="1389.0"/>
      <point x="334.102539062" y="1345.0" type="curve" smooth="yes"/>
    </contour>
  </outline>
</glyph>
<glyph name="W" format="2">
  <advance height="960" width="697"/>
  <unicode hex="0057"/>
  <anchor x="252.0" y="0.0" name="bottom"/>
  <anchor x="575.0" y="1400.0" name="top"/>
  <outline>
    <contour>
      <point x="156.900390625" y="180.0" type="line"/>
      <point x="515.826171875" y="1345.0" type="line" smooth="yes"/>
      <point x="528.671875" y="1388.0"/>
      <point x="547.034179688" y="1415.0"/>
      <point x="579.333984375" y="1415.0" type="curve" smooth="yes"/>
      <point x="589.784179688" y="1415.0" type="line" smooth="yes"/>
      <point x="622.083984375" y="1415.0"/>
      <point x="628.421875" y="1388.0"/>
      <point x="621.275390625" y="1345.0" type="curve" smooth="yes"/>
      <point x="433.731445312" y="171.0" type="line"/>
      <point x="796.731445312" y="1345.0" type="line" smooth="yes"/>
      <point x="809.731445312" y="1388.0"/>
      <point x="829.731445312" y="1415.0"/>
      <point x="863.731445312" y="1415.0" type="curve" smooth="yes"/>
      <point x="866.731445312" y="1415.0" type="line" smooth="yes"/>
      <point x="900.731445312" y="1415.0"/>
      <point x="903.731445312" y="1388.0"/>
      <point x="889.731445312" y="1345.0" type="curve" smooth="yes"/>
      <point x="474.731445312" y="55.0" type="line" smooth="yes"/>
      <point x="460.731445312" y="11.0"/>
      <point x="431.731445312" y="-15.0"/>
      <point x="387.731445312" y="-15.0" type="curve" smooth="yes"/>
      <point x="375.731445312" y="-15.0" type="line" smooth="yes"/>
      <point x="332.926757812" y="-15.0"/>
      <point x="315.176757812" y="11.0"/>
      <point x="322.334960938" y="55.0" type="curve" smooth="yes"/>
      <point x="482.80859375" y="1036.0" type="line"/>
      <point x="183.634765625" y="55.0" type="line" smooth="yes"/>
      <point x="170.77734375" y="11.0"/>
      <point x="141.900390625" y="-15.0"/>
      <point x="97.900390625" y="-15.0" type="curve" smooth="yes"/>
      <point x="87.900390625" y="-15.0" type="line" smooth="yes"/>
      <point x="43.900390625" y="-15.0"/>
      <point x="26.900390625" y="11.0"/>
      <point x="32.900390625" y="55.0" type="curve" smooth="yes"/>
      <point x="217.900390625" y="1345.0" type="line" smooth="yes"/>
      <point x="223.900390625" y="1388.0"/>
      <point x="249.900390625" y="1415.0"/>
      <point x="283.900390625" y="1415.0" type="curve" smooth="yes"/>
      <point x="289.900390625" y="1415.0" type="line" smooth="yes"/>
      <point x="323.900390625" y="1415.0"/>
      <point x="341.900390625" y="1388.0"/>
      <point x="334.900390625" y="1345.0" type="curve" smooth="yes"/>
    </contour>
  </outline>
</glyph>
<glyph name="X" format="2">
  <advance height="960" width="446"/>
  <unicode hex="0058"/>
  <anchor x="118.0" y="0.0" name="bottom"/>
  <anchor x="440.0" y="1400.0" name="top"/>
  <outline>
    <contour>
      <point x="564.778320312" y="1415.0" type="curve" smooth="yes"/>
      <point x="565.778320312" y="1415.0" type="line" smooth="yes"/>
      <point x="609.778320312" y="1415.0"/>
      <point x="618.778320312" y="1388.0"/>
      <point x="600.778320312" y="1345.0" type="curve" smooth="yes"/>
      <point x="336.08203125" y="715.0" type="line"/>
      <point x="319.778320312" y="65.0" type="line" smooth="yes"/>
      <point x="318.778320312" y="22.0"/>
      <point x="290.778320312" y="-15.0"/>
      <point x="246.778320312" y="-15.0" type="curve" smooth="yes"/>
      <point x="244.778320312" y="-15.0" type="line" smooth="yes"/>
      <point x="200.778320312" y="-15.0"/>
      <point x="187.778320312" y="21.0"/>
      <point x="191.778320312" y="65.0" type="curve" smooth="yes"/>
      <point x="249.27734375" y="602.0" type="line"/>
      <point x="47.37890625" y="65.0" type="line" smooth="yes"/>
      <point x="30.37890625" y="22.0"/>
      <point x="1.37890625" y="-15.0"/>
      <point x="-32.62109375" y="-15.0" type="curve" smooth="yes"/>
      <point x="-39.62109375" y="-15.0" type="line" smooth="yes"/>
      <point x="-73.62109375" y="-15.0"/>
      <point x="-85.62109375" y="22.0"/>
      <point x="-65.62109375" y="65.0" type="curve" smooth="yes"/>
      <point x="218.977539062" y="693.0" type="line"/>
      <point x="242.37890625" y="1335.0" type="line" smooth="yes"/>
      <point x="244.37890625" y="1378.0"/>
      <point x="276.37890625" y="1415.0"/>
      <point x="320.37890625" y="1415.0" type="curve" smooth="yes"/>
      <point x="321.37890625" y="1415.0" type="line" smooth="yes"/>
      <point x="365.0625" y="1415.0"/>
      <point x="372.247070312" y="1379.0"/>
      <point x="366.989257812" y="1335.0" type="curve" smooth="yes"/>
      <point x="302.885742188" y="802.0" type="line"/>
      <point x="489.778320312" y="1345.0" type="line" smooth="yes"/>
      <point x="504.778320312" y="1389.0"/>
      <point x="520.778320312" y="1415.0"/>
    </contour>
  </outline>
</glyph>
<glyph name="Y" format="2">
  <advance height="960" width="457"/>
  <unicode hex="0059"/>
  <anchor x="112.0" y="0.0" name="bottom"/>
  <anchor x="435.0" y="1400.0" name="top"/>
  <outline>
    <contour>
      <point x="604.555664062" y="1415.0" type="curve" smooth="yes"/>
      <point x="606.555664062" y="1415.0" type="line" smooth="yes"/>
      <point x="640.555664062" y="1415.0"/>
      <point x="650.555664062" y="1388.0"/>
      <point x="631.555664062" y="1345.0" type="curve" smooth="yes"/>
      <point x="318.555664062" y="625.0" type="line"/>
      <point x="187.555664062" y="55.0" type="line" smooth="yes"/>
      <point x="177.555664062" y="11.0"/>
      <point x="159.555664062" y="-15.0"/>
      <point x="115.555664062" y="-15.0" type="curve" smooth="yes"/>
      <point x="112.555664062" y="-15.0" type="line" smooth="yes"/>
      <point x="68.5556640625" y="-15.0"/>
      <point x="63.5556640625" y="11.0"/>
      <point x="73.5556640625" y="55.0" type="curve" smooth="yes"/>
      <point x="204.555664062" y="625.0" type="line"/>
      <point x="225.555664062" y="1345.0" type="line" smooth="yes"/>
      <point x="226.555664062" y="1388.0"/>
      <point x="262.555664062" y="1415.0"/>
      <point x="296.555664062" y="1415.0" type="curve" smooth="yes"/>
      <point x="297.555664062" y="1415.0" type="line" smooth="yes"/>
      <point x="341.555664062" y="1415.0"/>
      <point x="352.555664062" y="1388.0"/>
      <point x="348.555664062" y="1345.0" type="curve" smooth="yes"/>
      <point x="295.555664062" y="717.0" type="line"/>
      <point x="532.555664062" y="1345.0" type="line" smooth="yes"/>
      <point x="548.555664062" y="1388.0"/>
      <point x="570.555664062" y="1415.0"/>
    </contour>
  </outline>
</glyph>
<glyph name="Z" format="2">
  <advance height="960" width="396"/>
  <unicode hex="005A"/>
  <anchor x="98.0" y="0.0" name="bottom"/>
  <anchor x="420.0" y="1400.0" name="top"/>
  <outline>
    <contour>
      <point x="-84.060546875" y="105.0" type="curve" smooth="yes"/>
      <point x="446.939453125" y="1312.0" type="line"/>
      <point x="306.939453125" y="1312.0" type="line" smooth="yes"/>
      <point x="242.939453125" y="1312.0"/>
      <point x="217.939453125" y="1319.0"/>
      <point x="225.939453125" y="1353.0" type="curve" smooth="yes"/>
      <point x="227.939453125" y="1360.0" type="line" smooth="yes"/>
      <point x="235.939453125" y="1394.0"/>
      <point x="262.939453125" y="1400.0"/>
      <point x="326.939453125" y="1400.0" type="curve" smooth="yes"/>
      <point x="494.939453125" y="1400.0" type="line" smooth="yes"/>
      <point x="568.939453125" y="1400.0"/>
      <point x="582.939453125" y="1367.0"/>
      <point x="550.939453125" y="1295.0" type="curve" smooth="yes"/>
      <point x="21.939453125" y="88.0" type="line"/>
      <point x="222.939453125" y="88.0" type="line" smooth="yes"/>
      <point x="266.939453125" y="88.0"/>
      <point x="291.939453125" y="81.0"/>
      <point x="283.939453125" y="47.0" type="curve" smooth="yes"/>
      <point x="281.939453125" y="40.0" type="line" smooth="yes"/>
      <point x="273.939453125" y="6.0"/>
      <point x="246.939453125" y="0.0"/>
      <point x="202.939453125" y="0.0" type="curve" smooth="yes"/>
      <point x="-27.060546875" y="0.0" type="line" smooth="yes"/>
      <point x="-111.060546875" y="0.0"/>
      <point x="-111.060546875" y="43.0"/>
    </contour>
  </outline>
</glyph>
<glyph name="bracketleft" format="2">
  <advance height="1920" width="288"/>
  <unicode hex="005B"/>
  <outline>
    <contour>
      <point x="374.0" y="1519.0" type="line"/>
      <point x="-41.0" y="-279.0" type="line"/>
      <point x="24.0" y="-279.0" type="line" smooth="yes"/>
      <point x="68.0" y="-279.0"/>
      <point x="92.0" y="-285.0"/>
      <point x="84.0" y="-319.0" type="curve" smooth="yes"/>
      <point x="84.0" y="-320.0" type="line" smooth="yes"/>
      <point x="76.0" y="-354.0"/>
      <point x="49.0" y="-360.0"/>
      <point x="5.0" y="-360.0" type="curve" smooth="yes"/>
      <point x="-103.0" y="-360.0" type="line" smooth="yes"/>
      <point x="-147.0" y="-360.0"/>
      <point x="-163.0" y="-339.0"/>
      <point x="-153.0" y="-295.0" type="curve" smooth="yes"/>
      <point x="269.0" y="1535.0" type="line" smooth="yes"/>
      <point x="279.0" y="1579.0"/>
      <point x="305.0" y="1600.0"/>
      <point x="349.0" y="1600.0" type="curve" smooth="yes"/>
      <point x="457.0" y="1600.0" type="line" smooth="yes"/>
      <point x="501.0" y="1600.0"/>
      <point x="526.0" y="1594.0"/>
      <point x="518.0" y="1560.0" type="curve" smooth="yes"/>
      <point x="518.0" y="1559.0" type="line" smooth="yes"/>
      <point x="510.0" y="1525.0"/>
      <point x="483.0" y="1519.0"/>
      <point x="439.0" y="1519.0" type="curve" smooth="yes"/>
    </contour>
  </outline>
</glyph>
<glyph name="backslash" format="2">
  <advance height="2048" width="440"/>
  <unicode hex="005C"/>
  <outline>
    <contour>
      <point x="280.0" y="-25.0" type="line" smooth="yes"/>
      <point x="279.0" y="-77.0"/>
      <point x="262.0" y="-100.0"/>
      <point x="228.0" y="-100.0" type="curve" smooth="yes"/>
      <point x="227.0" y="-100.0" type="line" smooth="yes"/>
      <point x="193.0" y="-100.0"/>
      <point x="186.0" y="-77.0"/>
      <point x="187.0" y="-25.0" type="curve" smooth="yes"/>
      <point x="219.0" y="1345.0" type="line" smooth="yes"/>
      <point x="220.0" y="1387.0"/>
      <point x="248.0" y="1400.0"/>
      <point x="272.0" y="1400.0" type="curve" smooth="yes"/>
      <point x="273.0" y="1400.0" type="line" smooth="yes"/>
      <point x="296.0" y="1400.0"/>
      <point x="313.0" y="1387.0"/>
      <point x="312.0" y="1345.0" type="curve" smooth="yes"/>
    </contour>
  </outline>
</glyph>
<glyph name="bracketright" format="2">
  <advance height="1920" width="288"/>
  <unicode hex="005D"/>
  <outline>
    <contour>
      <point x="-39.0" y="-279.0" type="line"/>
      <point x="376.0" y="1519.0" type="line"/>
      <point x="311.0" y="1519.0" type="line" smooth="yes"/>
      <point x="267.0" y="1519.0"/>
      <point x="242.0" y="1525.0"/>
      <point x="250.0" y="1559.0" type="curve" smooth="yes"/>
      <point x="250.0" y="1560.0" type="line" smooth="yes"/>
      <point x="258.0" y="1594.0"/>
      <point x="285.0" y="1600.0"/>
      <point x="329.0" y="1600.0" type="curve" smooth="yes"/>
      <point x="437.0" y="1600.0" type="line" smooth="yes"/>
      <point x="481.0" y="1600.0"/>
      <point x="497.0" y="1579.0"/>
      <point x="487.0" y="1535.0" type="curve" smooth="yes"/>
      <point x="65.0" y="-295.0" type="line" smooth="yes"/>
      <point x="55.0" y="-339.0"/>
      <point x="29.0" y="-360.0"/>
      <point x="-15.0" y="-360.0" type="curve" smooth="yes"/>
      <point x="-123.0" y="-360.0" type="line" smooth="yes"/>
      <point x="-167.0" y="-360.0"/>
      <point x="-192.0" y="-354.0"/>
      <point x="-184.0" y="-320.0" type="curve" smooth="yes"/>
      <point x="-184.0" y="-319.0" type="line" smooth="yes"/>
      <point x="-176.0" y="-285.0"/>
      <point x="-148.0" y="-279.0"/>
      <point x="-104.0" y="-279.0" type="curve" smooth="yes"/>
    </contour>
  </outline>
</glyph>
<glyph name="asciicircum" format="2">
  <advance height="1920" width="389"/>
  <unicode hex="005E"/>
  <outline>
    <contour>
      <point x="367.0" y="1271.0" type="line"/>
      <point x="164.0" y="780.0" type="line" smooth="yes"/>
      <point x="146.0" y="735.0"/>
      <point x="131.0" y="715.0"/>
      <point x="104.0" y="715.0" type="curve" smooth="yes"/>
      <point x="101.0" y="715.0" type="line" smooth="yes"/>
      <point x="74.0" y="715.0"/>
      <point x="69.0" y="735.0"/>
      <point x="89.0" y="780.0" type="curve" smooth="yes"/>
      <point x="349.0" y="1360.0" type="line" smooth="yes"/>
      <point x="362.0" y="1389.0"/>
      <point x="379.0" y="1410.0"/>
      <point x="396.0" y="1410.0" type="curve" smooth="yes"/>
      <point x="403.0" y="1410.0" type="line" smooth="yes"/>
      <point x="420.0" y="1410.0"/>
      <point x="428.0" y="1389.0"/>
      <point x="427.0" y="1360.0" type="curve" smooth="yes"/>
      <point x="418.0" y="780.0" type="line" smooth="yes"/>
      <point x="418.0" y="735.0"/>
      <point x="407.0" y="715.0"/>
      <point x="376.0" y="715.0" type="curve" smooth="yes"/>
      <point x="373.0" y="715.0" type="line" smooth="yes"/>
      <point x="344.0" y="715.0"/>
      <point x="341.0" y="735.0"/>
      <point x="343.0" y="780.0" type="curve" smooth="yes"/>
    </contour>
  </outline>
</glyph>
<glyph name="underscore" format="2">
  <advance height="1920" width="450"/>
  <unicode hex="005F"/>
  <outline>
    <contour>
      <point x="-142.0" y="-50.0" type="curve" smooth="yes"/>
      <point x="-142.0" y="-40.0" type="line" smooth="yes"/>
      <point x="-142.0" y="-19.0"/>
      <point x="-123.0" y="0.0"/>
      <point x="-85.0" y="0.0" type="curve" smooth="yes"/>
      <point x="293.0" y="0.0" type="line" smooth="yes"/>
      <point x="331.0" y="0.0"/>
      <point x="350.0" y="-19.0"/>
      <point x="350.0" y="-40.0" type="curve" smooth="yes"/>
      <point x="350.0" y="-50.0" type="line" smooth="yes"/>
      <point x="350.0" y="-71.0"/>
      <point x="331.0" y="-90.0"/>
      <point x="293.0" y="-90.0" type="curve" smooth="yes"/>
      <point x="-85.0" y="-90.0" type="line" smooth="yes"/>
      <point x="-123.0" y="-90.0"/>
      <point x="-142.0" y="-71.0"/>
    </contour>
  </outline>
</glyph>
<glyph name="grave" format="2">
  <advance width="320"/>
  <unicode hex="0060"/>
  <outline>
    <contour>
      <point x="346.0" y="1089.0" type="curve" smooth="yes"/>
      <point x="345.0" y="1089.0" type="line" smooth="yes"/>
      <point x="321.0" y="1089.0"/>
      <point x="312.0" y="1110.0"/>
      <point x="299.0" y="1154.0" type="curve" smooth="yes"/>
      <point x="245.0" y="1340.0" type="line" smooth="yes"/>
      <point x="232.0" y="1384.0"/>
      <point x="273.0" y="1415.0"/>
      <point x="307.0" y="1415.0" type="curve" smooth="yes"/>
      <point x="310.0" y="1415.0" type="line" smooth="yes"/>
      <point x="344.0" y="1415.0"/>
      <point x="365.0" y="1393.0"/>
      <point x="368.0" y="1340.0" type="curve" smooth="yes"/>
      <point x="379.0" y="1154.0" type="line" smooth="yes"/>
      <point x="382.0" y="1110.0"/>
      <point x="370.0" y="1089.0"/>
    </contour>
  </outline>
</glyph>
<glyph name="a" format="2">
  <advance height="960" width="378"/>
  <unicode hex="0061"/>
  <anchor x="83.0" y="0.0" name="bottom"/>
  <anchor x="200.0" y="0.0" name="ogonek"/>
  <anchor x="329.0" y="1050.0" name="top"/>
  <outline>
    <contour>
      <point x="184.0" y="205.0" type="line"/>
      <point x="151.0" y="60.0"/>
      <point x="101.0" y="-16.0"/>
      <point x="25.0" y="-16.0" type="curve" smooth="yes"/>
      <point x="-65.0" y="-16.0"/>
      <point x="-85.0" y="54.0"/>
      <point x="-46.0" y="224.0" type="curve" smooth="yes"/>
      <point x="91.0" y="817.0" type="line" smooth="yes"/>
      <point x="128.0" y="977.0"/>
      <point x="183.0" y="1059.0"/>
      <point x="269.0" y="1059.0" type="curve" smooth="yes"/>
      <point x="351.0" y="1059.0"/>
      <point x="390.0" y="987.0"/>
      <point x="360.0" y="859.0" type="curve"/>
      <point x="306.0" y="846.0" type="line"/>
      <point x="329.0" y="947.0"/>
      <point x="321.0" y="977.0"/>
      <point x="290.0" y="977.0" type="curve" smooth="yes"/>
      <point x="255.0" y="977.0"/>
      <point x="231.0" y="929.0"/>
      <point x="208.0" y="830.0" type="curve" smooth="yes"/>
      <point x="65.0" y="213.0" type="line" smooth="yes"/>
      <point x="42.0" y="114.0"/>
      <point x="39.0" y="67.0"/>
      <point x="74.0" y="67.0" type="curve" smooth="yes"/>
      <point x="104.0" y="67.0"/>
      <point x="136.0" y="107.0"/>
      <point x="159.0" y="206.0" type="curve"/>
    </contour>
    <contour>
      <point x="272.0" y="42.0" type="curve" smooth="yes"/>
      <point x="272.0" y="41.0" type="line" smooth="yes"/>
      <point x="272.0" y="27.0"/>
      <point x="265.457454715" y="-0.0258861019632"/>
      <point x="221.0" y="-9.0" type="curve" smooth="yes"/>
      <point x="122.332586599" y="-28.9168533502"/>
      <point x="116.0" y="22.0"/>
      <point x="141.0" y="132.0" type="curve" smooth="yes"/>
      <point x="329.0" y="944.0" type="line"/>
      <point x="418.0" y="1043.0" type="line" smooth="yes"/>
      <point x="426.748335402" y="1052.73129444"/>
      <point x="438.0" y="1059.0"/>
      <point x="446.0" y="1059.0" type="curve" smooth="yes"/>
      <point x="447.0" y="1059.0" type="line" smooth="yes"/>
      <point x="462.0" y="1059.0"/>
      <point x="466.310798982" y="1046.00482681"/>
      <point x="461.0" y="1023.0" type="curve" smooth="yes"/>
      <point x="256.0" y="135.0" type="line" smooth="yes"/>
      <point x="241.0" y="72.0"/>
      <point x="248.317289741" y="69.3680118889"/>
      <point x="257.0" y="67.0" type="curve" smooth="yes"/>
      <point x="268.0" y="64.0"/>
      <point x="272.0" y="54.0"/>
    </contour>
  </outline>
</glyph>
<glyph name="b" format="2">
  <advance height="960" width="432"/>
  <unicode hex="0062"/>
  <outline>
    <contour>
      <point x="327.453125" y="1465.0" type="curve" smooth="yes"/>
      <point x="331.453125" y="1465.0" type="line" smooth="yes"/>
      <point x="375.453125" y="1465.0"/>
      <point x="380.453125" y="1439.0"/>
      <point x="370.453125" y="1395.0" type="curve" smooth="yes"/>
      <point x="70.453125" y="97.0" type="line"/>
      <point x="22.453125" y="29.0" type="line" smooth="yes"/>
      <point x="-1.546875" y="-5.0"/>
      <point x="-16.546875" y="-23.0"/>
      <point x="-41.546875" y="-23.0" type="curve" smooth="yes"/>
      <point x="-42.546875" y="-23.0" type="line" smooth="yes"/>
      <point x="-57.546875" y="-23.0"/>
      <point x="-68.546875" y="-15.0"/>
      <point x="-62.546875" y="12.0" type="curve" smooth="yes"/>
      <point x="256.453125" y="1395.0" type="line" smooth="yes"/>
      <point x="266.453125" y="1439.0"/>
      <point x="283.453125" y="1465.0"/>
    </contour>
    <contour>
      <point x="217.453125" y="845.0" type="line"/>
      <point x="250.453125" y="990.0"/>
      <point x="290.453125" y="1067.0"/>
      <point x="376.453125" y="1067.0" type="curve" smooth="yes"/>
      <point x="466.453125" y="1067.0"/>
      <point x="512.453125" y="997.0"/>
      <point x="473.453125" y="827.0" type="curve" smooth="yes"/>
      <point x="334.453125" y="224.0" type="line" smooth="yes"/>
      <point x="297.453125" y="64.0"/>
      <point x="247.453125" y="-18.0"/>
      <point x="151.453125" y="-18.0" type="curve" smooth="yes"/>
      <point x="59.453125" y="-18.0"/>
      <point x="9.453125" y="54.0"/>
      <point x="39.453125" y="182.0" type="curve"/>
      <point x="93.453125" y="195.0" type="line"/>
      <point x="70.453125" y="94.0"/>
      <point x="80.453125" y="64.0"/>
      <point x="121.453125" y="64.0" type="curve" smooth="yes"/>
      <point x="166.453125" y="64.0"/>
      <point x="195.453125" y="112.0"/>
      <point x="218.453125" y="211.0" type="curve" smooth="yes"/>
      <point x="362.453125" y="838.0" type="line" smooth="yes"/>
      <point x="385.453125" y="937.0"/>
      <point x="378.453125" y="984.0"/>
      <point x="333.453125" y="984.0" type="curve" smooth="yes"/>
      <point x="283.453125" y="984.0"/>
      <point x="266.453125" y="945.0"/>
      <point x="243.453125" y="846.0" type="curve"/>
    </contour>
  </outline>
</glyph>
<glyph name="c" format="2">
  <advance height="960" width="359"/>
  <unicode hex="0063"/>
  <anchor x="78.0" y="0.0" name="bottom"/>
  <anchor x="317.0" y="1050.0" name="top"/>
  <outline>
    <contour>
      <point x="305.29296875" y="340.0" type="curve" smooth="yes"/>
      <point x="296.48046875" y="299.5703125"/>
      <point x="288.29296875" y="269.0"/>
      <point x="271.29296875" y="202.0" type="curve" smooth="yes"/>
      <point x="233.29296875" y="54.0"/>
      <point x="185.29296875" y="-18.0"/>
      <point x="81.47265625" y="-18.0" type="curve" smooth="yes"/>
      <point x="-28.9033203125" y="-18.0"/>
      <point x="-65.9033203125" y="50.0"/>
      <point x="-25.9033203125" y="224.0" type="curve" smooth="yes"/>
      <point x="113.096679688" y="827.0" type="line" smooth="yes"/>
      <point x="149.096679688" y="984.0"/>
      <point x="193.096679688" y="1067.0"/>
      <point x="315.346679688" y="1067.0" type="curve" smooth="yes"/>
      <point x="421.29296875" y="1067.0"/>
      <point x="448.29296875" y="994.0"/>
      <point x="417.29296875" y="851.0" type="curve" smooth="yes"/>
      <point x="403.29296875" y="784.0"/>
      <point x="384.548828125" y="738.421875"/>
      <point x="348.29296875" y="681.0" type="curve" smooth="yes"/>
      <point x="333.849609375" y="658.124023438"/>
      <point x="321.29296875" y="627.0"/>
      <point x="287.467773438" y="627.0" type="curve" smooth="yes"/>
      <point x="285.567382812" y="627.0" type="line" smooth="yes"/>
      <point x="254.217773438" y="627.0"/>
      <point x="255.424804688" y="656.904296875"/>
      <point x="269.079101562" y="680.0" type="curve" smooth="yes"/>
      <point x="306.446289062" y="743.203125"/>
      <point x="320.560546875" y="778.0"/>
      <point x="334.611328125" y="843.0" type="curve" smooth="yes"/>
      <point x="356.654296875" y="942.0"/>
      <point x="350.465820312" y="982.0"/>
      <point x="312.465820312" y="982.0" type="curve" smooth="yes"/>
      <point x="272.565429688" y="982.0"/>
      <point x="252.096679688" y="938.0"/>
      <point x="228.083984375" y="832.0" type="curve" smooth="yes"/>
      <point x="86.0966796875" y="218.0" type="line" smooth="yes"/>
      <point x="62.0966796875" y="116.0"/>
      <point x="68.3076171875" y="76.0"/>
      <point x="109.157226562" y="76.0" type="curve" smooth="yes"/>
      <point x="146.20703125" y="76.0"/>
      <point x="169.434570312" y="113.0"/>
      <point x="194.29296875" y="209.0" type="curve" smooth="yes"/>
      <point x="211.29296875" y="275.0"/>
      <point x="215.803710938" y="295.989257812"/>
      <point x="226.29296875" y="340.0" type="curve" smooth="yes"/>
      <point x="240.856445312" y="401.104492188"/>
      <point x="252.29296875" y="424.0"/>
      <point x="275.29296875" y="424.0" type="curve" smooth="yes"/>
      <point x="277.29296875" y="424.0" type="line" smooth="yes"/>
      <point x="301.29296875" y="424.0"/>
      <point x="318.672851562" y="401.3828125"/>
    </contour>
  </outline>
</glyph>
<glyph name="d" format="2">
  <advance height="960" width="426"/>
  <unicode hex="0064"/>
  <outline>
    <contour>
      <point x="226.915039062" y="203.0" type="line"/>
      <point x="193.915039062" y="58.0"/>
      <point x="152.915039062" y="-18.0"/>
      <point x="75.7529296875" y="-18.0" type="curve" smooth="yes"/>
      <point x="-9.103515625" y="-18.0"/>
      <point x="-61.103515625" y="54.0"/>
      <point x="-22.103515625" y="224.0" type="curve" smooth="yes"/>
      <point x="116.896484375" y="827.0" type="line" smooth="yes"/>
      <point x="155.896484375" y="997.0"/>
      <point x="210.896484375" y="1067.0"/>
      <point x="297.27734375" y="1067.0" type="curve" smooth="yes"/>
      <point x="374.227539062" y="1067.0"/>
      <point x="407.9140625" y="991.0"/>
      <point x="374.9140625" y="846.0" type="curve"/>
      <point x="347.926757812" y="846.0" type="line"/>
      <point x="370.918945312" y="945.0"/>
      <point x="377.069335938" y="984.0"/>
      <point x="325.76953125" y="984.0" type="curve" smooth="yes"/>
      <point x="278.26953125" y="984.0"/>
      <point x="254.896484375" y="937.0"/>
      <point x="231.896484375" y="838.0" type="curve" smooth="yes"/>
      <point x="87.896484375" y="211.0" type="line" smooth="yes"/>
      <point x="64.896484375" y="112.0"/>
      <point x="66.25" y="64.0"/>
      <point x="113.75" y="64.0" type="curve" smooth="yes"/>
      <point x="165.049804688" y="64.0"/>
      <point x="176.922851562" y="105.0"/>
      <point x="199.916015625" y="204.0" type="curve"/>
    </contour>
    <contour>
      <point x="589.9140625" y="1395.0" type="curve" smooth="yes"/>
      <point x="280.915039062" y="55.0" type="line" smooth="yes"/>
      <point x="270.915039062" y="11.0"/>
      <point x="252.915039062" y="-15.0"/>
      <point x="218.915039062" y="-15.0" type="curve" smooth="yes"/>
      <point x="217.915039062" y="-15.0" type="line" smooth="yes"/>
      <point x="183.915039062" y="-15.0"/>
      <point x="163.915039062" y="11.0"/>
      <point x="173.915039062" y="55.0" type="curve" smooth="yes"/>
      <point x="185.915039062" y="110.0" type="line"/>
      <point x="181.915039062" y="126.0" type="line"/>
      <point x="474.9140625" y="1395.0" type="line" smooth="yes"/>
      <point x="484.921875" y="1439.0"/>
      <point x="512.9140625" y="1465.0"/>
      <point x="546.9140625" y="1465.0" type="curve" smooth="yes"/>
      <point x="549.9140625" y="1465.0" type="line" smooth="yes"/>
      <point x="583.9140625" y="1465.0"/>
      <point x="599.9140625" y="1439.0"/>
    </contour>
  </outline>
</glyph>
<glyph name="e" format="2">
  <advance height="960" width="393"/>
  <unicode hex="0065"/>
  <anchor x="84.0" y="0.0" name="bottom"/>
  <anchor x="119.0" y="30.0" name="ogonek"/>
  <anchor x="327.0" y="1050.0" name="top"/>
  <outline>
    <contour>
      <point x="329.543945312" y="360.0" type="curve" smooth="yes"/>
      <point x="281.543945312" y="154.0"/>
      <point x="245.543945312" y="57.0"/>
      <point x="196.543945312" y="17.0" type="curve" smooth="yes"/>
      <point x="159.543945312" y="-13.0"/>
      <point x="125.134765625" y="-18.0"/>
      <point x="87.134765625" y="-18.0" type="curve" smooth="yes"/>
      <point x="-49.8955078125" y="-18.0"/>
      <point x="-61.89453125" y="69.0"/>
      <point x="-24.89453125" y="230.0" type="curve" smooth="yes"/>
      <point x="112.10546875" y="821.0" type="line" smooth="yes"/>
      <point x="148.10546875" y="977.0"/>
      <point x="192.10546875" y="1067.0"/>
      <point x="325.758789062" y="1067.0" type="curve" smooth="yes"/>
      <point x="454.543945312" y="1067.0"/>
      <point x="470.543945312" y="971.0"/>
      <point x="445.543945312" y="850.0" type="curve" smooth="yes"/>
      <point x="417.543945312" y="717.0"/>
      <point x="415.543945312" y="705.0"/>
      <point x="383.543945312" y="565.0" type="curve" smooth="yes"/>
      <point x="371.543945312" y="513.0"/>
      <point x="345.543945312" y="491.0"/>
      <point x="291.543945312" y="491.0" type="curve" smooth="yes"/>
      <point x="106.104492188" y="491.0" type="line"/>
      <point x="121.104492188" y="554.0" type="line"/>
      <point x="270.543945312" y="554.0" type="line"/>
      <point x="355.5625" y="933.0"/>
      <point x="369.56640625" y="994.0"/>
      <point x="315.416992188" y="994.0" type="curve" smooth="yes"/>
      <point x="272.666992188" y="994.0"/>
      <point x="252.092773438" y="940.0"/>
      <point x="229.100585938" y="841.0" type="curve" smooth="yes"/>
      <point x="83.1044921875" y="209.0" type="line" smooth="yes"/>
      <point x="59.0810546875" y="103.0"/>
      <point x="56.650390625" y="57.0"/>
      <point x="98.4501953125" y="57.0" type="curve" smooth="yes"/>
      <point x="141.200195312" y="57.0"/>
      <point x="171.584960938" y="138.0"/>
      <point x="200.543945312" y="260.0" type="curve" smooth="yes"/>
      <point x="232.543945312" y="395.0"/>
      <point x="250.543945312" y="430.0"/>
      <point x="294.543945312" y="430.0" type="curve" smooth="yes"/>
      <point x="298.543945312" y="430.0" type="line" smooth="yes"/>
      <point x="342.543945312" y="430.0"/>
      <point x="339.543945312" y="403.0"/>
    </contour>
  </outline>
</glyph>
<glyph name="f" format="2">
  <advance height="960" width="266"/>
  <unicode hex="0066"/>
  <outline>
    <contour>
      <point x="311.725585938" y="974.0" type="curve" smooth="yes"/>
      <point x="205.725585938" y="974.0" type="line" smooth="yes"/>
      <point x="161.725585938" y="974.0"/>
      <point x="145.725585938" y="985.0"/>
      <point x="145.725585938" y="1009.0" type="curve" smooth="yes"/>
      <point x="145.725585938" y="1015.0" type="line" smooth="yes"/>
      <point x="145.725585938" y="1039.0"/>
      <point x="161.725585938" y="1050.0"/>
      <point x="205.725585938" y="1050.0" type="curve" smooth="yes"/>
      <point x="311.725585938" y="1050.0" type="line" smooth="yes"/>
      <point x="355.725585938" y="1050.0"/>
      <point x="371.725585938" y="1039.0"/>
      <point x="371.725585938" y="1015.0" type="curve" smooth="yes"/>
      <point x="371.725585938" y="1009.0" type="line" smooth="yes"/>
      <point x="371.725585938" y="985.0"/>
      <point x="355.725585938" y="974.0"/>
    </contour>
    <contour>
      <point x="271.725585938" y="1334.0" type="line" smooth="yes"/>
      <point x="295.725585938" y="1440.0"/>
      <point x="329.725585938" y="1469.0"/>
      <point x="425.725585938" y="1464.0" type="curve" smooth="yes"/>
      <point x="460.725585938" y="1462.0"/>
      <point x="473.725585938" y="1450.0"/>
      <point x="467.725585938" y="1426.0" type="curve" smooth="yes"/>
      <point x="467.725585938" y="1425.0" type="line" smooth="yes"/>
      <point x="459.725585938" y="1392.0"/>
      <point x="441.725585938" y="1386.0"/>
      <point x="425.725585938" y="1388.0" type="curve" smooth="yes"/>
      <point x="404.725585938" y="1391.0"/>
      <point x="393.725585938" y="1378.0"/>
      <point x="379.725585938" y="1318.0" type="curve" smooth="yes"/>
      <point x="2.7255859375" y="-315.0" type="line" smooth="yes"/>
      <point x="-7.2744140625" y="-359.0"/>
      <point x="-25.2744140625" y="-385.0"/>
      <point x="-69.2744140625" y="-385.0" type="curve" smooth="yes"/>
      <point x="-70.2744140625" y="-385.0" type="line" smooth="yes"/>
      <point x="-114.274414062" y="-385.0"/>
      <point x="-119.274414062" y="-359.0"/>
      <point x="-109.274414062" y="-315.0" type="curve" smooth="yes"/>
    </contour>
  </outline>
</glyph>
<glyph name="h" format="2">
  <advance height="960" width="413"/>
  <unicode hex="0068"/>
  <anchor x="85.0" y="0.0" name="bottom"/>
  <anchor x="333.0" y="1450.0" name="top"/>
  <outline>
    <contour>
      <point x="337.002929688" y="1465.0" type="curve" smooth="yes"/>
      <point x="340.002929688" y="1465.0" type="line" smooth="yes"/>
      <point x="384.002929688" y="1465.0"/>
      <point x="390.002929688" y="1439.0"/>
      <point x="380.002929688" y="1395.0" type="curve" smooth="yes"/>
      <point x="70.9853515625" y="55.0" type="line" smooth="yes"/>
      <point x="60.9765625" y="11.0"/>
      <point x="42.0029296875" y="-15.0"/>
      <point x="-0.9970703125" y="-15.0" type="curve" smooth="yes"/>
      <point x="-3.9970703125" y="-15.0" type="line" smooth="yes"/>
      <point x="-47.9970703125" y="-15.0"/>
      <point x="-53.9970703125" y="11.0"/>
      <point x="-43.9970703125" y="55.0" type="curve" smooth="yes"/>
      <point x="265.002929688" y="1395.0" type="line" smooth="yes"/>
      <point x="275.002929688" y="1439.0"/>
      <point x="293.002929688" y="1465.0"/>
    </contour>
    <contour>
      <point x="243.002929688" y="877.0" type="line"/>
      <point x="269.002929688" y="988.0"/>
      <point x="298.002929688" y="1067.0"/>
      <point x="379.06640625" y="1067.0" type="curve" smooth="yes"/>
      <point x="456.78515625" y="1067.0"/>
      <point x="483.78515625" y="1008.0"/>
      <point x="458.78515625" y="901.0" type="curve" smooth="yes"/>
      <point x="263.78515625" y="55.0" type="line" smooth="yes"/>
      <point x="253.78515625" y="11.0"/>
      <point x="237.78515625" y="-15.0"/>
      <point x="193.78515625" y="-15.0" type="curve" smooth="yes"/>
      <point x="188.78515625" y="-15.0" type="line" smooth="yes"/>
      <point x="144.78515625" y="-15.0"/>
      <point x="140.78515625" y="11.0"/>
      <point x="150.78515625" y="55.0" type="curve" smooth="yes"/>
      <point x="344.81640625" y="898.0" type="line" smooth="yes"/>
      <point x="358.796875" y="957.0"/>
      <point x="359.177734375" y="990.0"/>
      <point x="328.778320312" y="990.0" type="curve" smooth="yes"/>
      <point x="294.578125" y="990.0"/>
      <point x="273.002929688" y="933.0"/>
      <point x="249.002929688" y="828.0" type="curve"/>
    </contour>
  </outline>
</glyph>
<glyph name="i" format="2">
  <advance height="960" width="224"/>
  <unicode hex="0069"/>
  <anchor x="-7.0" y="0.0" name="bottom"/>
  <anchor x="-7.0" y="0.0" name="ogonek"/>
  <outline>
    <contour>
      <point x="368.044921875" y="1346.0" type="curve" smooth="yes"/>
      <point x="357.044921875" y="1299.0" type="line" smooth="yes"/>
      <point x="342.044921875" y="1235.0"/>
      <point x="314.044921875" y="1204.0"/>
      <point x="280.044921875" y="1204.0" type="curve" smooth="yes"/>
      <point x="275.044921875" y="1204.0" type="line" smooth="yes"/>
      <point x="241.044921875" y="1204.0"/>
      <point x="227.044921875" y="1235.0"/>
      <point x="242.044921875" y="1299.0" type="curve" smooth="yes"/>
      <point x="253.044921875" y="1346.0" type="line" smooth="yes"/>
      <point x="268.044921875" y="1410.0"/>
      <point x="296.044921875" y="1441.0"/>
      <point x="330.044921875" y="1441.0" type="curve" smooth="yes"/>
      <point x="335.044921875" y="1441.0" type="line" smooth="yes"/>
      <point x="369.044921875" y="1441.0"/>
      <point x="383.044921875" y="1410.0"/>
    </contour>
    <contour>
      <point x="287.044921875" y="995.0" type="curve" smooth="yes"/>
      <point x="70.044921875" y="55.0" type="line" smooth="yes"/>
      <point x="60.044921875" y="11.0"/>
      <point x="43.044921875" y="-15.0"/>
      <point x="-0.955078125" y="-15.0" type="curve" smooth="yes"/>
      <point x="-4.955078125" y="-15.0" type="line" smooth="yes"/>
      <point x="-48.955078125" y="-15.0"/>
      <point x="-53.955078125" y="11.0"/>
      <point x="-43.955078125" y="55.0" type="curve" smooth="yes"/>
      <point x="173.044921875" y="995.0" type="line" smooth="yes"/>
      <point x="183.044921875" y="1039.0"/>
      <point x="200.044921875" y="1065.0"/>
      <point x="244.044921875" y="1065.0" type="curve" smooth="yes"/>
      <point x="248.044921875" y="1065.0" type="line" smooth="yes"/>
      <point x="292.044921875" y="1065.0"/>
      <point x="297.044921875" y="1039.0"/>
    </contour>
  </outline>
</glyph>
<glyph name="j" format="2">
  <advance height="960" width="224"/>
  <unicode hex="006A"/>
  <outline>
    <contour>
      <point x="49.0634765625" y="-59.0" type="line" smooth="yes"/>
      <point x="0.0634765625" y="-271.0"/>
      <point x="-46.9365234375" y="-371.0"/>
      <point x="-145.936523438" y="-371.0" type="curve" smooth="yes"/>
      <point x="-264.936523438" y="-371.0"/>
      <point x="-222.60546875" y="-199.206054688"/>
      <point x="-200.936523438" y="-137.0" type="curve" smooth="yes"/>
      <point x="-189.404296875" y="-103.893554688"/>
      <point x="-170.936523438" y="-85.0"/>
      <point x="-151.936523438" y="-85.0" type="curve" smooth="yes"/>
      <point x="-149.936523438" y="-85.0" type="line" smooth="yes"/>
      <point x="-131.936523438" y="-85.0"/>
      <point x="-122.872070312" y="-105.149414062"/>
      <point x="-134.936523438" y="-137.0" type="curve" smooth="yes"/>
      <point x="-157.84765625" y="-197.484375"/>
      <point x="-169.936523438" y="-284.0"/>
      <point x="-149.936523438" y="-284.0" type="curve" smooth="yes"/>
      <point x="-131.936523438" y="-284.0"/>
      <point x="-93.9365234375" y="-185.0"/>
      <point x="-64.9365234375" y="-60.0" type="curve" smooth="yes"/>
      <point x="179.063476562" y="996.0" type="line" smooth="yes"/>
      <point x="189.473632812" y="1041.05664062"/>
      <point x="214.063476562" y="1065.0"/>
      <point x="251.063476562" y="1065.0" type="curve" smooth="yes"/>
      <point x="253.063476562" y="1065.0" type="line" smooth="yes"/>
      <point x="280.063476562" y="1065.0"/>
      <point x="303.483398438" y="1041.05273438"/>
      <point x="293.063476562" y="996.0" type="curve" smooth="yes"/>
    </contour>
    <contour>
      <point x="374.063476562" y="1346.0" type="curve" smooth="yes"/>
      <point x="363.063476562" y="1299.0" type="line" smooth="yes"/>
      <point x="348.063476562" y="1235.0"/>
      <point x="320.063476562" y="1204.0"/>
      <point x="286.063476562" y="1204.0" type="curve" smooth="yes"/>
      <point x="281.063476562" y="1204.0" type="line" smooth="yes"/>
      <point x="247.063476562" y="1204.0"/>
      <point x="233.063476562" y="1235.0"/>
      <point x="248.063476562" y="1299.0" type="curve" smooth="yes"/>
      <point x="259.063476562" y="1346.0" type="line" smooth="yes"/>
      <point x="274.063476562" y="1410.0"/>
      <point x="302.063476562" y="1441.0"/>
      <point x="336.063476562" y="1441.0" type="curve" smooth="yes"/>
      <point x="341.063476562" y="1441.0" type="line" smooth="yes"/>
      <point x="375.063476562" y="1441.0"/>
      <point x="389.063476562" y="1410.0"/>
    </contour>
  </outline>
</glyph>
<glyph name="k" format="2">
  <advance height="960" width="404"/>
  <unicode hex="006B"/>
  <outline>
    <contour>
      <point x="336.002929688" y="1465.0" type="curve" smooth="yes"/>
      <point x="340.002929688" y="1465.0" type="line" smooth="yes"/>
      <point x="384.002929688" y="1465.0"/>
      <point x="389.002929688" y="1439.0"/>
      <point x="379.002929688" y="1395.0" type="curve" smooth="yes"/>
      <point x="70.0029296875" y="55.0" type="line" smooth="yes"/>
      <point x="59.9951171875" y="11.0"/>
      <point x="42.0029296875" y="-15.0"/>
      <point x="-0.9970703125" y="-15.0" type="curve" smooth="yes"/>
      <point x="-4.9970703125" y="-15.0" type="line" smooth="yes"/>
      <point x="-48.9970703125" y="-15.0"/>
      <point x="-53.9970703125" y="11.0"/>
      <point x="-43.9970703125" y="55.0" type="curve" smooth="yes"/>
      <point x="265.002929688" y="1395.0" type="line" smooth="yes"/>
      <point x="275.002929688" y="1439.0"/>
      <point x="292.002929688" y="1465.0"/>
    </contour>
    <contour>
      <point x="111.002929688" y="417.0" type="line"/>
      <point x="391.50390625" y="995.0" type="line" smooth="yes"/>
      <point x="411.103515625" y="1036.0"/>
      <point x="424.103515625" y="1065.0"/>
      <point x="468.103515625" y="1065.0" type="curve" smooth="yes"/>
      <point x="471.103515625" y="1065.0" type="line" smooth="yes"/>
      <point x="515.103515625" y="1065.0"/>
      <point x="519.103515625" y="1036.0"/>
      <point x="496.103515625" y="995.0" type="curve" smooth="yes"/>
      <point x="127.002929688" y="352.0" type="line"/>
    </contour>
    <contour>
      <point x="228.236328125" y="595.0" type="line"/>
      <point x="312.306640625" y="718.0" type="line"/>
      <point x="302.103515625" y="55.0" type="line" smooth="yes"/>
      <point x="301.103515625" y="13.0"/>
      <point x="279.103515625" y="-15.0"/>
      <point x="236.103515625" y="-15.0" type="curve" smooth="yes"/>
      <point x="233.103515625" y="-15.0" type="line" smooth="yes"/>
      <point x="188.103515625" y="-15.0"/>
      <point x="179.103515625" y="12.0"/>
      <point x="182.103515625" y="55.0" type="curve" smooth="yes"/>
    </contour>
  </outline>
</glyph>
<glyph name="l" format="2">
  <advance height="960" width="224"/>
  <unicode hex="006C"/>
  <outline>
    <contour>
      <point x="336.002929688" y="1465.0" type="curve" smooth="yes"/>
      <point x="340.002929688" y="1465.0" type="line" smooth="yes"/>
      <point x="384.002929688" y="1465.0"/>
      <point x="389.002929688" y="1439.0"/>
      <point x="379.002929688" y="1395.0" type="curve" smooth="yes"/>
      <point x="70.0029296875" y="55.0" type="line" smooth="yes"/>
      <point x="60.0029296875" y="11.0"/>
      <point x="42.0029296875" y="-15.0"/>
      <point x="-0.9970703125" y="-15.0" type="curve" smooth="yes"/>
      <point x="-4.9970703125" y="-15.0" type="line" smooth="yes"/>
      <point x="-48.9970703125" y="-15.0"/>
      <point x="-53.9970703125" y="11.0"/>
      <point x="-43.9970703125" y="55.0" type="curve" smooth="yes"/>
      <point x="265.002929688" y="1395.0" type="line" smooth="yes"/>
      <point x="275.002929688" y="1439.0"/>
      <point x="292.002929688" y="1465.0"/>
    </contour>
  </outline>
</glyph>
<glyph name="m" format="2">
  <advance height="960" width="549"/>
  <unicode hex="006D"/>
  <outline>
    <contour>
      <point x="394.0859375" y="877.0" type="line"/>
      <point x="420.0859375" y="988.0"/>
      <point x="452.0859375" y="1067.0"/>
      <point x="534.736328125" y="1067.0" type="curve" smooth="yes"/>
      <point x="612.736328125" y="1067.0"/>
      <point x="627.736328125" y="1008.0"/>
      <point x="602.736328125" y="901.0" type="curve" smooth="yes"/>
      <point x="407.736328125" y="55.0" type="line" smooth="yes"/>
      <point x="397.736328125" y="11.0"/>
      <point x="379.736328125" y="-15.0"/>
      <point x="335.736328125" y="-15.0" type="curve" smooth="yes"/>
      <point x="333.736328125" y="-15.0" type="line" smooth="yes"/>
      <point x="289.736328125" y="-15.0"/>
      <point x="284.736328125" y="11.0"/>
      <point x="294.736328125" y="55.0" type="curve" smooth="yes"/>
      <point x="489.751953125" y="901.0" type="line" smooth="yes"/>
      <point x="502.748046875" y="957.0"/>
      <point x="503.12890625" y="990.0"/>
      <point x="481.279296875" y="990.0" type="curve" smooth="yes"/>
      <point x="459.428710938" y="990.0"/>
      <point x="434.0859375" y="936.0"/>
      <point x="410.0859375" y="831.0" type="curve"/>
    </contour>
    <contour>
      <point x="230.435546875" y="1065.0" type="curve" smooth="yes"/>
      <point x="238.435546875" y="1065.0" type="line" smooth="yes"/>
      <point x="282.435546875" y="1065.0"/>
      <point x="282.435546875" y="1039.0"/>
      <point x="272.435546875" y="995.0" type="curve" smooth="yes"/>
      <point x="259.435546875" y="941.0" type="line"/>
      <point x="261.435546875" y="927.0" type="line"/>
      <point x="60.435546875" y="55.0" type="line" smooth="yes"/>
      <point x="50.427734375" y="11.0"/>
      <point x="33.435546875" y="-15.0"/>
      <point x="-10.564453125" y="-15.0" type="curve" smooth="yes"/>
      <point x="-13.564453125" y="-15.0" type="line" smooth="yes"/>
      <point x="-57.564453125" y="-15.0"/>
      <point x="-62.564453125" y="11.0"/>
      <point x="-52.564453125" y="55.0" type="curve" smooth="yes"/>
      <point x="164.435546875" y="995.0" type="line" smooth="yes"/>
      <point x="174.435546875" y="1039.0"/>
      <point x="186.435546875" y="1065.0"/>
    </contour>
    <contour>
      <point x="233.435546875" y="877.0" type="line"/>
      <point x="259.435546875" y="988.0"/>
      <point x="284.435546875" y="1067.0"/>
      <point x="361.0859375" y="1067.0" type="curve" smooth="yes"/>
      <point x="450.0859375" y="1067.0"/>
      <point x="451.0859375" y="1008.0"/>
      <point x="426.0859375" y="901.0" type="curve" smooth="yes"/>
      <point x="231.0859375" y="55.0" type="line" smooth="yes"/>
      <point x="221.078125" y="11.0"/>
      <point x="199.0859375" y="-15.0"/>
      <point x="165.0859375" y="-15.0" type="curve" smooth="yes"/>
      <point x="158.0859375" y="-15.0" type="line" smooth="yes"/>
      <point x="124.0859375" y="-15.0"/>
      <point x="114.0859375" y="11.0"/>
      <point x="124.0859375" y="55.0" type="curve" smooth="yes"/>
      <point x="319.1015625" y="901.0" type="line" smooth="yes"/>
      <point x="332.09765625" y="957.0"/>
      <point x="330.579101562" y="990.0"/>
      <point x="309.678710938" y="990.0" type="curve" smooth="yes"/>
      <point x="287.829101562" y="990.0"/>
      <point x="263.435546875" y="936.0"/>
      <point x="239.435546875" y="831.0" type="curve"/>
    </contour>
  </outline>
</glyph>
<glyph name="n" format="2">
  <advance height="960" width="396"/>
  <unicode hex="006E"/>
  <anchor x="85.0" y="0.0" name="bottom"/>
  <anchor x="327.0" y="1050.0" name="top"/>
  <outline>
    <contour>
      <point x="231.435546875" y="1065.0" type="curve" smooth="yes"/>
      <point x="240.435546875" y="1065.0" type="line" smooth="yes"/>
      <point x="284.435546875" y="1065.0"/>
      <point x="283.435546875" y="1039.0"/>
      <point x="273.435546875" y="995.0" type="curve" smooth="yes"/>
      <point x="259.435546875" y="934.0" type="line"/>
      <point x="262.432617188" y="921.0" type="line"/>
      <point x="62.435546875" y="55.0" type="line" smooth="yes"/>
      <point x="52.427734375" y="11.0"/>
      <point x="34.435546875" y="-15.0"/>
      <point x="-9.564453125" y="-15.0" type="curve" smooth="yes"/>
      <point x="-12.564453125" y="-15.0" type="line" smooth="yes"/>
      <point x="-56.564453125" y="-15.0"/>
      <point x="-62.564453125" y="11.0"/>
      <point x="-52.564453125" y="55.0" type="curve" smooth="yes"/>
      <point x="164.435546875" y="995.0" type="line" smooth="yes"/>
      <point x="174.435546875" y="1039.0"/>
      <point x="187.435546875" y="1065.0"/>
    </contour>
    <contour>
      <point x="234.435546875" y="877.0" type="line"/>
      <point x="260.435546875" y="988.0"/>
      <point x="289.435546875" y="1067.0"/>
      <point x="370.517578125" y="1067.0" type="curve" smooth="yes"/>
      <point x="448.235351562" y="1067.0"/>
      <point x="475.235351562" y="1008.0"/>
      <point x="450.235351562" y="901.0" type="curve" smooth="yes"/>
      <point x="255.235351562" y="55.0" type="line" smooth="yes"/>
      <point x="245.235351562" y="11.0"/>
      <point x="229.235351562" y="-15.0"/>
      <point x="185.235351562" y="-15.0" type="curve" smooth="yes"/>
      <point x="180.235351562" y="-15.0" type="line" smooth="yes"/>
      <point x="136.235351562" y="-15.0"/>
      <point x="132.235351562" y="11.0"/>
      <point x="142.235351562" y="55.0" type="curve" smooth="yes"/>
      <point x="336.266601562" y="898.0" type="line" smooth="yes"/>
      <point x="350.248046875" y="957.0"/>
      <point x="350.62890625" y="990.0"/>
      <point x="320.228515625" y="990.0" type="curve" smooth="yes"/>
      <point x="286.029296875" y="990.0"/>
      <point x="264.435546875" y="933.0"/>
      <point x="240.435546875" y="828.0" type="curve"/>
    </contour>
  </outline>
</glyph>
<glyph name="o" format="2">
  <advance height="960" width="404"/>
  <unicode hex="006F"/>
  <anchor x="87.0" y="0.0" name="bottom"/>
  <anchor x="329.0" y="1050.0" name="top"/>
  <outline>
    <contour>
      <point x="-24.89453125" y="230.0" type="curve" smooth="yes"/>
      <point x="112.10546875" y="821.0" type="line" smooth="yes"/>
      <point x="147.10546875" y="972.0"/>
      <point x="193.10546875" y="1067.0"/>
      <point x="326.809570312" y="1067.0" type="curve" smooth="yes"/>
      <point x="459.5546875" y="1067.0"/>
      <point x="484.5546875" y="972.0"/>
      <point x="449.5546875" y="821.0" type="curve" smooth="yes"/>
      <point x="312.5546875" y="230.0" type="line" smooth="yes"/>
      <point x="277.5546875" y="79.0"/>
      <point x="229.5546875" y="-18.0"/>
      <point x="95.78515625" y="-18.0" type="curve" smooth="yes"/>
      <point x="-36.89453125" y="-18.0"/>
      <point x="-59.89453125" y="79.0"/>
    </contour>
    <contour>
      <point x="85.10546875" y="209.0" type="line" smooth="yes"/>
      <point x="64.1044921875" y="118.0"/>
      <point x="55.80078125" y="57.0"/>
      <point x="103.30078125" y="57.0" type="curve" smooth="yes"/>
      <point x="150.80078125" y="57.0"/>
      <point x="169.5546875" y="118.0"/>
      <point x="190.5546875" y="209.0" type="curve" smooth="yes"/>
      <point x="336.5546875" y="841.0" type="line" smooth="yes"/>
      <point x="357.5546875" y="932.0"/>
      <point x="366.81640625" y="994.0"/>
      <point x="319.31640625" y="994.0" type="curve" smooth="yes"/>
      <point x="271.81640625" y="994.0"/>
      <point x="252.100585938" y="932.0"/>
      <point x="231.100585938" y="841.0" type="curve" smooth="yes"/>
    </contour>
  </outline>
</glyph>
<glyph name="p" format="2">
  <advance height="960" width="426"/>
  <unicode hex="0070"/>
  <outline>
    <contour>
      <point x="218.435546875" y="847.0" type="line"/>
      <point x="251.435546875" y="992.0"/>
      <point x="302.134765625" y="1068.0"/>
      <point x="379.084960938" y="1068.0" type="curve" smooth="yes"/>
      <point x="464.454101562" y="1068.0"/>
      <point x="506.454101562" y="996.0"/>
      <point x="467.454101562" y="826.0" type="curve" smooth="yes"/>
      <point x="327.454101562" y="223.0" type="line" smooth="yes"/>
      <point x="288.454101562" y="53.0"/>
      <point x="233.454101562" y="-17.0"/>
      <point x="147.110351562" y="-17.0" type="curve" smooth="yes"/>
      <point x="70.16015625" y="-17.0"/>
      <point x="36.435546875" y="59.0"/>
      <point x="69.435546875" y="204.0" type="curve"/>
      <point x="96.435546875" y="204.0" type="line"/>
      <point x="73.435546875" y="105.0"/>
      <point x="67.318359375" y="66.0"/>
      <point x="118.618164062" y="66.0" type="curve" smooth="yes"/>
      <point x="166.118164062" y="66.0"/>
      <point x="189.4609375" y="113.0"/>
      <point x="212.454101562" y="212.0" type="curve" smooth="yes"/>
      <point x="357.454101562" y="839.0" type="line" smooth="yes"/>
      <point x="380.454101562" y="938.0"/>
      <point x="379.087890625" y="986.0"/>
      <point x="331.587890625" y="986.0" type="curve" smooth="yes"/>
      <point x="280.288085938" y="986.0"/>
      <point x="267.435546875" y="945.0"/>
      <point x="244.435546875" y="846.0" type="curve"/>
    </contour>
    <contour>
      <point x="-135.564453125" y="-305.0" type="curve" smooth="yes"/>
      <point x="164.435546875" y="995.0" type="line" smooth="yes"/>
      <point x="174.435546875" y="1039.0"/>
      <point x="192.435546875" y="1065.0"/>
      <point x="226.435546875" y="1065.0" type="curve" smooth="yes"/>
      <point x="227.435546875" y="1065.0" type="line" smooth="yes"/>
      <point x="261.435546875" y="1065.0"/>
      <point x="281.435546875" y="1039.0"/>
      <point x="271.435546875" y="995.0" type="curve" smooth="yes"/>
      <point x="258.435546875" y="940.0" type="line"/>
      <point x="262.435546875" y="924.0" type="line"/>
      <point x="-20.564453125" y="-305.0" type="line" smooth="yes"/>
      <point x="-30.572265625" y="-349.0"/>
      <point x="-59.564453125" y="-375.0"/>
      <point x="-93.564453125" y="-375.0" type="curve" smooth="yes"/>
      <point x="-96.564453125" y="-375.0" type="line" smooth="yes"/>
      <point x="-130.564453125" y="-375.0"/>
      <point x="-145.564453125" y="-349.0"/>
    </contour>
  </outline>
</glyph>
<glyph name="q" format="2">
  <advance height="960" width="426"/>
  <unicode hex="0071"/>
  <outline>
    <contour>
      <point x="125.881835938" y="-375.0" type="curve" smooth="yes"/>
      <point x="121.881835938" y="-375.0" type="line" smooth="yes"/>
      <point x="77.8818359375" y="-375.0"/>
      <point x="73.8818359375" y="-349.0"/>
      <point x="83.8818359375" y="-305.0" type="curve" smooth="yes"/>
      <point x="373.881835938" y="953.0" type="line"/>
      <point x="422.881835938" y="1021.0" type="line" smooth="yes"/>
      <point x="446.881835938" y="1055.0"/>
      <point x="461.881835938" y="1073.0"/>
      <point x="486.881835938" y="1073.0" type="curve" smooth="yes"/>
      <point x="487.881835938" y="1073.0" type="line" smooth="yes"/>
      <point x="502.881835938" y="1073.0"/>
      <point x="513.881835938" y="1065.0"/>
      <point x="507.881835938" y="1038.0" type="curve" smooth="yes"/>
      <point x="197.881835938" y="-305.0" type="line" smooth="yes"/>
      <point x="187.881835938" y="-349.0"/>
      <point x="169.881835938" y="-375.0"/>
    </contour>
    <contour>
      <point x="226.881835938" y="205.0" type="line"/>
      <point x="193.881835938" y="60.0"/>
      <point x="153.881835938" y="-17.0"/>
      <point x="71.98046875" y="-17.0" type="curve" smooth="yes"/>
      <point x="-16.076171875" y="-17.0"/>
      <point x="-62.076171875" y="53.0"/>
      <point x="-23.076171875" y="223.0" type="curve" smooth="yes"/>
      <point x="116.923828125" y="826.0" type="line" smooth="yes"/>
      <point x="153.923828125" y="986.0"/>
      <point x="203.923828125" y="1068.0"/>
      <point x="299.205078125" y="1068.0" type="curve" smooth="yes"/>
      <point x="386.60546875" y="1068.0"/>
      <point x="434.881835938" y="996.0"/>
      <point x="404.881835938" y="868.0" type="curve"/>
      <point x="350.896484375" y="855.0" type="line"/>
      <point x="373.912109375" y="956.0"/>
      <point x="365.708984375" y="986.0"/>
      <point x="326.758789062" y="986.0" type="curve" smooth="yes"/>
      <point x="284.008789062" y="986.0"/>
      <point x="255.904296875" y="938.0"/>
      <point x="232.912109375" y="839.0" type="curve" smooth="yes"/>
      <point x="87.923828125" y="212.0" type="line" smooth="yes"/>
      <point x="64.923828125" y="113.0"/>
      <point x="71.0390625" y="66.0"/>
      <point x="113.7890625" y="66.0" type="curve" smooth="yes"/>
      <point x="161.2890625" y="66.0"/>
      <point x="177.888671875" y="105.0"/>
      <point x="200.881835938" y="204.0" type="curve"/>
    </contour>
  </outline>
</glyph>
<glyph name="r" format="2">
  <advance height="960" width="357"/>
  <unicode hex="0072"/>
  <anchor x="7.0" y="0.0" name="bottom"/>
  <anchor x="325.0" y="1050.0" name="top"/>
  <outline>
    <contour>
      <point x="221.530273438" y="713.0" type="curve"/>
      <point x="214.935546875" y="770.0" type="line"/>
      <point x="251.935546875" y="930.0"/>
      <point x="294.885742188" y="1060.0"/>
      <point x="383.526367188" y="1060.0" type="curve" smooth="yes"/>
      <point x="472.526367188" y="1060.0"/>
      <point x="498.149414062" y="936.552734375"/>
      <point x="352.526367188" y="704.0" type="curve" smooth="yes"/>
      <point x="333.208007812" y="673.149414062"/>
      <point x="319.526367188" y="648.0"/>
      <point x="296.526367188" y="648.0" type="curve" smooth="yes"/>
      <point x="293.526367188" y="648.0" type="line" smooth="yes"/>
      <point x="267.526367188" y="648.0"/>
      <point x="262.7890625" y="670.797851562"/>
      <point x="276.526367188" y="704.0" type="curve" smooth="yes"/>
      <point x="361.350585938" y="904.336914062"/>
      <point x="365.526367188" y="977.0"/>
      <point x="338.578125" y="977.0" type="curve" smooth="yes"/>
      <point x="311.978515625" y="977.0"/>
      <point x="254.5546875" y="858.0"/>
    </contour>
    <contour>
      <point x="239.935546875" y="1065.0" type="curve" smooth="yes"/>
      <point x="244.935546875" y="1065.0" type="line" smooth="yes"/>
      <point x="288.935546875" y="1065.0"/>
      <point x="288.935546875" y="1039.0"/>
      <point x="278.935546875" y="995.0" type="curve" smooth="yes"/>
      <point x="226.926757812" y="769.0" type="line"/>
      <point x="233.51953125" y="764.0" type="line"/>
      <point x="70.4853515625" y="55.0" type="line" smooth="yes"/>
      <point x="60.4775390625" y="11.0"/>
      <point x="43.935546875" y="-15.0"/>
      <point x="-0.064453125" y="-15.0" type="curve" smooth="yes"/>
      <point x="-4.064453125" y="-15.0" type="line" smooth="yes"/>
      <point x="-48.064453125" y="-15.0"/>
      <point x="-53.064453125" y="11.0"/>
      <point x="-43.064453125" y="55.0" type="curve" smooth="yes"/>
      <point x="173.935546875" y="995.0" type="line" smooth="yes"/>
      <point x="183.935546875" y="1039.0"/>
      <point x="195.935546875" y="1065.0"/>
    </contour>
  </outline>
</glyph>
<glyph name="s" format="2">
  <advance height="960" width="356"/>
  <unicode hex="0073"/>
  <anchor x="74.0" y="0.0" name="bottom"/>
  <anchor x="302.0" y="1050.0" name="top"/>
  <outline>
    <contour>
      <point x="91.517578125" y="414.0" type="curve" smooth="yes"/>
      <point x="93.517578125" y="414.0" type="line" smooth="yes"/>
      <point x="117.517578125" y="414.0"/>
      <point x="135.578125" y="391.575195312"/>
      <point x="117.287109375" y="364.0" type="curve" smooth="yes"/>
      <point x="98.5732421875" y="335.787109375"/>
      <point x="70.517578125" y="301.0"/>
      <point x="54.517578125" y="228.0" type="curve" smooth="yes"/>
      <point x="28.435546875" y="106.0"/>
      <point x="31.0087890625" y="70.0"/>
      <point x="72.3857421875" y="70.0" type="curve" smooth="yes"/>
      <point x="106.064453125" y="70.0"/>
      <point x="139.249023438" y="123.0"/>
      <point x="161.249023438" y="219.0" type="curve" smooth="yes"/>
      <point x="210.26953125" y="433.0"/>
      <point x="52.517578125" y="548.0"/>
      <point x="120.517578125" y="842.0" type="curve" smooth="yes"/>
      <point x="162.517578125" y="1024.0"/>
      <point x="224.517578125" y="1067.0"/>
      <point x="308.788085938" y="1067.0" type="curve" smooth="yes"/>
      <point x="395.249023438" y="1067.0"/>
      <point x="433.249023438" y="998.0"/>
      <point x="400.249023438" y="846.0" type="curve" smooth="yes"/>
      <point x="388.249023438" y="789.0"/>
      <point x="372.896484375" y="755.852539062"/>
      <point x="352.249023438" y="706.0" type="curve" smooth="yes"/>
      <point x="334.927734375" y="664.180664062"/>
      <point x="312.249023438" y="646.0"/>
      <point x="288.249023438" y="646.0" type="curve" smooth="yes"/>
      <point x="284.249023438" y="646.0" type="line" smooth="yes"/>
      <point x="260.249023438" y="646.0"/>
      <point x="246.455078125" y="666.313476562"/>
      <point x="265.682617188" y="707.0" type="curve" smooth="yes"/>
      <point x="285.791015625" y="749.329101562"/>
      <point x="296.249023438" y="766.0"/>
      <point x="310.249023438" y="827.0" type="curve" smooth="yes"/>
      <point x="336.249023438" y="942.0"/>
      <point x="336.306640625" y="982.0"/>
      <point x="301.157226562" y="982.0" type="curve" smooth="yes"/>
      <point x="275.506835938" y="982.0"/>
      <point x="249.510742188" y="952.0"/>
      <point x="223.517578125" y="840.0" type="curve" smooth="yes"/>
      <point x="164.517578125" y="586.0"/>
      <point x="326.249023438" y="472.0"/>
      <point x="270.249023438" y="228.0" type="curve" smooth="yes"/>
      <point x="234.249023438" y="72.0"/>
      <point x="182.249023438" y="-18.0"/>
      <point x="77.392578125" y="-18.0" type="curve" smooth="yes"/>
      <point x="-23.482421875" y="-18.0"/>
      <point x="-71.482421875" y="39.0"/>
      <point x="-39.482421875" y="200.0" type="curve" smooth="yes"/>
      <point x="-22.482421875" y="283.0"/>
      <point x="4.318359375" y="323.359375"/>
      <point x="30.517578125" y="365.0" type="curve" smooth="yes"/>
      <point x="48.255859375" y="393.193359375"/>
      <point x="66.517578125" y="414.0"/>
    </contour>
  </outline>
</glyph>
<glyph name="t" format="2">
  <advance height="960" width="280"/>
  <unicode hex="0074"/>
  <anchor x="47.0" y="0.0" name="bottom"/>
  <outline>
    <contour>
      <point x="323.725585938" y="974.0" type="curve" smooth="yes"/>
      <point x="205.725585938" y="974.0" type="line" smooth="yes"/>
      <point x="161.725585938" y="974.0"/>
      <point x="145.725585938" y="985.0"/>
      <point x="145.725585938" y="1009.0" type="curve" smooth="yes"/>
      <point x="145.725585938" y="1015.0" type="line" smooth="yes"/>
      <point x="145.725585938" y="1039.0"/>
      <point x="161.725585938" y="1050.0"/>
      <point x="205.725585938" y="1050.0" type="curve" smooth="yes"/>
      <point x="323.725585938" y="1050.0" type="line" smooth="yes"/>
      <point x="367.725585938" y="1050.0"/>
      <point x="383.725585938" y="1039.0"/>
      <point x="383.725585938" y="1015.0" type="curve" smooth="yes"/>
      <point x="383.725585938" y="1009.0" type="line" smooth="yes"/>
      <point x="383.725585938" y="985.0"/>
      <point x="367.725585938" y="974.0"/>
    </contour>
    <contour>
      <point x="161.725585938" y="42.0" type="curve" smooth="yes"/>
      <point x="160.725585938" y="40.0" type="line" smooth="yes"/>
      <point x="152.725585938" y="6.0"/>
      <point x="135.725585938" y="-3.0"/>
      <point x="81.7255859375" y="-5.0" type="curve" smooth="yes"/>
      <point x="-0.2744140625" y="-8.0"/>
      <point x="-27.2744140625" y="22.0"/>
      <point x="-2.2744140625" y="132.0" type="curve" smooth="yes"/>
      <point x="278.725585938" y="1345.0" type="line" smooth="yes"/>
      <point x="288.725585938" y="1389.0"/>
      <point x="305.725585938" y="1415.0"/>
      <point x="349.725585938" y="1415.0" type="curve" smooth="yes"/>
      <point x="350.725585938" y="1415.0" type="line" smooth="yes"/>
      <point x="394.725585938" y="1415.0"/>
      <point x="399.725585938" y="1389.0"/>
      <point x="389.725585938" y="1345.0" type="curve" smooth="yes"/>
      <point x="111.725585938" y="145.0" type="line" smooth="yes"/>
      <point x="96.7255859375" y="82.0"/>
      <point x="110.725585938" y="74.0"/>
      <point x="129.725585938" y="74.0" type="curve" smooth="yes"/>
      <point x="151.725585938" y="74.0"/>
      <point x="169.725585938" y="75.0"/>
    </contour>
  </outline>
</glyph>
<glyph name="u" format="2">
  <advance height="960" width="396"/>
  <unicode hex="0075"/>
  <anchor x="81.0" y="0.0" name="bottom"/>
  <anchor x="174.0" y="0.0" name="ogonek"/>
  <anchor x="323.0" y="1050.0" name="top"/>
  <outline>
    <contour>
      <point x="183.504882812" y="-15.0" type="curve" smooth="yes"/>
      <point x="174.504882812" y="-15.0" type="line" smooth="yes"/>
      <point x="130.504882812" y="-15.0"/>
      <point x="131.504882812" y="11.0"/>
      <point x="141.504882812" y="55.0" type="curve" smooth="yes"/>
      <point x="155.504882812" y="116.0" type="line"/>
      <point x="152.504882812" y="129.0" type="line"/>
      <point x="352.500976562" y="995.0" type="line" smooth="yes"/>
      <point x="362.508789062" y="1039.0"/>
      <point x="380.500976562" y="1065.0"/>
      <point x="424.500976562" y="1065.0" type="curve" smooth="yes"/>
      <point x="427.500976562" y="1065.0" type="line" smooth="yes"/>
      <point x="471.500976562" y="1065.0"/>
      <point x="477.500976562" y="1039.0"/>
      <point x="467.500976562" y="995.0" type="curve" smooth="yes"/>
      <point x="250.504882812" y="55.0" type="line" smooth="yes"/>
      <point x="240.504882812" y="11.0"/>
      <point x="227.504882812" y="-15.0"/>
    </contour>
    <contour>
      <point x="179.504882812" y="173.0" type="line"/>
      <point x="153.504882812" y="62.0"/>
      <point x="114.719726562" y="-17.0"/>
      <point x="33.7197265625" y="-17.0" type="curve" smooth="yes"/>
      <point x="-44.2802734375" y="-17.0"/>
      <point x="-61.2802734375" y="42.0"/>
      <point x="-36.2802734375" y="149.0" type="curve" smooth="yes"/>
      <point x="159.719726562" y="995.0" type="line" smooth="yes"/>
      <point x="169.719726562" y="1039.0"/>
      <point x="185.719726562" y="1065.0"/>
      <point x="229.719726562" y="1065.0" type="curve" smooth="yes"/>
      <point x="234.719726562" y="1065.0" type="line" smooth="yes"/>
      <point x="278.719726562" y="1065.0"/>
      <point x="282.708984375" y="1039.0"/>
      <point x="272.701171875" y="995.0" type="curve" smooth="yes"/>
      <point x="77.7197265625" y="152.0" type="line" smooth="yes"/>
      <point x="63.7197265625" y="93.0"/>
      <point x="64.30859375" y="60.0"/>
      <point x="94.7080078125" y="60.0" type="curve" smooth="yes"/>
      <point x="128.908203125" y="60.0"/>
      <point x="149.515625" y="117.0"/>
      <point x="173.528320312" y="222.0" type="curve"/>
    </contour>
  </outline>
</glyph>
<glyph name="v" format="2">
  <advance height="960" width="376"/>
  <unicode hex="0076"/>
  <outline>
    <contour>
      <point x="142.186523438" y="240.0" type="line"/>
      <point x="385.186523438" y="995.0" type="line" smooth="yes"/>
      <point x="399.186523438" y="1039.0"/>
      <point x="407.186523438" y="1065.0"/>
      <point x="451.186523438" y="1065.0" type="curve" smooth="yes"/>
      <point x="454.186523438" y="1065.0" type="line" smooth="yes"/>
      <point x="488.186523438" y="1065.0"/>
      <point x="494.186523438" y="1039.0"/>
      <point x="479.186523438" y="995.0" type="curve" smooth="yes"/>
      <point x="156.186523438" y="55.0" type="line" smooth="yes"/>
      <point x="141.186523438" y="11.0"/>
      <point x="117.186523438" y="-15.0"/>
      <point x="73.1865234375" y="-15.0" type="curve" smooth="yes"/>
      <point x="70.1865234375" y="-15.0" type="line" smooth="yes"/>
      <point x="26.1865234375" y="-15.0"/>
      <point x="14.1865234375" y="11.0"/>
      <point x="19.1865234375" y="55.0" type="curve" smooth="yes"/>
      <point x="132.186523438" y="995.0" type="line" smooth="yes"/>
      <point x="137.186523438" y="1039.0"/>
      <point x="157.186523438" y="1065.0"/>
      <point x="201.186523438" y="1065.0" type="curve" smooth="yes"/>
      <point x="207.186523438" y="1065.0" type="line" smooth="yes"/>
      <point x="251.186523438" y="1065.0"/>
      <point x="254.186523438" y="1039.0"/>
      <point x="248.186523438" y="995.0" type="curve" smooth="yes"/>
    </contour>
  </outline>
</glyph>
<glyph name="w" format="2">
  <advance height="960" width="575"/>
  <unicode hex="0077"/>
  <outline>
    <contour>
      <point x="364.860351562" y="262.0" type="line"/>
      <point x="599.860351562" y="995.0" type="line" smooth="yes"/>
      <point x="613.860351562" y="1039.0"/>
      <point x="627.860351562" y="1065.0"/>
      <point x="660.860351562" y="1065.0" type="curve" smooth="yes"/>
      <point x="662.860351562" y="1065.0" type="line" smooth="yes"/>
      <point x="696.860351562" y="1065.0"/>
      <point x="692.860351562" y="1038.0"/>
      <point x="678.860351562" y="995.0" type="curve" smooth="yes"/>
      <point x="368.860351562" y="55.0" type="line" smooth="yes"/>
      <point x="354.860351562" y="12.0"/>
      <point x="338.860351562" y="-15.0"/>
      <point x="294.860351562" y="-15.0" type="curve" smooth="yes"/>
      <point x="292.860351562" y="-15.0" type="line" smooth="yes"/>
      <point x="249.860351562" y="-15.0"/>
      <point x="241.860351562" y="11.0"/>
      <point x="247.860351562" y="55.0" type="curve" smooth="yes"/>
      <point x="350.860351562" y="752.0" type="line"/>
      <point x="130.860351562" y="55.0" type="line" smooth="yes"/>
      <point x="116.860351562" y="11.0"/>
      <point x="103.860351562" y="-15.0"/>
      <point x="59.8603515625" y="-15.0" type="curve" smooth="yes"/>
      <point x="53.8603515625" y="-15.0" type="line" smooth="yes"/>
      <point x="10.8603515625" y="-15.0"/>
      <point x="7.8603515625" y="11.0"/>
      <point x="13.8603515625" y="55.0" type="curve" smooth="yes"/>
      <point x="137.860351562" y="995.0" type="line" smooth="yes"/>
      <point x="143.860351562" y="1039.0"/>
      <point x="172.860351562" y="1065.0"/>
      <point x="206.860351562" y="1065.0" type="curve" smooth="yes"/>
      <point x="209.860351562" y="1065.0" type="line" smooth="yes"/>
      <point x="242.860351562" y="1065.0"/>
      <point x="255.860351562" y="1039.0"/>
      <point x="248.860351562" y="995.0" type="curve" smooth="yes"/>
      <point x="133.860351562" y="263.0" type="line"/>
      <point x="362.860351562" y="995.0" type="line" smooth="yes"/>
      <point x="376.860351562" y="1039.0"/>
      <point x="394.860351562" y="1065.0"/>
      <point x="428.860351562" y="1065.0" type="curve" smooth="yes"/>
      <point x="433.860351562" y="1065.0" type="line" smooth="yes"/>
      <point x="466.860351562" y="1065.0"/>
      <point x="473.860351562" y="1039.0"/>
      <point x="467.860351562" y="995.0" type="curve" smooth="yes"/>
    </contour>
  </outline>
</glyph>
<glyph name="x" format="2">
  <advance height="960" width="329"/>
  <unicode hex="0078"/>
  <outline>
    <contour>
      <point x="-56.4130859375" y="-15.0" type="curve" smooth="yes"/>
      <point x="-61.4130859375" y="-15.0" type="line" smooth="yes"/>
      <point x="-105.413085938" y="-15.0"/>
      <point x="-109.413085938" y="12.0"/>
      <point x="-90.4130859375" y="55.0" type="curve" smooth="yes"/>
      <point x="119.586914062" y="534.0" type="line"/>
      <point x="134.586914062" y="995.0" type="line" smooth="yes"/>
      <point x="135.586914062" y="1038.0"/>
      <point x="165.586914062" y="1065.0"/>
      <point x="209.586914062" y="1065.0" type="curve" smooth="yes"/>
      <point x="210.586914062" y="1065.0" type="line" smooth="yes"/>
      <point x="254.586914062" y="1065.0"/>
      <point x="263.586914062" y="1039.0"/>
      <point x="257.586914062" y="995.0" type="curve" smooth="yes"/>
      <point x="205.586914062" y="622.0" type="line"/>
      <point x="323.586914062" y="995.0" type="line" smooth="yes"/>
      <point x="337.586914062" y="1039.0"/>
      <point x="353.586914062" y="1065.0"/>
      <point x="397.586914062" y="1065.0" type="curve" smooth="yes"/>
      <point x="399.586914062" y="1065.0" type="line" smooth="yes"/>
      <point x="443.586914062" y="1065.0"/>
      <point x="451.586914062" y="1038.0"/>
      <point x="432.586914062" y="995.0" type="curve" smooth="yes"/>
      <point x="234.586914062" y="542.0" type="line"/>
      <point x="224.586914062" y="55.0" type="line" smooth="yes"/>
      <point x="223.586914062" y="12.0"/>
      <point x="195.586914062" y="-15.0"/>
      <point x="151.586914062" y="-15.0" type="curve" smooth="yes"/>
      <point x="149.586914062" y="-15.0" type="line" smooth="yes"/>
      <point x="105.586914062" y="-15.0"/>
      <point x="97.5869140625" y="11.0"/>
      <point x="102.586914062" y="55.0" type="curve" smooth="yes"/>
      <point x="151.586914062" y="454.0" type="line"/>
      <point x="19.5869140625" y="55.0" type="line" smooth="yes"/>
      <point x="5.5869140625" y="11.0"/>
      <point x="-12.4130859375" y="-15.0"/>
    </contour>
  </outline>
</glyph>
<glyph name="y" format="2">
  <advance height="960" width="386"/>
  <unicode hex="0079"/>
  <anchor x="345.0" y="1050.0" name="top"/>
  <outline>
    <contour>
      <point x="165.153320312" y="275.0" type="line"/>
      <point x="406.153320312" y="1015.0" type="line" smooth="yes"/>
      <point x="416.0625" y="1045.42480469"/>
      <point x="433.153320312" y="1065.0"/>
      <point x="457.153320312" y="1065.0" type="curve" smooth="yes"/>
      <point x="458.153320312" y="1065.0" type="line" smooth="yes"/>
      <point x="493.153320312" y="1065.0"/>
      <point x="505.58984375" y="1045.07226562"/>
      <point x="495.153320312" y="1015.0" type="curve" smooth="yes"/>
      <point x="174.153320312" y="90.0" type="line" smooth="yes"/>
      <point x="51.1533203125" y="-266.0"/>
      <point x="14.1533203125" y="-371.0"/>
      <point x="-98.8466796875" y="-371.0" type="curve" smooth="yes"/>
      <point x="-217.846679688" y="-371.0"/>
      <point x="-165.515625" y="-196.206054688"/>
      <point x="-143.846679688" y="-137.0" type="curve" smooth="yes"/>
      <point x="-131.797851562" y="-104.078125"/>
      <point x="-115.846679688" y="-87.0"/>
      <point x="-98.8466796875" y="-87.0" type="curve" smooth="yes"/>
      <point x="-96.8466796875" y="-87.0" type="line" smooth="yes"/>
      <point x="-71.8466796875" y="-87.0"/>
      <point x="-66.4970703125" y="-104.887695312"/>
      <point x="-77.8466796875" y="-137.0" type="curve" smooth="yes"/>
      <point x="-102.7578125" y="-207.484375"/>
      <point x="-112.846679688" y="-284.0"/>
      <point x="-92.8466796875" y="-284.0" type="curve" smooth="yes"/>
      <point x="-61.8466796875" y="-284.0"/>
      <point x="0.1533203125" y="-97.0"/>
      <point x="58.1533203125" y="78.0" type="curve"/>
      <point x="162.153320312" y="1017.0" type="line" smooth="yes"/>
      <point x="165.763671875" y="1049.59960938"/>
      <point x="190.153320312" y="1065.0"/>
      <point x="222.153320312" y="1065.0" type="curve" smooth="yes"/>
      <point x="225.153320312" y="1065.0" type="line" smooth="yes"/>
      <point x="258.153320312" y="1065.0"/>
      <point x="278.9296875" y="1044.29394531"/>
      <point x="274.153320312" y="1012.0" type="curve" smooth="yes"/>
    </contour>
  </outline>
</glyph>
<glyph name="z" format="2">
  <advance height="960" width="344"/>
  <unicode hex="007A"/>
  <anchor x="316.0" y="1050.0" name="top"/>
  <outline>
    <contour>
      <point x="-73.904296875" y="75.0" type="curve" smooth="yes"/>
      <point x="319.095703125" y="962.0" type="line"/>
      <point x="202.095703125" y="962.0" type="line" smooth="yes"/>
      <point x="158.095703125" y="962.0"/>
      <point x="134.095703125" y="969.0"/>
      <point x="142.095703125" y="1003.0" type="curve" smooth="yes"/>
      <point x="143.095703125" y="1010.0" type="line" smooth="yes"/>
      <point x="151.095703125" y="1044.0"/>
      <point x="178.095703125" y="1050.0"/>
      <point x="222.095703125" y="1050.0" type="curve" smooth="yes"/>
      <point x="397.095703125" y="1050.0" type="line" smooth="yes"/>
      <point x="461.095703125" y="1050.0"/>
      <point x="464.095703125" y="1037.0"/>
      <point x="437.095703125" y="975.0" type="curve" smooth="yes"/>
      <point x="47.095703125" y="88.0" type="line"/>
      <point x="183.095703125" y="88.0" type="line" smooth="yes"/>
      <point x="227.095703125" y="88.0"/>
      <point x="252.095703125" y="81.0"/>
      <point x="244.095703125" y="47.0" type="curve" smooth="yes"/>
      <point x="242.095703125" y="40.0" type="line" smooth="yes"/>
      <point x="234.095703125" y="7.0"/>
      <point x="207.095703125" y="0.0"/>
      <point x="163.095703125" y="0.0" type="curve" smooth="yes"/>
      <point x="-34.904296875" y="0.0" type="line" smooth="yes"/>
      <point x="-98.904296875" y="0.0"/>
      <point x="-100.904296875" y="13.0"/>
    </contour>
  </outline>
</glyph>
<glyph name="braceleft" format="2">
  <advance height="2048" width="300"/>
  <unicode hex="007B"/>
  <outline>
    <contour>
      <point x="290.0" y="1439.0" type="line" smooth="yes"/>
      <point x="316.0" y="1553.0"/>
      <point x="360.0" y="1600.0"/>
      <point x="473.0" y="1600.0" type="curve" smooth="yes"/>
      <point x="507.0" y="1600.0"/>
      <point x="511.0" y="1586.0"/>
      <point x="508.0" y="1572.0" type="curve" smooth="yes"/>
      <point x="507.0" y="1568.0" type="line" smooth="yes"/>
      <point x="503.0" y="1549.0"/>
      <point x="484.0" y="1542.0"/>
      <point x="460.0" y="1542.0" type="curve" smooth="yes"/>
      <point x="430.0" y="1542.0"/>
      <point x="408.0" y="1517.0"/>
      <point x="388.0" y="1430.0" type="curve" smooth="yes"/>
      <point x="240.0" y="788.0" type="line" smooth="yes"/>
      <point x="219.0" y="696.0"/>
      <point x="189.0" y="644.0"/>
      <point x="105.0" y="620.0" type="curve"/>
      <point x="177.0" y="596.0"/>
      <point x="183.0" y="544.0"/>
      <point x="162.0" y="452.0" type="curve" smooth="yes"/>
      <point x="14.0" y="-190.0" type="line" smooth="yes"/>
      <point x="-6.0" y="-277.0"/>
      <point x="4.0" y="-302.0"/>
      <point x="34.0" y="-302.0" type="curve" smooth="yes"/>
      <point x="58.0" y="-302.0"/>
      <point x="73.0" y="-309.0"/>
      <point x="69.0" y="-328.0" type="curve" smooth="yes"/>
      <point x="68.0" y="-332.0" type="line" smooth="yes"/>
      <point x="65.0" y="-346.0"/>
      <point x="55.0" y="-360.0"/>
      <point x="21.0" y="-360.0" type="curve" smooth="yes"/>
      <point x="-92.0" y="-360.0"/>
      <point x="-114.0" y="-313.0"/>
      <point x="-88.0" y="-199.0" type="curve" smooth="yes"/>
      <point x="62.0" y="452.0" type="line" smooth="yes"/>
      <point x="81.0" y="536.0"/>
      <point x="69.0" y="558.0"/>
      <point x="43.0" y="573.0" type="curve" smooth="yes"/>
      <point x="22.0" y="585.0"/>
      <point x="7.0" y="595.0"/>
      <point x="13.0" y="619.0" type="curve" smooth="yes"/>
      <point x="13.0" y="621.0" type="line" smooth="yes"/>
      <point x="19.0" y="645.0"/>
      <point x="37.0" y="655.0"/>
      <point x="64.0" y="667.0" type="curve" smooth="yes"/>
      <point x="97.0" y="682.0"/>
      <point x="121.0" y="704.0"/>
      <point x="140.0" y="788.0" type="curve" smooth="yes"/>
    </contour>
  </outline>
</glyph>
<glyph name="bar" format="2">
  <advance height="1920" width="312"/>
  <unicode hex="007C"/>
  <outline>
    <contour>
      <point x="409.0" y="1615.0" type="curve" smooth="yes"/>
      <point x="410.0" y="1615.0" type="line" smooth="yes"/>
      <point x="437.0" y="1615.0"/>
      <point x="443.0" y="1587.0"/>
      <point x="432.0" y="1540.0" type="curve" smooth="yes"/>
      <point x="7.0" y="-300.0" type="line" smooth="yes"/>
      <point x="-6.0" y="-357.0"/>
      <point x="-23.0" y="-375.0"/>
      <point x="-50.0" y="-375.0" type="curve" smooth="yes"/>
      <point x="-51.0" y="-375.0" type="line" smooth="yes"/>
      <point x="-78.0" y="-375.0"/>
      <point x="-85.0" y="-357.0"/>
      <point x="-72.0" y="-300.0" type="curve" smooth="yes"/>
      <point x="353.0" y="1540.0" type="line" smooth="yes"/>
      <point x="364.0" y="1587.0"/>
      <point x="382.0" y="1615.0"/>
    </contour>
  </outline>
</glyph>
<glyph name="braceright" format="2">
  <advance height="2048" width="300"/>
  <unicode hex="007D"/>
  <outline>
    <contour>
      <point x="56.0" y="-199.0" type="line" smooth="yes"/>
      <point x="30.0" y="-313.0"/>
      <point x="-14.0" y="-360.0"/>
      <point x="-127.0" y="-360.0" type="curve" smooth="yes"/>
      <point x="-161.0" y="-360.0"/>
      <point x="-165.0" y="-346.0"/>
      <point x="-162.0" y="-332.0" type="curve" smooth="yes"/>
      <point x="-161.0" y="-328.0" type="line" smooth="yes"/>
      <point x="-157.0" y="-309.0"/>
      <point x="-138.0" y="-302.0"/>
      <point x="-114.0" y="-302.0" type="curve" smooth="yes"/>
      <point x="-84.0" y="-302.0"/>
      <point x="-62.0" y="-277.0"/>
      <point x="-42.0" y="-190.0" type="curve" smooth="yes"/>
      <point x="106.0" y="452.0" type="line" smooth="yes"/>
      <point x="127.0" y="544.0"/>
      <point x="157.0" y="596.0"/>
      <point x="241.0" y="620.0" type="curve"/>
      <point x="169.0" y="644.0"/>
      <point x="163.0" y="696.0"/>
      <point x="184.0" y="788.0" type="curve" smooth="yes"/>
      <point x="332.0" y="1430.0" type="line" smooth="yes"/>
      <point x="352.0" y="1517.0"/>
      <point x="342.0" y="1542.0"/>
      <point x="312.0" y="1542.0" type="curve" smooth="yes"/>
      <point x="288.0" y="1542.0"/>
      <point x="273.0" y="1549.0"/>
      <point x="277.0" y="1568.0" type="curve" smooth="yes"/>
      <point x="278.0" y="1572.0" type="line" smooth="yes"/>
      <point x="281.0" y="1586.0"/>
      <point x="291.0" y="1600.0"/>
      <point x="325.0" y="1600.0" type="curve" smooth="yes"/>
      <point x="438.0" y="1600.0"/>
      <point x="460.0" y="1553.0"/>
      <point x="434.0" y="1439.0" type="curve" smooth="yes"/>
      <point x="284.0" y="788.0" type="line" smooth="yes"/>
      <point x="265.0" y="704.0"/>
      <point x="277.0" y="682.0"/>
      <point x="303.0" y="667.0" type="curve" smooth="yes"/>
      <point x="324.0" y="655.0"/>
      <point x="339.0" y="645.0"/>
      <point x="333.0" y="621.0" type="curve" smooth="yes"/>
      <point x="333.0" y="619.0" type="line" smooth="yes"/>
      <point x="327.0" y="595.0"/>
      <point x="309.0" y="585.0"/>
      <point x="282.0" y="573.0" type="curve" smooth="yes"/>
      <point x="249.0" y="558.0"/>
      <point x="225.0" y="536.0"/>
      <point x="206.0" y="452.0" type="curve" smooth="yes"/>
    </contour>
  </outline>
</glyph>
<glyph name="asciitilde" format="2">
  <advance height="2048" width="664"/>
  <unicode hex="007E"/>
  <outline>
    <contour>
      <point x="234.0" y="623.0" type="curve" smooth="yes"/>
      <point x="190.0" y="623.0"/>
      <point x="162.0" y="589.0"/>
      <point x="151.0" y="564.0" type="curve" smooth="yes"/>
      <point x="133.0" y="522.0"/>
      <point x="119.0" y="505.0"/>
      <point x="86.0" y="505.0" type="curve" smooth="yes"/>
      <point x="84.0" y="505.0" type="line" smooth="yes"/>
      <point x="60.0" y="505.0"/>
      <point x="46.0" y="532.0"/>
      <point x="64.0" y="574.0" type="curve" smooth="yes"/>
      <point x="86.0" y="628.0"/>
      <point x="163.0" y="711.0"/>
      <point x="254.0" y="711.0" type="curve" smooth="yes"/>
      <point x="377.0" y="711.0"/>
      <point x="397.0" y="587.0"/>
      <point x="470.0" y="587.0" type="curve" smooth="yes"/>
      <point x="514.0" y="587.0"/>
      <point x="541.0" y="621.0"/>
      <point x="553.0" y="646.0" type="curve" smooth="yes"/>
      <point x="573.0" y="689.0"/>
      <point x="594.0" y="706.0"/>
      <point x="617.0" y="706.0" type="curve" smooth="yes"/>
      <point x="618.0" y="706.0" type="line" smooth="yes"/>
      <point x="652.0" y="706.0"/>
      <point x="661.0" y="679.0"/>
      <point x="641.0" y="636.0" type="curve" smooth="yes"/>
      <point x="611.0" y="572.0"/>
      <point x="540.0" y="500.0"/>
      <point x="449.0" y="500.0" type="curve" smooth="yes"/>
      <point x="326.0" y="500.0"/>
      <point x="307.0" y="623.0"/>
    </contour>
  </outline>
</glyph>
<glyph name="exclamdown" format="2">
  <advance height="1920" width="290"/>
  <unicode hex="00A1"/>
  <outline>
    <contour>
      <point x="244.0" y="1065.0" type="curve" smooth="yes"/>
      <point x="247.0" y="1065.0" type="line" smooth="yes"/>
      <point x="299.0" y="1065.0"/>
      <point x="322.0" y="1027.0"/>
      <point x="322.0" y="960.0" type="curve" smooth="yes"/>
      <point x="322.0" y="951.0" type="line" smooth="yes"/>
      <point x="322.0" y="884.0"/>
      <point x="299.0" y="846.0"/>
      <point x="247.0" y="846.0" type="curve" smooth="yes"/>
      <point x="244.0" y="846.0" type="line" smooth="yes"/>
      <point x="192.0" y="846.0"/>
      <point x="169.0" y="884.0"/>
      <point x="169.0" y="951.0" type="curve" smooth="yes"/>
      <point x="169.0" y="960.0" type="line" smooth="yes"/>
      <point x="169.0" y="1027.0"/>
      <point x="192.0" y="1065.0"/>
    </contour>
    <contour>
      <point x="114.0" y="100.0" type="curve" smooth="yes"/>
      <point x="15.0" y="-330.0" type="line" smooth="yes"/>
      <point x="2.0" y="-387.0"/>
      <point x="-33.0" y="-415.0"/>
      <point x="-70.0" y="-415.0" type="curve" smooth="yes"/>
      <point x="-71.0" y="-415.0" type="line" smooth="yes"/>
      <point x="-108.0" y="-415.0"/>
      <point x="-129.0" y="-387.0"/>
      <point x="-116.0" y="-330.0" type="curve" smooth="yes"/>
      <point x="-17.0" y="100.0" type="line" smooth="yes"/>
      <point x="-15.0" y="107.0"/>
      <point x="-14.0" y="113.0"/>
      <point x="-11.0" y="120.0" type="curve" smooth="yes"/>
      <point x="128.0" y="571.0" type="line" smooth="yes"/>
      <point x="143.0" y="618.0"/>
      <point x="157.0" y="626.0"/>
      <point x="169.0" y="626.0" type="curve" smooth="yes"/>
      <point x="172.0" y="626.0" type="line" smooth="yes"/>
      <point x="184.0" y="626.0"/>
      <point x="194.0" y="618.0"/>
      <point x="187.0" y="571.0" type="curve" smooth="yes"/>
      <point x="118.0" y="120.0" type="line" smooth="yes"/>
      <point x="117.0" y="113.0"/>
      <point x="116.0" y="107.0"/>
    </contour>
  </outline>
</glyph>
<glyph name="cent" format="2">
  <advance height="1920" width="359"/>
  <unicode hex="00A2"/>
  <outline>
    <contour>
      <point x="370.09765625" y="1255.0" type="curve" smooth="yes"/>
      <point x="372.09765625" y="1255.0" type="line" smooth="yes"/>
      <point x="386.09765625" y="1255.0"/>
      <point x="387.09765625" y="1239.0"/>
      <point x="384.09765625" y="1225.0" type="curve" smooth="yes"/>
      <point x="61.09765625" y="-175.0" type="line" smooth="yes"/>
      <point x="58.09765625" y="-189.0"/>
      <point x="49.09765625" y="-205.0"/>
      <point x="35.09765625" y="-205.0" type="curve" smooth="yes"/>
      <point x="33.09765625" y="-205.0" type="line" smooth="yes"/>
      <point x="19.09765625" y="-205.0"/>
      <point x="18.09765625" y="-189.0"/>
      <point x="21.09765625" y="-175.0" type="curve" smooth="yes"/>
      <point x="344.09765625" y="1225.0" type="line" smooth="yes"/>
      <point x="347.09765625" y="1239.0"/>
      <point x="356.09765625" y="1255.0"/>
    </contour>
    <component base="c"/>
  </outline>
</glyph>
<glyph name="sterling" format="2">
  <advance height="1920" width="487"/>
  <unicode hex="00A3"/>
  <outline>
    <contour>
      <point x="84.0" y="687.0" type="curve" smooth="yes"/>
      <point x="84.0" y="688.0" type="line" smooth="yes"/>
      <point x="84.0" y="712.0"/>
      <point x="100.0" y="722.0"/>
      <point x="144.0" y="722.0" type="curve" smooth="yes"/>
      <point x="336.0" y="722.0" type="line" smooth="yes"/>
      <point x="380.0" y="722.0"/>
      <point x="396.0" y="712.0"/>
      <point x="396.0" y="688.0" type="curve" smooth="yes"/>
      <point x="396.0" y="687.0" type="line" smooth="yes"/>
      <point x="396.0" y="663.0"/>
      <point x="380.0" y="653.0"/>
      <point x="336.0" y="653.0" type="curve" smooth="yes"/>
      <point x="144.0" y="653.0" type="line" smooth="yes"/>
      <point x="100.0" y="653.0"/>
      <point x="84.0" y="663.0"/>
    </contour>
    <contour>
      <point x="-58.0" y="90.0" type="curve" smooth="yes"/>
      <point x="15.0" y="153.0"/>
      <point x="128.0" y="369.0"/>
      <point x="182.0" y="604.0" type="curve" smooth="yes"/>
      <point x="228.0" y="803.0"/>
      <point x="158.0" y="907.0"/>
      <point x="203.0" y="1100.0" type="curve" smooth="yes"/>
      <point x="251.0" y="1306.0"/>
      <point x="308.0" y="1417.0"/>
      <point x="455.0" y="1417.0" type="curve" smooth="yes"/>
      <point x="605.0" y="1417.0"/>
      <point x="599.0" y="1279.0"/>
      <point x="543.0" y="1017.0" type="curve" smooth="yes"/>
      <point x="534.0" y="973.0"/>
      <point x="511.0" y="948.0"/>
      <point x="477.0" y="948.0" type="curve" smooth="yes"/>
      <point x="473.0" y="948.0" type="line" smooth="yes"/>
      <point x="440.0" y="948.0"/>
      <point x="430.0" y="973.0"/>
      <point x="439.0" y="1017.0" type="curve" smooth="yes"/>
      <point x="480.0" y="1210.0"/>
      <point x="512.0" y="1334.0"/>
      <point x="441.0" y="1334.0" type="curve" smooth="yes"/>
      <point x="371.0" y="1334.0"/>
      <point x="352.0" y="1272.0"/>
      <point x="313.0" y="1105.0" type="curve" smooth="yes"/>
      <point x="276.0" y="945.0"/>
      <point x="331.0" y="819.0"/>
      <point x="282.0" y="606.0" type="curve" smooth="yes"/>
      <point x="230.0" y="382.0"/>
      <point x="110.0" y="142.0"/>
      <point x="38.0" y="90.0" type="curve"/>
      <point x="287.0" y="90.0" type="line" smooth="yes"/>
      <point x="331.0" y="90.0"/>
      <point x="354.0" y="79.0"/>
      <point x="346.0" y="45.0" type="curve" smooth="yes"/>
      <point x="346.0" y="44.0" type="line" smooth="yes"/>
      <point x="338.0" y="10.0"/>
      <point x="310.0" y="0.0"/>
      <point x="266.0" y="0.0" type="curve" smooth="yes"/>
      <point x="-36.0" y="0.0" type="line" smooth="yes"/>
      <point x="-80.0" y="0.0"/>
      <point x="-94.0" y="9.0"/>
      <point x="-86.0" y="43.0" type="curve" smooth="yes"/>
      <point x="-86.0" y="44.0" type="line" smooth="yes"/>
      <point x="-81.0" y="66.0"/>
      <point x="-72.0" y="78.0"/>
    </contour>
  </outline>
</glyph>
<glyph name="currency" format="2">
  <advance width="1045"/>
  <unicode hex="00A4"/>
  <outline>
    <contour>
      <point x="851.0" y="946.0" type="curve" smooth="yes"/>
      <point x="853.0" y="943.0" type="line" smooth="yes"/>
      <point x="863.0" y="926.0"/>
      <point x="860.0" y="903.0"/>
      <point x="832.0" y="880.0" type="curve" smooth="yes"/>
      <point x="758.0" y="819.0" type="line" smooth="yes"/>
      <point x="756.0" y="817.0"/>
      <point x="753.0" y="817.0"/>
      <point x="751.0" y="819.0" type="curve" smooth="yes"/>
      <point x="710.0" y="871.0" type="line" smooth="yes"/>
      <point x="708.0" y="873.0"/>
      <point x="710.0" y="877.0"/>
      <point x="712.0" y="879.0" type="curve" smooth="yes"/>
      <point x="786.0" y="939.0" type="line" smooth="yes"/>
      <point x="814.0" y="962.0"/>
      <point x="841.0" y="963.0"/>
    </contour>
    <contour>
      <point x="371.0" y="596.0" type="curve" smooth="yes"/>
      <point x="412.0" y="544.0" type="line" smooth="yes"/>
      <point x="414.0" y="542.0"/>
      <point x="412.0" y="538.0"/>
      <point x="410.0" y="536.0" type="curve" smooth="yes"/>
      <point x="336.0" y="476.0" type="line" smooth="yes"/>
      <point x="316.0" y="460.0"/>
      <point x="285.0" y="454.0"/>
      <point x="271.0" y="469.0" type="curve" smooth="yes"/>
      <point x="268.0" y="472.0" type="line" smooth="yes"/>
      <point x="254.0" y="487.0"/>
      <point x="270.0" y="519.0"/>
      <point x="290.0" y="535.0" type="curve" smooth="yes"/>
      <point x="364.0" y="596.0" type="line" smooth="yes"/>
      <point x="366.0" y="598.0"/>
      <point x="369.0" y="598.0"/>
    </contour>
    <contour>
      <point x="377.0" y="943.0" type="curve" smooth="yes"/>
      <point x="382.0" y="947.0" type="line" smooth="yes"/>
      <point x="402.0" y="963.0"/>
      <point x="426.0" y="962.0"/>
      <point x="449.0" y="932.0" type="curve" smooth="yes"/>
      <point x="489.0" y="879.0" type="line" smooth="yes"/>
      <point x="491.0" y="877.0"/>
      <point x="489.0" y="873.0"/>
      <point x="487.0" y="871.0" type="curve" smooth="yes"/>
      <point x="422.0" y="819.0" type="line" smooth="yes"/>
      <point x="420.0" y="817.0"/>
      <point x="417.0" y="817.0"/>
      <point x="415.0" y="819.0" type="curve" smooth="yes"/>
      <point x="376.0" y="873.0" type="line" smooth="yes"/>
      <point x="353.0" y="904.0"/>
      <point x="357.0" y="927.0"/>
    </contour>
    <contour>
      <point x="635.0" y="544.0" type="curve" smooth="yes"/>
      <point x="694.0" y="592.0" type="line" smooth="yes"/>
      <point x="696.0" y="594.0"/>
      <point x="705.0" y="598.0"/>
      <point x="707.0" y="596.0" type="curve" smooth="yes"/>
      <point x="747.0" y="542.0" type="line" smooth="yes"/>
      <point x="770.0" y="511.0"/>
      <point x="766.0" y="485.0"/>
      <point x="745.0" y="472.0" type="curve" smooth="yes"/>
      <point x="741.0" y="469.0" type="line" smooth="yes"/>
      <point x="720.0" y="456.0"/>
      <point x="697.0" y="453.0"/>
      <point x="674.0" y="483.0" type="curve" smooth="yes"/>
      <point x="633.0" y="536.0" type="line" smooth="yes"/>
      <point x="631.0" y="538.0"/>
      <point x="633.0" y="542.0"/>
    </contour>
    <contour>
      <point x="317.0" y="709.0" type="curve" smooth="yes"/>
      <point x="348.0" y="843.0"/>
      <point x="485.0" y="954.0"/>
      <point x="619.0" y="954.0" type="curve" smooth="yes"/>
      <point x="753.0" y="954.0"/>
      <point x="838.0" y="843.0"/>
      <point x="807.0" y="709.0" type="curve" smooth="yes"/>
      <point x="776.0" y="575.0"/>
      <point x="640.0" y="464.0"/>
      <point x="506.0" y="464.0" type="curve" smooth="yes"/>
      <point x="372.0" y="464.0"/>
      <point x="286.0" y="575.0"/>
    </contour>
    <contour>
      <point x="410.0" y="709.0" type="curve" smooth="yes"/>
      <point x="390.0" y="621.0"/>
      <point x="438.0" y="552.0"/>
      <point x="526.0" y="552.0" type="curve" smooth="yes"/>
      <point x="614.0" y="552.0"/>
      <point x="695.0" y="621.0"/>
      <point x="715.0" y="709.0" type="curve" smooth="yes"/>
      <point x="735.0" y="797.0"/>
      <point x="687.0" y="866.0"/>
      <point x="599.0" y="866.0" type="curve" smooth="yes"/>
      <point x="511.0" y="866.0"/>
      <point x="430.0" y="797.0"/>
    </contour>
  </outline>
</glyph>
<glyph name="yen" format="2">
  <advance height="1920" width="457"/>
  <unicode hex="00A5"/>
  <outline>
    <contour>
      <point x="15.0" y="500.0" type="curve" smooth="yes"/>
      <point x="15.0" y="502.0" type="line" smooth="yes"/>
      <point x="15.0" y="526.0"/>
      <point x="30.0" y="532.0"/>
      <point x="74.0" y="532.0" type="curve" smooth="yes"/>
      <point x="383.0" y="532.0" type="line" smooth="yes"/>
      <point x="427.0" y="532.0"/>
      <point x="443.0" y="526.0"/>
      <point x="443.0" y="502.0" type="curve" smooth="yes"/>
      <point x="443.0" y="500.0" type="line" smooth="yes"/>
      <point x="443.0" y="476.0"/>
      <point x="427.0" y="470.0"/>
      <point x="383.0" y="470.0" type="curve" smooth="yes"/>
      <point x="74.0" y="470.0" type="line" smooth="yes"/>
      <point x="30.0" y="470.0"/>
      <point x="15.0" y="476.0"/>
    </contour>
    <contour>
      <point x="46.0" y="636.0" type="curve" smooth="yes"/>
      <point x="46.0" y="638.0" type="line" smooth="yes"/>
      <point x="46.0" y="662.0"/>
      <point x="61.0" y="667.0"/>
      <point x="105.0" y="667.0" type="curve" smooth="yes"/>
      <point x="414.0" y="667.0" type="line" smooth="yes"/>
      <point x="458.0" y="667.0"/>
      <point x="474.0" y="662.0"/>
      <point x="474.0" y="638.0" type="curve" smooth="yes"/>
      <point x="474.0" y="636.0" type="line" smooth="yes"/>
      <point x="474.0" y="612.0"/>
      <point x="458.0" y="605.0"/>
      <point x="414.0" y="605.0" type="curve" smooth="yes"/>
      <point x="105.0" y="605.0" type="line" smooth="yes"/>
      <point x="61.0" y="605.0"/>
      <point x="46.0" y="612.0"/>
    </contour>
    <component base="Y"/>
  </outline>
</glyph>
<glyph name="brokenbar" format="2">
  <advance height="1920" width="395"/>
  <unicode hex="00A6"/>
  <outline>
    <contour>
      <point x="180.0" y="445.0" type="curve" smooth="yes"/>
      <point x="182.0" y="445.0" type="line" smooth="yes"/>
      <point x="209.0" y="445.0"/>
      <point x="220.0" y="417.0"/>
      <point x="209.0" y="370.0" type="curve" smooth="yes"/>
      <point x="55.0" y="-300.0" type="line" smooth="yes"/>
      <point x="42.0" y="-357.0"/>
      <point x="17.0" y="-375.0"/>
      <point x="-9.0" y="-375.0" type="curve" smooth="yes"/>
      <point x="-10.0" y="-375.0" type="line" smooth="yes"/>
      <point x="-37.0" y="-375.0"/>
      <point x="-50.0" y="-357.0"/>
      <point x="-37.0" y="-300.0" type="curve" smooth="yes"/>
      <point x="117.0" y="370.0" type="line" smooth="yes"/>
      <point x="128.0" y="417.0"/>
      <point x="153.0" y="445.0"/>
    </contour>
    <contour>
      <point x="450.0" y="1615.0" type="curve" smooth="yes"/>
      <point x="452.0" y="1615.0" type="line" smooth="yes"/>
      <point x="479.0" y="1615.0"/>
      <point x="491.0" y="1587.0"/>
      <point x="480.0" y="1540.0" type="curve" smooth="yes"/>
      <point x="325.0" y="870.0" type="line" smooth="yes"/>
      <point x="312.0" y="813.0"/>
      <point x="288.0" y="795.0"/>
      <point x="262.0" y="795.0" type="curve" smooth="yes"/>
      <point x="261.0" y="795.0" type="line" smooth="yes"/>
      <point x="234.0" y="795.0"/>
      <point x="220.0" y="813.0"/>
      <point x="233.0" y="870.0" type="curve" smooth="yes"/>
      <point x="388.0" y="1540.0" type="line" smooth="yes"/>
      <point x="399.0" y="1587.0"/>
      <point x="423.0" y="1615.0"/>
    </contour>
  </outline>
</glyph>
<glyph name="section" format="2">
  <advance height="1920" width="561"/>
  <unicode hex="00A7"/>
  <outline>
    <contour>
      <point x="333.0" y="853.0" type="line"/>
      <point x="265.0" y="853.0"/>
      <point x="196.0" y="745.0"/>
      <point x="169.0" y="627.0" type="curve" smooth="yes"/>
      <point x="133.0" y="473.0"/>
      <point x="143.0" y="390.0"/>
      <point x="210.0" y="286.0" type="curve" smooth="yes"/>
      <point x="293.0" y="157.0"/>
      <point x="344.0" y="77.0"/>
      <point x="307.0" y="-84.0" type="curve" smooth="yes"/>
      <point x="264.0" y="-272.0"/>
      <point x="168.0" y="-397.0"/>
      <point x="51.0" y="-397.0" type="curve" smooth="yes"/>
      <point x="-67.0" y="-397.0"/>
      <point x="-78.0" y="-276.0"/>
      <point x="-55.0" y="-94.0" type="curve" smooth="yes"/>
      <point x="-51.0" y="-58.0"/>
      <point x="-26.0" y="-30.0"/>
      <point x="3.0" y="-30.0" type="curve" smooth="yes"/>
      <point x="5.0" y="-30.0" type="line" smooth="yes"/>
      <point x="34.0" y="-30.0"/>
      <point x="36.0" y="-58.0"/>
      <point x="31.0" y="-95.0" type="curve" smooth="yes"/>
      <point x="18.0" y="-195.0"/>
      <point x="4.0" y="-311.0"/>
      <point x="69.0" y="-311.0" type="curve" smooth="yes"/>
      <point x="127.0" y="-311.0"/>
      <point x="172.0" y="-238.0"/>
      <point x="202.0" y="-107.0" type="curve" smooth="yes"/>
      <point x="232.0" y="25.0"/>
      <point x="198.0" y="78.0"/>
      <point x="140.0" y="165.0" type="curve" smooth="yes"/>
      <point x="41.0" y="316.0"/>
      <point x="30.0" y="449.0"/>
      <point x="63.0" y="592.0" type="curve" smooth="yes"/>
      <point x="112.0" y="803.0"/>
      <point x="219.0" y="907.0"/>
      <point x="351.0" y="907.0" type="curve"/>
    </contour>
    <contour>
      <point x="226.0" y="183.0" type="line"/>
      <point x="294.0" y="183.0"/>
      <point x="364.0" y="290.0"/>
      <point x="391.0" y="408.0" type="curve" smooth="yes"/>
      <point x="417.0" y="519.0"/>
      <point x="417.0" y="645.0"/>
      <point x="350.0" y="749.0" type="curve" smooth="yes"/>
      <point x="267.0" y="878.0"/>
      <point x="217.0" y="959.0"/>
      <point x="254.0" y="1120.0" type="curve" smooth="yes"/>
      <point x="297.0" y="1308.0"/>
      <point x="392.0" y="1433.0"/>
      <point x="509.0" y="1433.0" type="curve" smooth="yes"/>
      <point x="627.0" y="1433.0"/>
      <point x="642.0" y="1302.0"/>
      <point x="613.0" y="1130.0" type="curve" smooth="yes"/>
      <point x="605.0" y="1084.0"/>
      <point x="582.0" y="1066.0"/>
      <point x="558.0" y="1066.0" type="curve" smooth="yes"/>
      <point x="557.0" y="1066.0" type="line" smooth="yes"/>
      <point x="533.0" y="1066.0"/>
      <point x="520.0" y="1084.0"/>
      <point x="527.0" y="1131.0" type="curve" smooth="yes"/>
      <point x="542.0" y="1240.0"/>
      <point x="556.0" y="1346.0"/>
      <point x="491.0" y="1346.0" type="curve" smooth="yes"/>
      <point x="433.0" y="1346.0"/>
      <point x="384.0" y="1257.0"/>
      <point x="358.0" y="1143.0" type="curve" smooth="yes"/>
      <point x="328.0" y="1011.0"/>
      <point x="362.0" y="958.0"/>
      <point x="420.0" y="871.0" type="curve" smooth="yes"/>
      <point x="519.0" y="720.0"/>
      <point x="533.0" y="596.0"/>
      <point x="498.0" y="444.0" type="curve" smooth="yes"/>
      <point x="449.0" y="233.0"/>
      <point x="341.0" y="129.0"/>
      <point x="209.0" y="129.0" type="curve"/>
    </contour>
  </outline>
</glyph>
<glyph name="copyright" format="2">
  <advance width="844"/>
  <unicode hex="00A9"/>
  <outline>
    <contour>
      <point x="553.0" y="589.0" type="curve" smooth="yes"/>
      <point x="500.0" y="359.0"/>
      <point x="472.0" y="240.0"/>
      <point x="345.0" y="240.0" type="curve" smooth="yes"/>
      <point x="242.0" y="240.0"/>
      <point x="252.0" y="327.0"/>
      <point x="284.0" y="466.0" type="curve" smooth="yes"/>
      <point x="378.0" y="876.0" type="line" smooth="yes"/>
      <point x="412.0" y="1025.0"/>
      <point x="457.0" y="1102.0"/>
      <point x="548.0" y="1102.0" type="curve" smooth="yes"/>
      <point x="667.0" y="1102.0"/>
      <point x="638.0" y="974.0"/>
      <point x="597.0" y="795.0" type="curve" smooth="yes"/>
      <point x="592.0" y="775.0"/>
      <point x="581.0" y="759.0"/>
      <point x="561.0" y="759.0" type="curve" smooth="yes"/>
      <point x="557.0" y="759.0" type="line" smooth="yes"/>
      <point x="537.0" y="759.0"/>
      <point x="534.0" y="775.0"/>
      <point x="539.0" y="795.0" type="curve" smooth="yes"/>
      <point x="580.0" y="987.0"/>
      <point x="586.0" y="1045.0"/>
      <point x="542.0" y="1045.0" type="curve" smooth="yes"/>
      <point x="498.0" y="1045.0"/>
      <point x="476.0" y="990.0"/>
      <point x="450.0" y="879.0" type="curve" smooth="yes"/>
      <point x="353.0" y="461.0" type="line" smooth="yes"/>
      <point x="330.0" y="361.0"/>
      <point x="320.0" y="297.0"/>
      <point x="364.0" y="297.0" type="curve" smooth="yes"/>
      <point x="410.0" y="297.0"/>
      <point x="436.0" y="338.0"/>
      <point x="494.0" y="589.0" type="curve" smooth="yes"/>
      <point x="500.0" y="615.0"/>
      <point x="515.0" y="625.0"/>
      <point x="529.0" y="625.0" type="curve" smooth="yes"/>
      <point x="534.0" y="625.0" type="line" smooth="yes"/>
      <point x="548.0" y="625.0"/>
      <point x="559.0" y="615.0"/>
    </contour>
    <contour>
      <point x="803.0" y="668.0" type="curve" smooth="yes"/>
      <point x="714.0" y="284.0"/>
      <point x="609.0" y="-28.0"/>
      <point x="295.0" y="-28.0" type="curve" smooth="yes"/>
      <point x="-19.0" y="-28.0"/>
      <point x="20.0" y="284.0"/>
      <point x="109.0" y="668.0" type="curve" smooth="yes"/>
      <point x="198.0" y="1052.0"/>
      <point x="302.0" y="1366.0"/>
      <point x="616.0" y="1366.0" type="curve" smooth="yes"/>
      <point x="930.0" y="1366.0"/>
      <point x="892.0" y="1052.0"/>
    </contour>
    <contour>
      <point x="757.0" y="668.0" type="curve" smooth="yes"/>
      <point x="835.0" y="1006.0"/>
      <point x="894.0" y="1320.0"/>
      <point x="606.0" y="1320.0" type="curve" smooth="yes"/>
      <point x="318.0" y="1320.0"/>
      <point x="233.0" y="1006.0"/>
      <point x="155.0" y="668.0" type="curve" smooth="yes"/>
      <point x="77.0" y="330.0"/>
      <point x="17.0" y="18.0"/>
      <point x="305.0" y="18.0" type="curve" smooth="yes"/>
      <point x="593.0" y="18.0"/>
      <point x="679.0" y="330.0"/>
    </contour>
  </outline>
</glyph>
